<?xml version="1.0" encoding="utf-8"?>
<!-- Generator: Adobe Illustrator 24.0.1, SVG Export Plug-In . SVG Version: 6.00 Build 0)  -->
<svg version="1.1" id="Capa_1" xmlns="http://www.w3.org/2000/svg" xmlns:xlink="http://www.w3.org/1999/xlink" x="0px" y="0px"
	 viewBox="0 0 465 109" style="enable-background:new 0 0 465 109;" xml:space="preserve">
<style type="text/css">
	.st0{fill:#FFFFFF;}
	.st1{fill:#82BC00;}
</style>
<title>LOGO_AFP_MODELO</title>
<path d="M455.9,75.6c0,15.6-12.5,28.2-28.1,28.2l-392,0.9c-15.5,0-28.2-12.5-28.2-28.1l0,0L7.5,33.6C7.5,18.1,20,5.5,35.6,5.5l0,0
	l392-0.9c15.6,0,28.2,12.5,28.2,28.1l0,0L455.9,75.6z"/>
<path class="st0" d="M55.8,73.5v-6.7V56.5c0-2.7-1.1-5.3-3.1-7.2c-0.9-1-2-1.7-3.3-2.2c-1.2-0.6-2.6-0.8-4-0.8s-2.7,0.3-4,0.8
	s-2.4,1.2-3.3,2.2c-0.9,0.9-1.7,2-2.2,3.2c-0.5,1.3-0.8,2.6-0.8,4s0.3,2.7,0.8,4c0.5,1.2,1.3,2.4,2.2,3.3c2,1.9,4.6,3,7.4,3h8.8v6.8
	h-8.8c-2.3,0-4.5-0.4-6.6-1.3c-2-0.9-3.9-2.1-5.5-3.7c-1.6-1.6-2.8-3.4-3.7-5.5s-1.3-4.3-1.3-6.6c0-2.3,0.4-4.5,1.3-6.6
	c0.9-2,2.1-3.9,3.7-5.4c1.6-1.6,3.4-2.8,5.5-3.6c4.2-1.8,9-1.8,13.2,0c2,0.8,3.9,2.1,5.4,3.6c1.6,1.5,2.8,3.4,3.7,5.4
	c0.9,2.1,1.4,4.3,1.4,6.6v17.1L55.8,73.5z"/>
<path class="st0" d="M83.6,32.5c-2.7,0-5.4,1.1-7.3,3c-0.9,0.9-1.7,2-2.2,3.3s-0.8,2.6-0.8,4v3.5H87V53H73.3v20.5h-6.7l-0.1-30.8
	c0-2.3,0.4-4.5,1.3-6.6c0.9-2,2.1-3.9,3.7-5.4c1.6-1.6,3.4-2.8,5.5-3.7s4.3-1.4,6.6-1.4H87v6.8L83.6,32.5z"/>
<path class="st0" d="M106.6,39.5c2.3,0,4.5,0.4,6.6,1.3c2.1,0.8,3.9,2.1,5.5,3.6c3.2,3.2,5,7.5,5,12c0,2.3-0.4,4.5-1.4,6.6
	c-0.8,2-2.1,3.9-3.6,5.5c-1.6,1.6-3.4,2.9-5.5,3.7c-2.1,0.9-4.3,1.3-6.6,1.3H96.3v13.7h-6.7V56.5c0-2.3,0.4-4.5,1.3-6.6
	c0.9-2,2.1-3.8,3.6-5.4c1.6-1.6,3.4-2.8,5.5-3.7C102,39.9,104.3,39.4,106.6,39.5 M106.6,66.8c1.4,0,2.7-0.3,4-0.8
	c1.2-0.5,2.3-1.3,3.3-2.2c1-0.9,1.7-2.1,2.2-3.3c0.6-1.3,0.8-2.7,0.8-4s-0.3-2.7-0.8-3.9c-0.5-1.2-1.2-2.4-2.2-3.3
	c-0.9-1-2-1.7-3.3-2.2c-1.3-0.6-2.6-0.8-4-0.8c-2.7,0-5.4,1.1-7.3,3.1c-0.9,0.9-1.7,2.1-2.2,3.3c-0.5,1.2-0.8,2.6-0.7,3.9v10.3
	L106.6,66.8z"/>
<path class="st0" d="M257.8,39c2.3,0,4.5,0.4,6.6,1.4c2.1,0.8,3.9,2.1,5.5,3.6c3.2,3.2,5,7.5,5.1,12v17.1h-6.7V56
	c0-1.4-0.3-2.7-0.8-4c-0.5-1.2-1.2-2.3-2.2-3.2c-0.9-1-2-1.7-3.3-2.2s-2.6-0.8-4-0.8s-2.7,0.3-4,0.8c-2.4,1.1-4.4,3-5.4,5.5
	c-0.5,1.3-0.8,2.6-0.8,4v17.1l-6.8,0.1V56.1c0-1.4-0.3-2.7-0.8-4c-1.1-2.4-3-4.4-5.5-5.4c-2.6-1.1-5.5-1.1-8.1,0
	c-1.2,0.5-2.3,1.3-3.3,2.2c-0.9,0.9-1.7,2-2.2,3.3s-0.8,2.6-0.8,4v17.1h-6.7V56.2c0-2.3,0.4-4.5,1.3-6.6c0.9-2,2.1-3.8,3.6-5.4
	c1.6-1.6,3.4-2.8,5.5-3.7c2.1-0.9,4.3-1.4,6.6-1.4c2.7,0,5.4,0.6,7.7,1.9c2.3,1.2,4.4,2.9,5.9,5c1.5-2.1,3.5-3.8,5.9-5
	C252.5,39.7,255.1,39,257.8,39"/>
<path class="st0" d="M400.9,55.8c0-2.3,0.4-4.5,1.3-6.6c0.9-2,2.1-3.8,3.6-5.4s3.4-2.8,5.5-3.7c4.2-1.8,9-1.8,13.2,0
	c2,0.8,3.9,2.1,5.5,3.6c3.2,3.2,5,7.5,5,12c0,2.3-0.4,4.5-1.3,6.6c-0.8,2-2.1,3.9-3.6,5.5c-1.6,1.6-3.4,2.8-5.4,3.7
	c-4.2,1.7-9,1.7-13.2,0c-2-0.9-3.9-2.1-5.5-3.7c-1.5-1.6-2.8-3.4-3.7-5.5C401.3,60.3,400.9,58.1,400.9,55.8 M407.5,55.8
	c0,1.4,0.3,2.7,0.8,4c0.5,1.2,1.3,2.4,2.2,3.3c1,0.9,2.1,1.7,3.3,2.2c1.3,0.5,2.6,0.8,4,0.7c1.4,0,2.7-0.3,4-0.8
	c1.2-0.5,2.3-1.3,3.3-2.2c0.9-1,1.7-2.1,2.2-3.3c0.6-1.3,0.8-2.6,0.8-4s-0.3-2.7-0.8-4c-0.5-1.2-1.2-2.3-2.2-3.3
	c-0.9-1-2-1.7-3.3-2.2s-2.6-0.8-4-0.8s-2.7,0.3-4,0.8s-2.4,1.2-3.3,2.2c-0.9,0.9-1.7,2-2.2,3.3C407.8,53.1,407.5,54.5,407.5,55.8"/>
<path class="st0" d="M368.1,45.9c-2.7,0.6-5,2.3-6.3,4.7c-0.8,1.3-1.3,2.8-1.4,4.4l3.7-0.9l5.4-1.3l5.5-1.4c1.8-0.4,3.1-0.7,4.1-1
	c-1.1-1.8-2.8-3.2-4.8-4C372.4,45.5,370.2,45.4,368.1,45.9 M374.8,72.5c-2.2,0.5-4.5,0.6-6.7,0.4c-2.2-0.3-4.3-1.1-6.2-2.2
	c-3.9-2.3-6.7-6.1-7.8-10.5c-0.6-2.2-0.7-4.5-0.3-6.7c0.4-2.2,1.1-4.3,2.3-6.2c1.1-1.9,2.6-3.5,4.3-4.8c1.8-1.4,3.9-2.4,6.1-2.9
	c2.2-0.6,4.5-0.7,6.7-0.3c2.2,0.3,4.3,1.1,6.2,2.2c1.9,1.1,3.5,2.6,4.8,4.4c1.4,1.8,2.4,3.9,2.9,6.1l0.8,3.2L362,61.7
	c1.1,1.8,2.8,3.2,4.7,4c2,0.8,4.3,0.9,6.4,0.4s4-1.7,5.4-3.3l8.5-2.1C387,60.5,384.9,69.9,374.8,72.5"/>
<path class="st0" d="M278.6,56.1c0-2.3,0.4-4.5,1.3-6.6c0.9-2,2.1-3.8,3.6-5.4c4.9-5,12.3-6.4,18.7-3.7c2.1,0.8,3.9,2.1,5.5,3.6
	s2.8,3.3,3.6,5.4c0.9,2.1,1.4,4.3,1.4,6.6c0,2.3-0.4,4.5-1.3,6.6c-0.8,2-2.1,3.9-3.6,5.5c-1.6,1.6-3.4,2.8-5.5,3.7
	c-2.1,0.9-4.3,1.3-6.6,1.3c-2.3,0-4.5-0.4-6.6-1.3c-2-0.9-3.9-2.1-5.5-3.7c-1.5-1.6-2.8-3.4-3.7-5.5C279,60.7,278.6,58.4,278.6,56.1
	 M285.2,56.1c0,1.4,0.3,2.7,0.8,4c0.5,1.2,1.3,2.4,2.2,3.3c1,0.9,2.1,1.7,3.3,2.2c1.3,0.5,2.6,0.8,4,0.8c2.7,0,5.4-1,7.3-3
	s3-4.6,3-7.4c0-1.4-0.3-2.7-0.9-3.9c-1-2.5-3-4.4-5.5-5.4c-1.3-0.5-2.6-0.8-4-0.8s-2.7,0.3-4,0.8c-1.2,0.5-2.4,1.3-3.3,2.2
	c-0.9,0.9-1.7,2-2.2,3.3C285.5,53.4,285.2,54.8,285.2,56.1"/>
<path class="st1" d="M201.5,54.6c0,19.3-15.6,35-34.9,35s-35-15.6-35-34.9s15.5-35,34.8-35S201.4,35.3,201.5,54.6L201.5,54.6"/>
<path class="st0" d="M171.5,78c-2.4-4.3-6.6-11.4-6.6-20.1s6.3-10.1,8.4-10.3c2.1-0.2,6.4,1.1,7.1,8.3c0.6,6.3,0.1,21.1,0.1,21.1
	l3.7-0.9c0,0,0.5-7.7,1.2-14.8c0.5-5.2,0.9-12.5,4.5-14.4c4.9-2.6,6.9,1.6,7,6.4c0.2,7.5-2.2,12.7-3.8,14.9
	c-0.8,1.1-1.6,2.2-2.2,3.4c4.9-3.1,8.5-8,9.8-13.6c1.9-8.2-1.5-15.5-2.8-17.1s-4.6-4.3-8.7-1.9c-2.5,1.4-4.6,3.4-6.2,5.7
	c0,0-1.5-3.6-6.7-4.6c-5.5-1.1-11.3,0.8-15.6,6.7c-4.3,5.9-5,11.3-3.8,17.8c1.1,5.7,5.6,13.5,5.6,13.5L171.5,78z"/>
<path class="st0" d="M350.1,25.3l0.1,30.7c0,2.3-0.4,4.5-1.4,6.6c-0.8,2-2.1,3.9-3.6,5.5c-4.9,4.9-12.2,6.4-18.6,3.8
	c-2-0.9-3.9-2.1-5.5-3.7s-2.8-3.4-3.7-5.4c-0.9-2.1-1.3-4.3-1.3-6.6c0-6.8,4.1-13,10.5-15.6c2.1-0.9,4.3-1.4,6.6-1.4h10.2V25.3
	H350.1z M333.2,66.3c1.4,0,2.7-0.2,3.9-0.8c1.2-0.5,2.3-1.3,3.3-2.2c1.9-2,3-4.6,3-7.3V45.7h-10.2c-1.4,0-2.7,0.3-4,0.9
	c-1.2,0.5-2.4,1.2-3.3,2.2c-0.9,0.9-1.7,2.1-2.2,3.3c-0.5,1.3-0.8,2.6-0.8,4s0.3,2.7,0.8,4c0.5,1.2,1.3,2.4,2.2,3.3
	c1,0.9,2.1,1.7,3.4,2.2C330.5,66,331.9,66.3,333.2,66.3"/>
<polyline class="st0" points="390.9,72.9 390.9,45.6 390.8,38.8 390.8,25.2 397.6,25.2 397.7,72.9 "/>
</svg>
