<?xml version="1.0" encoding="utf-8"?>
<!-- Generator: Adobe Illustrator 25.2.3, SVG Export Plug-In . SVG Version: 6.00 Build 0)  -->
<svg version="1.1" id="Layer_1" xmlns="http://www.w3.org/2000/svg" xmlns:xlink="http://www.w3.org/1999/xlink" x="0px" y="0px"
	 viewBox="0 0 320.1 398.6" style="enable-background:new 0 0 320.1 398.6;" xml:space="preserve">
<style type="text/css">
	.st0{fill:#F14B94;}
</style>
<path class="st0" d="M143.1,199.5l-136-136c-9.4-9.3-9.4-24.4-0.1-33.8c0,0,0.1-0.1,0.1-0.1L29.6,7C39-2.3,54.1-2.4,63.4,6.9
	c0,0,0.1,0.1,0.1,0.1l96.4,96.4L256.3,7c9.3-9.4,24.4-9.4,33.8-0.1c0,0,0.1,0.1,0.1,0.1L313,29.6c9.4,9.3,9.4,24.4,0.1,33.8
	c0,0-0.1,0.1-0.1,0.1l-136,136c-9.3,9.4-24.4,9.5-33.8,0.3C143.2,199.7,143.1,199.6,143.1,199.5L143.1,199.5z M177.1,391.5l136-136
	c9.4-9.3,9.4-24.4,0.1-33.8c0,0-0.1-0.1-0.1-0.1L290.4,199c-9.3-9.4-24.4-9.4-33.8-0.1c0,0-0.1,0.1-0.1,0.1l-96.5,96.3l-96.4-96.4
	c-9.3-9.4-24.4-9.4-33.8-0.1c0,0-0.1,0.1-0.1,0.1L7.1,221.5c-9.4,9.3-9.4,24.4-0.1,33.8c0,0,0.1,0.1,0.1,0.1l136,136
	c9.3,9.4,24.4,9.5,33.8,0.3C176.9,391.7,177,391.6,177.1,391.5z"/>
</svg>
