<svg id="Layer_1" data-name="Layer 1" xmlns="http://www.w3.org/2000/svg" viewBox="0 0 320.1 398.59"><path d="M143,256.3,7,120.3A23.9,23.9,0,0,1,7,86.4L29.6,63.8a23.9,23.9,0,0,1,33.9,0l96.4,96.4,96.4-96.4a23.9,23.9,0,0,1,33.9,0L313,86.3a23.9,23.9,0,0,1,0,33.9l-136,136a23.93,23.93,0,0,1-34,.1Zm34,192,136-136a23.9,23.9,0,0,0,0-33.9l-22.6-22.6a23.9,23.9,0,0,0-33.9,0L160,352.1,63.6,255.7a23.9,23.9,0,0,0-33.9,0L7,278.3a23.9,23.9,0,0,0,0,33.9l136,136A23.93,23.93,0,0,0,177,448.3Z" transform="translate(0.05 -56.75)"/></svg>