<svg xmlns="http://www.w3.org/2000/svg" width="62" height="82" viewBox="0 0 62 82">
  <defs>
    <style>
      .cls-1, .cls-4 {
        fill: none;
      }

      .cls-1 {
        stroke: #666;
      }

      .cls-1, .cls-2 {
        stroke-linecap: round;
        stroke-linejoin: round;
        stroke-width: 2px;
      }

      .cls-2 {
        fill: #f5af18;
        stroke: #f5af18;
      }

      .cls-3 {
        stroke: none;
      }
    </style>
  </defs>
  <g id="Grupo_1656" data-name="Grupo 1656" transform="translate(-152.435 -1539.215)">
    <g id="Grupo_1223" data-name="Grupo 1223" transform="translate(-27.381 550.054)">
      <rect id="Rectángulo_391" data-name="Rectángulo 391" class="cls-1" width="60" height="80" rx="4" transform="translate(180.816 990.161)"/>
      <rect id="Rectángulo_392" data-name="Rectángulo 392" class="cls-2" width="44" height="16" transform="translate(188.816 998.161)"/>
      <g id="Rectángulo_393" data-name="Rectángulo 393" class="cls-1" transform="translate(188.816 1054.161)">
        <rect class="cls-3" width="8" height="8"/>
        <rect class="cls-4" x="1" y="1" width="6" height="6"/>
      </g>
      <g id="Rectángulo_394" data-name="Rectángulo 394" class="cls-1" transform="translate(200.816 1054.161)">
        <rect class="cls-3" width="8" height="8"/>
        <rect class="cls-4" x="1" y="1" width="6" height="6"/>
      </g>
      <g id="Rectángulo_395" data-name="Rectángulo 395" class="cls-1" transform="translate(188.816 1042.161)">
        <rect class="cls-3" width="8" height="8"/>
        <rect class="cls-4" x="1" y="1" width="6" height="6"/>
      </g>
      <g id="Rectángulo_396" data-name="Rectángulo 396" class="cls-1" transform="translate(200.816 1042.161)">
        <rect class="cls-3" width="8" height="8"/>
        <rect class="cls-4" x="1" y="1" width="6" height="6"/>
      </g>
      <g id="Rectángulo_397" data-name="Rectángulo 397" class="cls-1" transform="translate(188.816 1030.161)">
        <rect class="cls-3" width="8" height="8"/>
        <rect class="cls-4" x="1" y="1" width="6" height="6"/>
      </g>
      <g id="Rectángulo_398" data-name="Rectángulo 398" class="cls-1" transform="translate(200.816 1030.161)">
        <rect class="cls-3" width="8" height="8"/>
        <rect class="cls-4" x="1" y="1" width="6" height="6"/>
      </g>
      <g id="Rectángulo_399" data-name="Rectángulo 399" class="cls-1" transform="translate(188.816 1018.161)">
        <rect class="cls-3" width="8" height="8"/>
        <rect class="cls-4" x="1" y="1" width="6" height="6"/>
      </g>
      <g id="Rectángulo_400" data-name="Rectángulo 400" class="cls-1" transform="translate(200.816 1018.161)">
        <rect class="cls-3" width="8" height="8"/>
        <rect class="cls-4" x="1" y="1" width="6" height="6"/>
      </g>
      <g id="Rectángulo_401" data-name="Rectángulo 401" class="cls-1" transform="translate(200.816 1054.161)">
        <rect class="cls-3" width="8" height="8"/>
        <rect class="cls-4" x="1" y="1" width="6" height="6"/>
      </g>
      <g id="Rectángulo_402" data-name="Rectángulo 402" class="cls-1" transform="translate(200.816 1042.161)">
        <rect class="cls-3" width="8" height="8"/>
        <rect class="cls-4" x="1" y="1" width="6" height="6"/>
      </g>
      <g id="Rectángulo_403" data-name="Rectángulo 403" class="cls-1" transform="translate(200.816 1030.161)">
        <rect class="cls-3" width="8" height="8"/>
        <rect class="cls-4" x="1" y="1" width="6" height="6"/>
      </g>
      <g id="Rectángulo_404" data-name="Rectángulo 404" class="cls-1" transform="translate(200.816 1018.161)">
        <rect class="cls-3" width="8" height="8"/>
        <rect class="cls-4" x="1" y="1" width="6" height="6"/>
      </g>
      <g id="Rectángulo_405" data-name="Rectángulo 405" class="cls-1" transform="translate(212.816 1054.161)">
        <rect class="cls-3" width="8" height="8"/>
        <rect class="cls-4" x="1" y="1" width="6" height="6"/>
      </g>
      <g id="Rectángulo_406" data-name="Rectángulo 406" class="cls-1" transform="translate(212.816 1042.161)">
        <rect class="cls-3" width="8" height="8"/>
        <rect class="cls-4" x="1" y="1" width="6" height="6"/>
      </g>
      <g id="Rectángulo_407" data-name="Rectángulo 407" class="cls-1" transform="translate(212.816 1030.161)">
        <rect class="cls-3" width="8" height="8"/>
        <rect class="cls-4" x="1" y="1" width="6" height="6"/>
      </g>
      <g id="Rectángulo_408" data-name="Rectángulo 408" class="cls-1" transform="translate(212.816 1018.161)">
        <rect class="cls-3" width="8" height="8"/>
        <rect class="cls-4" x="1" y="1" width="6" height="6"/>
      </g>
      <rect id="Rectángulo_409" data-name="Rectángulo 409" class="cls-2" width="8" height="20" transform="translate(224.816 1042.161)"/>
      <g id="Rectángulo_410" data-name="Rectángulo 410" class="cls-1" transform="translate(224.816 1030.161)">
        <rect class="cls-3" width="8" height="8"/>
        <rect class="cls-4" x="1" y="1" width="6" height="6"/>
      </g>
      <g id="Rectángulo_411" data-name="Rectángulo 411" class="cls-1" transform="translate(224.816 1018.161)">
        <rect class="cls-3" width="8" height="8"/>
        <rect class="cls-4" x="1" y="1" width="6" height="6"/>
      </g>
    </g>
  </g>
</svg>
