<svg xmlns="http://www.w3.org/2000/svg" width="83.077" height="82.241" viewBox="0 0 83.077 82.241">
  <defs>
    <style>
      .cls-1, .cls-2, .cls-4 {
        fill: none;
      }

      .cls-1 {
        stroke: #666;
      }

      .cls-1, .cls-2, .cls-3, .cls-4 {
        stroke-linecap: round;
        stroke-linejoin: round;
        stroke-width: 2px;
      }

      .cls-2, .cls-3 {
        stroke: #0071bc;
      }

      .cls-3 {
        fill: #0071bc;
      }

      .cls-4 {
        stroke: #fff;
      }
    </style>
  </defs>
  <g id="Grupo_1668" data-name="Grupo 1668" transform="translate(-180.619 -4959.186)">
    <g id="Grupo_1261" data-name="Grupo 1261" transform="translate(1.619 775.054)">
      <path id="Trazado_7163" data-name="Trazado 7163" class="cls-1" d="M236.7,4198.024l-13.037-11.468a4.728,4.728,0,0,0-6.26,0l-13.037,11.468"/>
      <path id="Trazado_7164" data-name="Trazado 7164" class="cls-1" d="M189.729,4211.408,181.1,4219a3.243,3.243,0,0,0-1.1,2.432v40.694a3.243,3.243,0,0,0,3.243,3.243h74.591a3.244,3.244,0,0,0,3.243-3.243v-40.694a3.244,3.244,0,0,0-1.1-2.432l-8.63-7.595"/>
      <path id="Trazado_7165" data-name="Trazado 7165" class="cls-2" d="M251.346,4204.024v-6H189.728v6"/>
      <path id="Trazado_7166" data-name="Trazado 7166" class="cls-2" d="M251.346,4210.025v-6H189.728v6"/>
      <path id="Trazado_7167" data-name="Trazado 7167" class="cls-3" d="M229.336,4243.6l22.01-16.491v-17.079H189.728V4227.1l22.066,16.457A16.161,16.161,0,0,1,229.336,4243.6Z"/>
      <g id="Grupo_1260" data-name="Grupo 1260">
        <path id="Trazado_7168" data-name="Trazado 7168" class="cls-4" d="M225.739,4217.432c-.816-.042-1.644-.082-2.477-.117q-1.384-.063-2.8-.061-1.453,0-2.5.073a4.872,4.872,0,0,0-1.835.441,2.289,2.289,0,0,0-1.109,1.211,5.8,5.8,0,0,0-.33,2.2,4.019,4.019,0,0,0,.806,2.783,4.156,4.156,0,0,0,2.708,1.112l4.59.5a4.838,4.838,0,0,1,3.042,1.1,4.258,4.258,0,0,1,.884,3.018,5.342,5.342,0,0,1-.4,2.26,2.562,2.562,0,0,1-1.11,1.188,5.235,5.235,0,0,1-1.847.517,24.228,24.228,0,0,1-2.663.129q-1.224,0-2.7-.047-1.362-.047-3.093-.19"/>
        <line id="Línea_915" data-name="Línea 915" class="cls-4" x1="1.5" y2="22.537" transform="translate(219.812 4214.455)"/>
      </g>
      <path id="Trazado_7169" data-name="Trazado 7169" class="cls-1" d="M181.3,4264.4l29.765-20.4a16.221,16.221,0,0,1,18.949,0l30.092,20.4"/>
      <line id="Línea_916" data-name="Línea 916" class="cls-1" x2="30.917" y2="22.482" transform="translate(180.648 4220.944)"/>
      <line id="Línea_917" data-name="Línea 917" class="cls-1" y1="22.482" x2="30.917" transform="translate(229.51 4220.944)"/>
    </g>
  </g>
</svg>
