<svg xmlns="http://www.w3.org/2000/svg" width="41.618" height="41" viewBox="0 0 41.618 41">
  <defs>
    <style>
      .cls-1, .cls-2 {
        fill: none;
      }

      .cls-2, .cls-3 {
        stroke: #666;
        stroke-linecap: round;
        stroke-linejoin: round;
      }

      .cls-3 {
        fill: #666;
      }
    </style>
  </defs>
  <g id="Grupo_1614" data-name="Grupo 1614" transform="translate(-529.191 -499.5)">
    <rect id="Rectángulo_49" data-name="Rectángulo 49" class="cls-1" width="40" height="40" transform="translate(530 500)"/>
    <path id="Trazado_22" data-name="Trazado 22" class="cls-2" d="M548.688,520.338A12.951,12.951,0,0,0,540,517h-3.023v-4.289L529.691,520l7.286,7.291V523H540a7,7,0,0,1,5.71,2.955"/>
    <path id="Trazado_23" data-name="Trazado 23" class="cls-2" d="M563.023,517H560a13.015,13.015,0,0,0-13,13v10h6V530a7.008,7.008,0,0,1,7-7h3.023v4.289L570.309,520l-7.286-7.291Z"/>
    <path id="Trazado_24" data-name="Trazado 24" class="cls-3" d="M553,516.736a15.213,15.213,0,0,0-3,2.115,15.157,15.157,0,0,0-3-2.105v-9.459h-4.29L550,500l7.288,7.287H553Z"/>
  </g>
</svg>
