<svg xmlns="http://www.w3.org/2000/svg" xmlns:xlink="http://www.w3.org/1999/xlink" width="106" height="75" viewBox="0 0 106 75">
  <defs>
    <style>
      .cls-1 {
        fill: #27ae61;
      }

      .cls-2, .cls-4 {
        fill: #b2b2b2;
      }

      .cls-2, .cls-3 {
        stroke: #b2b2b2;
      }

      .cls-3 {
        fill: #fff;
        stroke-width: 2px;
      }

      .cls-5, .cls-7 {
        fill: none;
      }

      .cls-6, .cls-8 {
        stroke: none;
      }

      .cls-8 {
        fill: #27ae61;
      }

      .cls-9 {
        filter: url(#Rectángulo_543);
      }
    </style>
    <filter id="Rectángulo_543" x="0" y="21.5" width="106" height="41" filterUnits="userSpaceOnUse">
      <feOffset dy="4" input="SourceAlpha"/>
      <feGaussianBlur stdDeviation="2.5" result="blur"/>
      <feFlood flood-opacity="0.161"/>
      <feComposite operator="in" in2="blur"/>
      <feComposite in="SourceGraphic"/>
    </filter>
  </defs>
  <g id="Grupo_1621" data-name="Grupo 1621" transform="translate(-13754.5 -3773)">
    <circle id="Elipse_171" data-name="Elipse 171" class="cls-1" cx="37.5" cy="37.5" r="37.5" transform="translate(13770 3773)"/>
    <g id="Grupo_1620" data-name="Grupo 1620" transform="translate(13579 2170)">
      <g class="cls-9" transform="matrix(1, 0, 0, 1, 175.5, 1603)">
        <g id="Rectángulo_543-2" data-name="Rectángulo 543" class="cls-2" transform="translate(7.5 25)">
          <rect class="cls-6" width="91" height="26" rx="2"/>
          <rect class="cls-7" x="0.5" y="0.5" width="90" height="25" rx="1.5"/>
        </g>
      </g>
      <g id="Rectángulo_540" data-name="Rectángulo 540" class="cls-3" transform="translate(189 1628)">
        <rect class="cls-6" width="80" height="26" rx="4"/>
        <rect class="cls-7" x="1" y="1" width="78" height="24" rx="3"/>
      </g>
      <path id="Trazado_7610" data-name="Trazado 7610" class="cls-4" d="M1.031.484H2.438V4.766a4.06,4.06,0,0,1,.9-.891,3.031,3.031,0,0,1,1.7-.445A2.507,2.507,0,0,1,7.5,4.7a4.343,4.343,0,0,1,.352,1.93V12H6.406V6.727a2.949,2.949,0,0,0-.234-1.352,1.5,1.5,0,0,0-1.437-.687,2.4,2.4,0,0,0-1.586.6,2.893,2.893,0,0,0-.711,2.273V12H1.031Zm9.18.813h1.422V3.633h1.336V4.781H11.633v5.461a.591.591,0,0,0,.3.586,1.262,1.262,0,0,0,.547.086q.1,0,.219,0t.273-.02V12a3.139,3.139,0,0,1-.5.1,4.791,4.791,0,0,1-.566.031,1.527,1.527,0,0,1-1.336-.5,2.239,2.239,0,0,1-.352-1.309V4.781H9.078V3.633h1.133Zm4.445,0h1.422V3.633h1.336V4.781H16.078v5.461a.591.591,0,0,0,.3.586,1.262,1.262,0,0,0,.547.086q.1,0,.219,0t.273-.02V12a3.139,3.139,0,0,1-.5.1,4.791,4.791,0,0,1-.566.031,1.527,1.527,0,0,1-1.336-.5,2.239,2.239,0,0,1-.352-1.309V4.781H13.523V3.633h1.133Zm7.7,9.758a2.006,2.006,0,0,0,1.637-.824,3.922,3.922,0,0,0,.652-2.465,4.6,4.6,0,0,0-.289-1.719,2.118,2.118,0,0,0-4,.078,5.79,5.79,0,0,0-.289,1.984,4.207,4.207,0,0,0,.289,1.648A1.994,1.994,0,0,0,22.352,11.055ZM18.711,3.672h1.367V4.781A3.413,3.413,0,0,1,21,3.9a2.967,2.967,0,0,1,1.672-.469,3.144,3.144,0,0,1,2.414,1.09,4.465,4.465,0,0,1,.992,3.113,4.781,4.781,0,0,1-1.43,3.906,3.23,3.23,0,0,1-2.109.742,2.863,2.863,0,0,1-1.586-.414,3.654,3.654,0,0,1-.836-.8v4.273H18.711Zm9.844,5.7a2.045,2.045,0,0,0,.352,1.078,2.209,2.209,0,0,0,1.844.68,2.719,2.719,0,0,0,1.375-.34,1.129,1.129,0,0,0,.594-1.051.9.9,0,0,0-.477-.82,5.666,5.666,0,0,0-1.2-.4l-1.117-.281a5.45,5.45,0,0,1-1.578-.594,1.775,1.775,0,0,1-.906-1.578,2.411,2.411,0,0,1,.855-1.922,3.413,3.413,0,0,1,2.3-.734A3.194,3.194,0,0,1,33.32,4.523a2.407,2.407,0,0,1,.508,1.516H32.5a1.627,1.627,0,0,0-.336-.867,2.143,2.143,0,0,0-1.68-.555,2.008,2.008,0,0,0-1.207.3.955.955,0,0,0-.41.8.991.991,0,0,0,.539.875,3.239,3.239,0,0,0,.922.344l.93.227a7.188,7.188,0,0,1,2.031.711,1.882,1.882,0,0,1,.82,1.7,2.584,2.584,0,0,1-.848,1.93,3.608,3.608,0,0,1-2.582.813,3.464,3.464,0,0,1-2.645-.848,3.206,3.206,0,0,1-.832-2.1Zm7.906-5.633h1.633v1.7H36.461Zm0,6.555h1.633V12H36.461ZM42.773.523h1.188L40.32,12H39.133Zm2.045,0h1.188L42.366,12H41.178Z" transform="translate(210 1631)"/>
      <rect id="Rectángulo_541" data-name="Rectángulo 541" class="cls-1" width="12" height="10" rx="2" transform="translate(195 1638)"/>
      <g id="Unión_1" data-name="Unión 1" class="cls-5" transform="translate(14335 3789)">
        <path class="cls-6" d="M-14138-2143v-9a4,4,0,0,1,4-4,4,4,0,0,1,4,4v9Z"/>
        <path class="cls-8" d="M -14132 -2144.999267578125 L -14132 -2152.0009765625 C -14132 -2153.10302734375 -14132.896484375 -2153.999755859375 -14133.9990234375 -2153.999755859375 C -14135.1025390625 -2153.999755859375 -14136.0009765625 -2153.10302734375 -14136.0009765625 -2152.0009765625 L -14136.0009765625 -2144.999267578125 L -14132 -2144.999267578125 M -14130 -2142.999267578125 L -14138.0009765625 -2142.999267578125 L -14138.0009765625 -2152.0009765625 C -14138.0009765625 -2154.207763671875 -14136.208984375 -2155.999755859375 -14133.9990234375 -2155.999755859375 C -14131.7919921875 -2155.999755859375 -14130 -2154.207763671875 -14130 -2152.0009765625 L -14130 -2142.999267578125 Z"/>
      </g>
    </g>
  </g>
</svg>
