<svg xmlns="http://www.w3.org/2000/svg" width="31" height="41" viewBox="0 0 31 41">
  <g id="Grupo_1603" data-name="Grupo 1603" transform="translate(-359.5 -499.5)">
    <rect id="Rectángulo_28" data-name="Rectángulo 28" width="30" height="40" rx="2" transform="translate(360 500)" fill="none" stroke="#666" stroke-linecap="round" stroke-linejoin="round" stroke-width="1"/>
    <g id="Rectángulo_29" data-name="Rectángulo 29" transform="translate(364 504)" fill="#666" stroke="#666" stroke-linecap="round" stroke-linejoin="round" stroke-width="1">
      <rect width="22" height="8" stroke="none"/>
      <rect x="0.5" y="0.5" width="21" height="7" fill="none"/>
    </g>
    <g id="Rectángulo_30" data-name="Rectángulo 30" transform="translate(364 532)" fill="none" stroke="#666" stroke-linecap="round" stroke-linejoin="round" stroke-width="1">
      <rect width="4" height="4" stroke="none"/>
      <rect x="0.5" y="0.5" width="3" height="3" fill="none"/>
    </g>
    <g id="Rectángulo_31" data-name="Rectángulo 31" transform="translate(370 532)" fill="none" stroke="#666" stroke-linecap="round" stroke-linejoin="round" stroke-width="1">
      <rect width="4" height="4" stroke="none"/>
      <rect x="0.5" y="0.5" width="3" height="3" fill="none"/>
    </g>
    <g id="Rectángulo_32" data-name="Rectángulo 32" transform="translate(364 526)" fill="none" stroke="#666" stroke-linecap="round" stroke-linejoin="round" stroke-width="1">
      <rect width="4" height="4" stroke="none"/>
      <rect x="0.5" y="0.5" width="3" height="3" fill="none"/>
    </g>
    <g id="Rectángulo_33" data-name="Rectángulo 33" transform="translate(370 526)" fill="none" stroke="#666" stroke-linecap="round" stroke-linejoin="round" stroke-width="1">
      <rect width="4" height="4" stroke="none"/>
      <rect x="0.5" y="0.5" width="3" height="3" fill="none"/>
    </g>
    <g id="Rectángulo_34" data-name="Rectángulo 34" transform="translate(364 520)" fill="none" stroke="#666" stroke-linecap="round" stroke-linejoin="round" stroke-width="1">
      <rect width="4" height="4" stroke="none"/>
      <rect x="0.5" y="0.5" width="3" height="3" fill="none"/>
    </g>
    <g id="Rectángulo_35" data-name="Rectángulo 35" transform="translate(370 520)" fill="none" stroke="#666" stroke-linecap="round" stroke-linejoin="round" stroke-width="1">
      <rect width="4" height="4" stroke="none"/>
      <rect x="0.5" y="0.5" width="3" height="3" fill="none"/>
    </g>
    <g id="Rectángulo_36" data-name="Rectángulo 36" transform="translate(364 514)" fill="none" stroke="#666" stroke-linecap="round" stroke-linejoin="round" stroke-width="1">
      <rect width="4" height="4" stroke="none"/>
      <rect x="0.5" y="0.5" width="3" height="3" fill="none"/>
    </g>
    <g id="Rectángulo_37" data-name="Rectángulo 37" transform="translate(370 514)" fill="none" stroke="#666" stroke-linecap="round" stroke-linejoin="round" stroke-width="1">
      <rect width="4" height="4" stroke="none"/>
      <rect x="0.5" y="0.5" width="3" height="3" fill="none"/>
    </g>
    <g id="Rectángulo_42" data-name="Rectángulo 42" transform="translate(376 532)" fill="none" stroke="#666" stroke-linecap="round" stroke-linejoin="round" stroke-width="1">
      <rect width="4" height="4" stroke="none"/>
      <rect x="0.5" y="0.5" width="3" height="3" fill="none"/>
    </g>
    <g id="Rectángulo_43" data-name="Rectángulo 43" transform="translate(376 526)" fill="none" stroke="#666" stroke-linecap="round" stroke-linejoin="round" stroke-width="1">
      <rect width="4" height="4" stroke="none"/>
      <rect x="0.5" y="0.5" width="3" height="3" fill="none"/>
    </g>
    <g id="Rectángulo_44" data-name="Rectángulo 44" transform="translate(376 520)" fill="none" stroke="#666" stroke-linecap="round" stroke-linejoin="round" stroke-width="1">
      <rect width="4" height="4" stroke="none"/>
      <rect x="0.5" y="0.5" width="3" height="3" fill="none"/>
    </g>
    <g id="Rectángulo_45" data-name="Rectángulo 45" transform="translate(376 514)" fill="none" stroke="#666" stroke-linecap="round" stroke-linejoin="round" stroke-width="1">
      <rect width="4" height="4" stroke="none"/>
      <rect x="0.5" y="0.5" width="3" height="3" fill="none"/>
    </g>
    <g id="Rectángulo_46" data-name="Rectángulo 46" transform="translate(382 526)" fill="none" stroke="#666" stroke-linecap="round" stroke-linejoin="round" stroke-width="1">
      <rect width="4" height="10" stroke="none"/>
      <rect x="0.5" y="0.5" width="3" height="9" fill="none"/>
    </g>
    <g id="Rectángulo_47" data-name="Rectángulo 47" transform="translate(382 520)" fill="none" stroke="#666" stroke-linecap="round" stroke-linejoin="round" stroke-width="1">
      <rect width="4" height="4" stroke="none"/>
      <rect x="0.5" y="0.5" width="3" height="3" fill="none"/>
    </g>
    <g id="Rectángulo_48" data-name="Rectángulo 48" transform="translate(382 514)" fill="none" stroke="#666" stroke-linecap="round" stroke-linejoin="round" stroke-width="1">
      <rect width="4" height="4" stroke="none"/>
      <rect x="0.5" y="0.5" width="3" height="3" fill="none"/>
    </g>
  </g>
</svg>
