<svg xmlns="http://www.w3.org/2000/svg" width="46" height="41" viewBox="0 0 46 41">
  <g id="Grupo_1602" data-name="Grupo 1602" transform="translate(-189.5 -499.5)">
    <rect id="Rectángulo_24" data-name="Rectángulo 24" width="5" height="22" transform="translate(230 512)" fill="#666"/>
    <path id="Trazado_18" data-name="Trazado 18" d="M224,500h2v40h-2" fill="none" stroke="#666" stroke-linejoin="round" stroke-width="1"/>
    <path id="Trazado_19" data-name="Trazado 19" d="M190,540V507l7-7h25v40Z" fill="none" stroke="#666" stroke-linecap="round" stroke-linejoin="round" stroke-width="1"/>
    <line id="Línea_7" data-name="Línea 7" x2="10.78" transform="translate(205.751 506)" fill="none" stroke="#666" stroke-linecap="round" stroke-linejoin="round" stroke-width="1"/>
    <line id="Línea_8" data-name="Línea 8" x2="13.063" transform="translate(203.468 512.5)" fill="none" stroke="#666" stroke-linecap="round" stroke-linejoin="round" stroke-width="1"/>
    <line id="Línea_9" data-name="Línea 9" x2="8.063" transform="translate(203.468 515.5)" fill="none" stroke="#666" stroke-linecap="round" stroke-linejoin="round" stroke-width="1"/>
    <path id="Trazado_20" data-name="Trazado 20" d="M197,500v7h-7" fill="none" stroke="#666" stroke-linecap="round" stroke-linejoin="round" stroke-width="1"/>
    <path id="Trazado_21" data-name="Trazado 21" d="M240,537l-2.5,3-2.5-3V502.5a2.5,2.5,0,0,1,2.5-2.5h0a2.5,2.5,0,0,1,2.5,2.5Z" transform="translate(-5)" fill="none" stroke="#666" stroke-linecap="round" stroke-linejoin="round" stroke-width="1"/>
    <line id="Línea_10" data-name="Línea 10" y2="10" transform="translate(232.5 506)" fill="none" stroke="#666" stroke-linecap="round" stroke-linejoin="round" stroke-width="1"/>
    <line id="Línea_11" data-name="Línea 11" x2="5" transform="translate(230 512)" fill="none" stroke="#666" stroke-linecap="round" stroke-linejoin="round" stroke-width="1"/>
    <line id="Línea_12" data-name="Línea 12" x2="5" transform="translate(230 534)" fill="none" stroke="#666" stroke-linecap="round" stroke-linejoin="round" stroke-width="1"/>
    <rect id="Rectángulo_25" data-name="Rectángulo 25" width="5" height="5" transform="translate(195.468 511.5)" fill="none" stroke="#666" stroke-linecap="round" stroke-linejoin="round" stroke-width="1"/>
    <line id="Línea_13" data-name="Línea 13" x2="13.063" transform="translate(203.468 521.5)" fill="none" stroke="#666" stroke-linecap="round" stroke-linejoin="round" stroke-width="1"/>
    <line id="Línea_14" data-name="Línea 14" x2="8.063" transform="translate(203.468 524.5)" fill="none" stroke="#666" stroke-linecap="round" stroke-linejoin="round" stroke-width="1"/>
    <rect id="Rectángulo_26" data-name="Rectángulo 26" width="5" height="5" transform="translate(195.468 520.5)" fill="none" stroke="#666" stroke-linecap="round" stroke-linejoin="round" stroke-width="1"/>
    <line id="Línea_15" data-name="Línea 15" x2="13.063" transform="translate(203.468 530.5)" fill="none" stroke="#666" stroke-linecap="round" stroke-linejoin="round" stroke-width="1"/>
    <line id="Línea_16" data-name="Línea 16" x2="8.063" transform="translate(203.468 533.5)" fill="none" stroke="#666" stroke-linecap="round" stroke-linejoin="round" stroke-width="1"/>
    <rect id="Rectángulo_27" data-name="Rectángulo 27" width="5" height="5" transform="translate(195.468 529.5)" fill="none" stroke="#666" stroke-linecap="round" stroke-linejoin="round" stroke-width="1"/>
  </g>
</svg>
