<svg xmlns="http://www.w3.org/2000/svg" width="41.538" height="41.12" viewBox="0 0 41.538 41.12">
  <g id="Grupo_1606" data-name="Grupo 1606" transform="translate(-869.5 -499.38)">
    <path id="Trazado_11" data-name="Trazado 11" d="M898.352,506.326l-6.518-5.734a2.365,2.365,0,0,0-3.13,0l-6.519,5.734" fill="none" stroke="#666" stroke-linecap="round" stroke-linejoin="round" stroke-width="1"/>
    <path id="Trazado_12" data-name="Trazado 12" d="M874.865,513.018l-4.315,3.8a1.622,1.622,0,0,0-.55,1.216v20.347A1.621,1.621,0,0,0,871.622,540h37.295a1.622,1.622,0,0,0,1.621-1.622V518.031a1.624,1.624,0,0,0-.549-1.216l-4.315-3.8" fill="none" stroke="#666" stroke-linecap="round" stroke-linejoin="round" stroke-width="1"/>
    <path id="Trazado_13" data-name="Trazado 13" d="M870.648,539.513l14.883-10.2a8.108,8.108,0,0,1,9.474,0l15.047,10.2" fill="none" stroke="#666" stroke-linecap="round" stroke-linejoin="round" stroke-width="1"/>
    <path id="Trazado_14" data-name="Trazado 14" d="M905.673,509.326v-3H874.864v3" fill="none" stroke="#666" stroke-linecap="round" stroke-linejoin="round" stroke-width="1"/>
    <path id="Trazado_15" data-name="Trazado 15" d="M905.673,512.326v-3H874.864v3" fill="none" stroke="#666" stroke-linecap="round" stroke-linejoin="round" stroke-width="1"/>
    <line id="Línea_4" data-name="Línea 4" x2="15.459" y2="11.241" transform="translate(870.324 517.786)" fill="none" stroke="#666" stroke-linecap="round" stroke-linejoin="round" stroke-width="1"/>
    <line id="Línea_5" data-name="Línea 5" y1="11.241" x2="15.459" transform="translate(894.755 517.786)" fill="none" stroke="#666" stroke-linecap="round" stroke-linejoin="round" stroke-width="1"/>
    <path id="Trazado_16" data-name="Trazado 16" d="M894.668,529.112l11-8.246v-8.539H874.864v8.539l11.033,8.228A8.08,8.08,0,0,1,894.668,529.112Z" fill="#666" stroke="#666" stroke-linecap="round" stroke-linejoin="round" stroke-width="1"/>
    <path id="Trazado_17" data-name="Trazado 17" d="M892.87,516.03c-.409-.021-.823-.041-1.239-.058-.462-.022-.929-.031-1.4-.031s-.9.012-1.248.036a2.447,2.447,0,0,0-.918.221,1.147,1.147,0,0,0-.555.606,2.916,2.916,0,0,0-.164,1.1,2.01,2.01,0,0,0,.4,1.392,2.083,2.083,0,0,0,1.354.556l2.3.252a2.416,2.416,0,0,1,1.52.551,2.129,2.129,0,0,1,.443,1.509,2.658,2.658,0,0,1-.2,1.13,1.275,1.275,0,0,1-.555.594,2.6,2.6,0,0,1-.924.259,12.086,12.086,0,0,1-1.331.064q-.612,0-1.351-.023-.681-.023-1.546-.095" fill="none" stroke="#fff" stroke-linecap="round" stroke-linejoin="round" stroke-width="1"/>
    <line id="Línea_6" data-name="Línea 6" x1="0.75" y2="11.268" transform="translate(889.906 514.541)" fill="none" stroke="#fff" stroke-linecap="round" stroke-linejoin="round" stroke-width="1"/>
  </g>
</svg>
