<svg xmlns="http://www.w3.org/2000/svg" width="2914.73" height="653.04" viewBox="0 0 2914.73 653.04" overflow="visible" enable-background="new 0 0 2914.73 653.04"><style>.st0{fill:#666}</style><g id="Grupo_1580_1_" transform="translate(-36.5 -389)"><g id="Grupo_1464_1_" transform="translate(-1293.563 329.366)"><path id="Trazado_7548_1_" class="st0" d="M2005.52,349.12l-15.61-63.58c-8.32-34.15-3.62-70.18,13.19-101.05h-10.34 c-17.21,0-33.29,8.53-42.93,22.79l-70.88,104.71c-9.91,14.65-29.81,18.49-44.46,8.58c-2.68-1.81-5.07-4.02-7.09-6.55l-45.52-57.06 c-36.55-45.82-91.97-72.51-150.59-72.53h-125.34l26.79,40.27c37.22,56.03,89.78,100.17,151.41,127.14l79.68,34.86 c16.25,7.09,23.67,26.02,16.58,42.27c-4.67,10.71-14.8,18.03-26.43,19.12l-220.38,20.76c30.32,65.86,77.06,122.82,135.73,165.42 l64.11-113.56c6.71-11.92,20.08-18.46,33.61-16.43l87.69,12.99c71.92,10.54,139.37-37.46,152.96-108.87 C2011.32,388.73,2010.57,368.49,2005.52,349.12z"/><path id="Trazado_7549_1_" d="M1446.21,152.5h185.03c68.35,0,132.98,31.12,175.6,84.55l45.55,57.07l70.92-104.78 c15.58-23.04,41.58-36.84,69.39-36.84h75.94l-24.36,28.23c-23.02,26.72-31.71,62.92-23.31,97.17l16.1,65.62 c12.42,50.63,0.53,104.15-32.15,144.76l0,0c-37.2,46.26-96.14,69.34-154.86,60.66l-88.35-13.09l-81.4,144.17l0,0 c-89.15-54.44-156.77-137.99-191.41-236.54l-0.84-2.39l263.45-24.79l-80.21-35.1c-67.25-29.44-124.61-77.59-165.25-138.72 L1446.21,152.5z" fill="none" stroke="#666" stroke-linecap="round" stroke-linejoin="round"/><g id="Grupo_1459_1_" transform="translate(1369.493 65.565)"><path id="Trazado_7550_1_" d="M590.06,149.44c-0.01-1.38,0.21-2.76,0.66-4.06c0.61-1.25,1.39-2.4,2.33-3.42 c1.99-2.1,4.78-3.25,7.67-3.18c1.4-0.03,2.79,0.27,4.06,0.86c1.33,0.44,2.51,1.25,3.4,2.33c4.05,4.15,4.05,10.78,0,14.93 c-1.93,2.07-4.64,3.23-7.46,3.2c-1.47,0.04-2.92-0.26-4.26-0.86c-1.3-0.51-2.47-1.32-3.42-2.35c-0.95-1.01-1.74-2.16-2.33-3.42 C590.27,152.18,590.05,150.81,590.06,149.44z" fill="#fff"/></g></g><g><g><path class="st0" d="M1019.59,512.4c7.64,7.71,11.46,17.86,11.46,30.43c0,12.43-3.89,22.43-11.68,30 c-7.79,7.57-18.04,11.36-30.75,11.36h-41.79c-0.57,0-0.86,0.29-0.86,0.86v63.86c0,1.43-0.72,2.14-2.14,2.14h-10.93 c-1.43,0-2.14-0.71-2.14-2.14V502.97c0-1.43,0.71-2.14,2.14-2.14h56.36C1001.84,500.83,1011.95,504.69,1019.59,512.4z M1008.13,563.72c5.28-5.21,7.93-12.11,7.93-20.68c0-8.71-2.65-15.71-7.93-21c-5.29-5.28-12.14-7.93-20.57-7.93h-40.72 c-0.57,0-0.86,0.29-0.86,0.86v55.72c0,0.57,0.28,0.86,0.86,0.86h40.72C995.98,571.55,1002.84,568.94,1008.13,563.72z"/><path class="st0" d="M1136.28,593.62v6.86c0,1.43-0.72,2.14-2.14,2.14h-69.22c-0.57,0-0.86,0.29-0.86,0.86 c0.28,7.86,0.71,12.93,1.29,15.21c1.57,6.43,4.93,11.5,10.07,15.21c5.14,3.72,11.71,5.57,19.72,5.57c6,0,11.28-1.36,15.86-4.07 c4.57-2.71,8.14-6.57,10.71-11.57c0.86-1.29,1.85-1.57,3-0.86l8.36,4.93c1.14,0.72,1.43,1.71,0.86,3 c-3.57,6.86-8.93,12.25-16.07,16.18c-7.15,3.93-15.36,5.89-24.64,5.89c-10.15-0.14-18.64-2.57-25.5-7.29 s-11.79-11.28-14.79-19.71c-2.57-6.86-3.86-16.71-3.86-29.57c0-6,0.11-10.89,0.32-14.68c0.21-3.78,0.75-7.18,1.61-10.18 c2.43-9.29,7.32-16.71,14.68-22.29c7.36-5.57,16.25-8.36,26.68-8.36c13,0,23,3.29,30,9.86c7,6.57,11.36,15.86,13.07,27.86 C1135.99,582.62,1136.28,587.62,1136.28,593.62z M1074.88,559.65c-4.64,3.64-7.68,8.54-9.11,14.68c-0.86,3-1.43,7.86-1.71,14.57 c0,0.57,0.28,0.86,0.86,0.86h55.5c0.57,0,0.86-0.29,0.86-0.86c-0.29-6.43-0.72-11-1.29-13.71c-1.57-6.43-4.75-11.54-9.54-15.32 c-4.79-3.78-10.82-5.68-18.11-5.68C1085.34,554.19,1079.52,556.01,1074.88,559.65z"/><path class="st0" d="M1238.81,551.19c6.78,6.72,10.18,15.72,10.18,27v70.72c0,1.43-0.72,2.14-2.14,2.14h-10.93 c-1.43,0-2.14-0.71-2.14-2.14v-67.72c0-7.85-2.39-14.28-7.18-19.29c-4.79-5-10.97-7.5-18.54-7.5c-7.86,0-14.22,2.43-19.07,7.29 c-4.86,4.86-7.29,11.22-7.29,19.07v68.15c0,1.43-0.72,2.14-2.14,2.14h-10.93c-1.43,0-2.14-0.71-2.14-2.14V544.76 c0-1.43,0.71-2.14,2.14-2.14h10.93c1.43,0,2.14,0.72,2.14,2.14v9.21c0,0.29,0.11,0.5,0.32,0.64c0.21,0.14,0.39,0.07,0.54-0.21 c6.28-8.86,15.93-13.29,28.93-13.29C1222.92,541.12,1232.03,544.48,1238.81,551.19z"/><path class="st0" d="M1296.24,648.26c-6.21-2.57-11-6-14.36-10.29c-3.36-4.29-5.04-9.07-5.04-14.36v-2.57 c0-1.43,0.71-2.14,2.14-2.14h10.29c1.43,0,2.14,0.72,2.14,2.14v1.71c0,4.71,2.46,8.82,7.39,12.32c4.93,3.5,11.11,5.25,18.54,5.25 c7.43,0,13.43-1.68,18-5.04c4.57-3.35,6.86-7.61,6.86-12.75c0-3.57-1.18-6.5-3.54-8.79c-2.36-2.28-5.14-4.07-8.36-5.36 s-8.18-2.93-14.89-4.93c-8-2.28-14.57-4.57-19.71-6.86c-5.14-2.28-9.47-5.46-12.96-9.54c-3.5-4.07-5.25-9.25-5.25-15.54 c0-9.14,3.57-16.43,10.71-21.86c7.14-5.43,16.57-8.14,28.29-8.14c7.85,0,14.82,1.29,20.89,3.86c6.07,2.57,10.75,6.11,14.04,10.61 c3.29,4.5,4.93,9.54,4.93,15.11v0.64c0,1.43-0.72,2.14-2.14,2.14h-10.07c-1.43,0-2.14-0.71-2.14-2.14v-0.64 c0-4.86-2.32-8.93-6.96-12.21c-4.64-3.29-10.9-4.93-18.75-4.93c-7.29,0-13.15,1.47-17.57,4.39c-4.43,2.93-6.64,6.96-6.64,12.11 c0,4.86,2.14,8.57,6.43,11.14c4.29,2.57,10.93,5.14,19.93,7.71c8.28,2.43,15,4.71,20.14,6.86s9.57,5.25,13.29,9.32 c3.71,4.07,5.57,9.39,5.57,15.96c0,9.29-3.64,16.71-10.93,22.29c-7.29,5.57-16.93,8.36-28.93,8.36 C1309.56,652.12,1302.46,650.84,1296.24,648.26z"/><path class="st0" d="M1386.78,519.47c-2.29-2.28-3.43-5.14-3.43-8.57c0-3.57,1.14-6.46,3.43-8.68c2.28-2.21,5.14-3.32,8.57-3.32 s6.28,1.11,8.57,3.32c2.28,2.22,3.43,5.11,3.43,8.68c0,3.43-1.15,6.29-3.43,8.57c-2.29,2.29-5.14,3.43-8.57,3.43 S1389.06,521.76,1386.78,519.47z M1387.21,648.69V544.55c0-1.43,0.71-2.14,2.14-2.14h10.93c1.43,0,2.14,0.72,2.14,2.14v104.15 c0,1.43-0.72,2.14-2.14,2.14h-10.93C1387.92,650.84,1387.21,650.12,1387.21,648.69z"/><path class="st0" d="M1454.49,644.84c-7.43-5.28-12.57-12.57-15.43-21.86c-2-6.57-3-15.36-3-26.36c0-11,1-19.71,3-26.14 c2.71-9.14,7.79-16.36,15.21-21.64c7.43-5.28,16.43-7.93,27-7.93c10.14,0,18.89,2.65,26.25,7.93 c7.36,5.29,12.39,12.43,15.11,21.43c2,6.14,3,14.93,3,26.36c0,11.57-1,20.36-3,26.36c-2.72,9.29-7.75,16.57-15.11,21.86 c-7.36,5.29-16.18,7.93-26.47,7.93S1461.92,650.12,1454.49,644.84z M1498.64,633.8c4.85-3.78,8.14-8.89,9.86-15.32 c1.29-5.14,1.93-12.36,1.93-21.64c0-9.43-0.57-16.64-1.71-21.64c-1.71-6.43-5.04-11.54-9.96-15.32 c-4.93-3.78-10.9-5.68-17.89-5.68c-7,0-12.93,1.9-17.79,5.68c-4.86,3.79-8.14,8.89-9.86,15.32c-1.15,5-1.71,12.21-1.71,21.64 c0,9.43,0.57,16.64,1.71,21.64c1.57,6.43,4.82,11.54,9.75,15.32c4.93,3.79,10.96,5.68,18.11,5.68 C1487.92,639.48,1493.78,637.59,1498.64,633.8z M1471.21,527.72c-0.29-0.5-0.21-1.11,0.21-1.82l12.86-23.36 c0.43-1,1.29-1.5,2.57-1.5h9.64c0.86,0,1.39,0.25,1.61,0.75c0.21,0.5,0.11,1.11-0.32,1.82l-14.57,23.36 c-0.72,1-1.57,1.5-2.57,1.5h-7.71C1472.07,528.47,1471.49,528.23,1471.21,527.72z"/><path class="st0" d="M1626.89,551.19c6.78,6.72,10.18,15.72,10.18,27v70.72c0,1.43-0.72,2.14-2.14,2.14H1624 c-1.43,0-2.14-0.71-2.14-2.14v-67.72c0-7.85-2.39-14.28-7.18-19.29c-4.79-5-10.97-7.5-18.54-7.5c-7.86,0-14.22,2.43-19.07,7.29 c-4.86,4.86-7.29,11.22-7.29,19.07v68.15c0,1.43-0.72,2.14-2.14,2.14h-10.93c-1.43,0-2.14-0.71-2.14-2.14V544.76 c0-1.43,0.71-2.14,2.14-2.14h10.93c1.43,0,2.14,0.72,2.14,2.14v9.21c0,0.29,0.11,0.5,0.32,0.64c0.21,0.14,0.39,0.07,0.54-0.21 c6.28-8.86,15.93-13.29,28.93-13.29C1611,541.12,1620.11,544.48,1626.89,551.19z"/><path class="st0" d="M1782.36,501.04h10.93c1.43,0,2.14,0.72,2.14,2.14v145.72c0,1.43-0.72,2.14-2.14,2.14h-10.93 c-1.43,0-2.14-0.71-2.14-2.14v-9c0-0.28-0.11-0.46-0.32-0.54c-0.21-0.07-0.47,0.04-0.75,0.32c-3.14,4.15-7.04,7.36-11.68,9.64 c-4.64,2.28-9.82,3.43-15.54,3.43c-10,0-18.4-2.57-25.18-7.71c-6.79-5.14-11.46-12.14-14.04-21c-2-6.43-3-15.5-3-27.22 c0-11.86,0.86-20.71,2.57-26.57c2.57-9.14,7.29-16.32,14.14-21.54c6.86-5.21,15.36-7.82,25.5-7.82c5.57,0,10.71,1.11,15.43,3.32 c4.71,2.22,8.64,5.39,11.79,9.54c0.28,0.29,0.54,0.4,0.75,0.32c0.21-0.07,0.32-0.25,0.32-0.54v-50.36 C1780.22,501.76,1780.93,501.04,1782.36,501.04z M1779.15,612.91c0.57-3.86,0.86-9.21,0.86-16.07s-0.29-12.25-0.86-16.18 c-0.57-3.93-1.57-7.39-3-10.39c-1.71-4.86-4.54-8.75-8.46-11.68c-3.93-2.93-8.61-4.39-14.04-4.39c-5.72,0-10.64,1.43-14.79,4.29 c-4.15,2.86-7.15,6.64-9,11.36c-1.71,3.14-2.97,6.68-3.75,10.61c-0.79,3.93-1.18,9.4-1.18,16.39c0,6.72,0.28,11.97,0.86,15.75 c0.57,3.79,1.57,7.18,3,10.18c1.71,5.14,4.75,9.21,9.11,12.21c4.36,3,9.54,4.5,15.54,4.5c5.71,0,10.5-1.5,14.36-4.5 s6.71-7,8.57-12C1777.65,620.12,1778.57,616.76,1779.15,612.91z"/><path class="st0" d="M1913.93,593.62v6.86c0,1.43-0.72,2.14-2.14,2.14h-69.22c-0.57,0-0.86,0.29-0.86,0.86 c0.28,7.86,0.71,12.93,1.29,15.21c1.57,6.43,4.93,11.5,10.07,15.21c5.14,3.72,11.71,5.57,19.72,5.57c6,0,11.28-1.36,15.86-4.07 c4.57-2.71,8.14-6.57,10.71-11.57c0.86-1.29,1.85-1.57,3-0.86l8.36,4.93c1.14,0.72,1.43,1.71,0.86,3 c-3.57,6.86-8.93,12.25-16.07,16.18c-7.15,3.93-15.36,5.89-24.64,5.89c-10.15-0.14-18.64-2.57-25.5-7.29 s-11.79-11.28-14.79-19.71c-2.57-6.86-3.86-16.71-3.86-29.57c0-6,0.11-10.89,0.32-14.68c0.21-3.78,0.75-7.18,1.61-10.18 c2.43-9.29,7.32-16.71,14.68-22.29c7.36-5.57,16.25-8.36,26.68-8.36c13,0,23,3.29,30,9.86c7,6.57,11.36,15.86,13.07,27.86 C1913.65,582.62,1913.93,587.62,1913.93,593.62z M1852.54,559.65c-4.64,3.64-7.68,8.54-9.11,14.68c-0.86,3-1.43,7.86-1.71,14.57 c0,0.57,0.28,0.86,0.86,0.86h55.5c0.57,0,0.86-0.29,0.86-0.86c-0.29-6.43-0.72-11-1.29-13.71c-1.57-6.43-4.75-11.54-9.54-15.32 c-4.79-3.78-10.82-5.68-18.11-5.68C1863,554.19,1857.18,556.01,1852.54,559.65z"/></g></g><g><path class="st0" d="M946.56,957.62c-11.02-4.68-19.52-11.39-25.49-20.11c-5.97-8.72-8.95-18.87-8.95-30.45V901 c0-0.92,0.32-1.7,0.96-2.34c0.64-0.64,1.42-0.96,2.34-0.96h31.41c0.92,0,1.7,0.32,2.34,0.96c0.64,0.65,0.96,1.42,0.96,2.34v4.13 c0,7.35,3.4,13.55,10.19,18.6c6.79,5.05,15.98,7.58,27.55,7.58c9.73,0,16.99-2.07,21.77-6.2c4.77-4.13,7.16-9.23,7.16-15.29 c0-4.41-1.47-8.13-4.41-11.16c-2.94-3.03-6.94-5.69-11.99-7.99c-5.05-2.29-13.09-5.46-24.11-9.51 c-12.31-4.22-22.73-8.54-31.27-12.95c-8.54-4.41-15.71-10.42-21.49-18.05c-5.79-7.62-8.68-17.03-8.68-28.24 c0-11.02,2.85-20.66,8.54-28.93c5.69-8.27,13.59-14.6,23.69-19.01c10.1-4.41,21.77-6.61,34.99-6.61c13.96,0,26.4,2.48,37.33,7.44 c10.93,4.96,19.47,11.89,25.62,20.8c6.15,8.91,9.23,19.24,9.23,31v4.13c0,0.92-0.32,1.7-0.96,2.34c-0.65,0.65-1.42,0.96-2.34,0.96 h-31.69c-0.92,0-1.7-0.32-2.34-0.96c-0.65-0.64-0.96-1.42-0.96-2.34v-2.2c0-7.71-3.17-14.28-9.51-19.7 c-6.34-5.42-15.02-8.13-26.04-8.13c-8.64,0-15.39,1.84-20.25,5.51c-4.87,3.68-7.3,8.73-7.3,15.15c0,4.59,1.42,8.45,4.27,11.57 c2.85,3.13,7.07,5.92,12.67,8.4c5.6,2.48,14.28,5.83,26.04,10.06c13.04,4.78,23.28,9,30.72,12.67 c7.44,3.68,14.14,9.14,20.11,16.39c5.97,7.26,8.95,16.67,8.95,28.24c0,17.27-6.34,30.91-19.01,40.92 c-12.67,10.01-29.85,15.02-51.52,15.02C970.44,964.64,957.59,962.3,946.56,957.62z"/><path class="st0" d="M1113.66,956.65c-10.93-5.88-19.42-14.09-25.49-24.66c-6.06-10.56-9.09-22.73-9.09-36.51v-58.96 c0-13.59,3.03-25.62,9.09-36.09c6.06-10.47,14.56-18.6,25.49-24.38c10.93-5.79,23.56-8.68,37.88-8.68 c14.51,0,27.23,2.89,38.16,8.68c10.93,5.79,19.42,13.91,25.49,24.38s9.09,22.5,9.09,36.09v58.96c0,13.78-3.03,25.99-9.09,36.64 c-6.06,10.66-14.56,18.87-25.49,24.66c-10.93,5.79-23.65,8.68-38.16,8.68C1137.22,965.47,1124.59,962.53,1113.66,956.65z M1176.07,922.49c6.24-6.43,9.37-14.97,9.37-25.62v-60.61c0-10.65-3.08-19.24-9.23-25.76c-6.16-6.52-14.37-9.78-24.66-9.78 c-10.1,0-18.23,3.26-24.38,9.78c-6.16,6.52-9.23,15.11-9.23,25.76v60.61c0,10.66,3.07,19.2,9.23,25.62 c6.15,6.43,14.28,9.64,24.38,9.64C1161.65,932.13,1169.82,928.92,1176.07,922.49z"/><path class="st0" d="M1368.38,863.53c17.45,9,26.17,23.97,26.17,44.91c0,17.82-6.06,31.27-18.18,40.36 c-12.12,9.09-28.01,13.64-47.67,13.64h-71.36c-0.92,0-1.7-0.32-2.34-0.96c-0.65-0.64-0.96-1.42-0.96-2.34V772.88 c0-0.92,0.32-1.7,0.96-2.34c0.64-0.64,1.42-0.96,2.34-0.96h69.16c43.53,0,65.3,17.63,65.3,52.9c0,18.37-7.81,31.5-23.42,39.4 C1367.28,862.43,1367.28,862.98,1368.38,863.53z M1292.89,804.29v42.98c0,0.92,0.46,1.38,1.38,1.38h32.24 c8.63,0,15.33-2.02,20.11-6.06c4.77-4.04,7.16-9.55,7.16-16.53c0-7.16-2.39-12.81-7.16-16.95c-4.78-4.13-11.48-6.2-20.11-6.2 h-32.24C1293.34,802.91,1292.89,803.37,1292.89,804.29z M1348.54,922.35c4.77-4.31,7.16-10.24,7.16-17.77 c0-7.53-2.39-13.45-7.16-17.77c-4.78-4.31-11.48-6.47-20.11-6.47h-34.17c-0.92,0-1.38,0.46-1.38,1.38v45.74 c0,0.92,0.46,1.38,1.38,1.38h34.44C1337.15,928.83,1343.76,926.67,1348.54,922.35z"/><path class="st0" d="M1526.8,959.96l-34.44-76.32c-0.37-0.73-0.92-1.1-1.65-1.1h-25.62c-0.92,0-1.38,0.46-1.38,1.38v75.22 c0,0.92-0.32,1.7-0.96,2.34c-0.65,0.65-1.42,0.96-2.34,0.96h-32.24c-0.92,0-1.7-0.32-2.34-0.96c-0.65-0.64-0.96-1.42-0.96-2.34 V772.88c0-0.92,0.32-1.7,0.96-2.34c0.64-0.64,1.42-0.96,2.34-0.96h78.8c11.75,0,22.08,2.39,31,7.16 c8.91,4.78,15.8,11.57,20.66,20.39c4.86,8.82,7.3,19.01,7.3,30.58c0,12.49-3.12,23.19-9.37,32.1 c-6.25,8.91-14.97,15.2-26.17,18.87c-0.92,0.37-1.2,1.01-0.83,1.93l37.47,77.97c0.37,0.74,0.55,1.29,0.55,1.65 c0,1.47-1.01,2.2-3.03,2.2h-33.89C1528.82,962.44,1527.54,961.61,1526.8,959.96z M1463.71,804.29v47.11 c0,0.92,0.46,1.38,1.38,1.38h36.09c7.71,0,14-2.29,18.87-6.89c4.86-4.59,7.3-10.56,7.3-17.91c0-7.34-2.44-13.36-7.3-18.05 c-4.87-4.68-11.16-7.03-18.87-7.03h-36.09C1464.17,802.91,1463.71,803.37,1463.71,804.29z"/><path class="st0" d="M1726.97,801.95c-0.65,0.65-1.43,0.96-2.34,0.96h-90.37c-0.92,0-1.38,0.46-1.38,1.38V847 c0,0.92,0.46,1.38,1.38,1.38h59.24c0.92,0,1.7,0.32,2.34,0.96c0.64,0.65,0.96,1.42,0.96,2.34v26.73c0,0.92-0.32,1.7-0.96,2.34 c-0.65,0.65-1.42,0.96-2.34,0.96h-59.24c-0.92,0-1.38,0.46-1.38,1.38v44.63c0,0.92,0.46,1.38,1.38,1.38h90.37 c0.92,0,1.7,0.32,2.34,0.96c0.64,0.65,0.96,1.42,0.96,2.34v26.73c0,0.92-0.32,1.7-0.96,2.34c-0.65,0.65-1.43,0.96-2.34,0.96 h-127.29c-0.92,0-1.7-0.32-2.34-0.96c-0.65-0.64-0.96-1.42-0.96-2.34V772.88c0-0.92,0.32-1.7,0.96-2.34 c0.64-0.64,1.42-0.96,2.34-0.96h127.29c0.92,0,1.7,0.32,2.34,0.96c0.64,0.65,0.96,1.42,0.96,2.34v26.73 C1727.93,800.53,1727.61,801.31,1726.97,801.95z"/><path class="st0" d="M1804.25,959.68l-56.76-186.25l-0.28-1.1c0-1.83,1.01-2.76,3.03-2.76h34.72c2.02,0,3.31,0.92,3.86,2.76 l36.64,134.45c0.18,0.55,0.46,0.83,0.83,0.83c0.37,0,0.64-0.28,0.83-0.83l36.09-134.45c0.55-1.83,1.83-2.76,3.86-2.76h33.89 c1.1,0,1.93,0.37,2.48,1.1c0.55,0.74,0.64,1.65,0.28,2.75l-57.58,186.25c-0.55,1.84-1.75,2.75-3.58,2.75h-34.72 C1806,962.44,1804.8,961.52,1804.25,959.68z"/><path class="st0" d="M1928.92,961.48c-0.65-0.64-0.96-1.42-0.96-2.34V772.88c0-0.92,0.32-1.7,0.96-2.34 c0.64-0.64,1.42-0.96,2.34-0.96h32.24c0.92,0,1.7,0.32,2.34,0.96c0.64,0.65,0.96,1.42,0.96,2.34v186.25c0,0.92-0.32,1.7-0.96,2.34 c-0.65,0.65-1.42,0.96-2.34,0.96h-32.24C1930.34,962.44,1929.57,962.12,1928.92,961.48z"/><path class="st0" d="M2048.08,959.68l-56.76-186.25l-0.28-1.1c0-1.83,1.01-2.76,3.03-2.76h34.72c2.02,0,3.31,0.92,3.86,2.76 l36.64,134.45c0.18,0.55,0.46,0.83,0.83,0.83c0.37,0,0.64-0.28,0.83-0.83l36.09-134.45c0.55-1.83,1.83-2.76,3.86-2.76h33.89 c1.1,0,1.93,0.37,2.48,1.1c0.55,0.74,0.64,1.65,0.28,2.75l-57.58,186.25c-0.55,1.84-1.75,2.75-3.58,2.75h-34.72 C2049.83,962.44,2048.63,961.52,2048.08,959.68z"/><path class="st0" d="M2303.08,801.95c-0.65,0.65-1.43,0.96-2.34,0.96h-90.37c-0.92,0-1.38,0.46-1.38,1.38V847 c0,0.92,0.46,1.38,1.38,1.38h59.24c0.92,0,1.7,0.32,2.34,0.96c0.64,0.65,0.96,1.42,0.96,2.34v26.73c0,0.92-0.32,1.7-0.96,2.34 c-0.65,0.65-1.42,0.96-2.34,0.96h-59.24c-0.92,0-1.38,0.46-1.38,1.38v44.63c0,0.92,0.46,1.38,1.38,1.38h90.37 c0.92,0,1.7,0.32,2.34,0.96c0.64,0.65,0.96,1.42,0.96,2.34v26.73c0,0.92-0.32,1.7-0.96,2.34c-0.65,0.65-1.43,0.96-2.34,0.96 h-127.29c-0.92,0-1.7-0.32-2.34-0.96c-0.65-0.64-0.96-1.42-0.96-2.34V772.88c0-0.92,0.32-1.7,0.96-2.34 c0.64-0.64,1.42-0.96,2.34-0.96h127.29c0.92,0,1.7,0.32,2.34,0.96c0.64,0.65,0.96,1.42,0.96,2.34v26.73 C2304.04,800.53,2303.72,801.31,2303.08,801.95z"/><path class="st0" d="M2442.77,770.54c0.64-0.64,1.42-0.96,2.34-0.96h32.24c0.92,0,1.7,0.32,2.34,0.96 c0.64,0.65,0.96,1.42,0.96,2.34v186.25c0,0.92-0.32,1.7-0.96,2.34c-0.65,0.65-1.43,0.96-2.34,0.96h-31.13 c-1.84,0-3.13-0.73-3.86-2.2l-71.36-117.92c-0.37-0.55-0.74-0.78-1.1-0.69c-0.37,0.09-0.55,0.51-0.55,1.24l0.55,116.27 c0,0.92-0.32,1.7-0.96,2.34c-0.65,0.65-1.42,0.96-2.34,0.96h-32.24c-0.92,0-1.7-0.32-2.34-0.96c-0.65-0.64-0.96-1.42-0.96-2.34 V772.88c0-0.92,0.32-1.7,0.96-2.34c0.64-0.64,1.42-0.96,2.34-0.96h31.13c1.83,0,3.12,0.74,3.86,2.2l71.08,117.37 c0.37,0.55,0.73,0.78,1.1,0.69c0.37-0.09,0.55-0.5,0.55-1.24l-0.28-115.72C2441.8,771.96,2442.12,771.18,2442.77,770.54z"/><path class="st0" d="M2544.29,956.24c-10.84-5.6-19.2-13.45-25.07-23.56c-5.88-10.1-8.82-21.77-8.82-34.99v-63.65 c0-13.23,2.94-24.89,8.82-34.99c5.88-10.1,14.23-17.91,25.07-23.42c10.84-5.51,23.42-8.27,37.75-8.27 c14.14,0,26.59,2.62,37.33,7.85c10.75,5.24,19.1,12.67,25.07,22.32c5.97,9.64,8.95,20.8,8.95,33.48c0,1.65-1.1,2.67-3.31,3.03 l-32.24,1.93h-0.55c-1.84,0-2.75-1.01-2.75-3.03c0-9.73-2.99-17.54-8.95-23.42c-5.97-5.88-13.82-8.82-23.56-8.82 c-9.92,0-17.87,2.94-23.83,8.82c-5.97,5.88-8.95,13.69-8.95,23.42v66.4c0,9.55,2.98,17.27,8.95,23.14 c5.97,5.88,13.91,8.82,23.83,8.82c9.73,0,17.59-2.94,23.56-8.82c5.97-5.88,8.95-13.59,8.95-23.14c0-2.02,1.1-3.03,3.31-3.03 l32.24,1.38c0.92,0,1.7,0.28,2.34,0.83c0.64,0.55,0.96,1.2,0.96,1.93c0,12.67-2.99,23.88-8.95,33.61 c-5.97,9.74-14.33,17.27-25.07,22.59c-10.75,5.33-23.19,7.99-37.33,7.99C2567.71,964.64,2555.13,961.85,2544.29,956.24z"/><path class="st0" d="M2682.74,961.48c-0.65-0.64-0.96-1.42-0.96-2.34V772.88c0-0.92,0.32-1.7,0.96-2.34 c0.64-0.64,1.42-0.96,2.34-0.96h32.24c0.92,0,1.7,0.32,2.34,0.96c0.64,0.65,0.96,1.42,0.96,2.34v186.25c0,0.92-0.32,1.7-0.96,2.34 c-0.65,0.65-1.42,0.96-2.34,0.96h-32.24C2684.16,962.44,2683.38,962.12,2682.74,961.48z"/><path class="st0" d="M2873.26,959.68l-8.27-27c-0.37-0.73-0.83-1.1-1.38-1.1h-67.78c-0.55,0-1.01,0.37-1.38,1.1l-7.99,27 c-0.55,1.84-1.75,2.75-3.58,2.75h-34.99c-1.1,0-1.93-0.32-2.48-0.96c-0.55-0.64-0.65-1.61-0.28-2.89l59.51-186.25 c0.55-1.83,1.74-2.76,3.58-2.76h43.26c1.83,0,3.03,0.92,3.58,2.76l59.51,186.25c0.18,0.37,0.28,0.83,0.28,1.38 c0,1.65-1.01,2.48-3.03,2.48h-34.99C2875,962.44,2873.81,961.52,2873.26,959.68z M2805.48,901.55h48.49c1.1,0,1.47-0.55,1.1-1.65 l-24.8-81.83c-0.19-0.73-0.46-1.05-0.83-0.96c-0.37,0.09-0.65,0.41-0.83,0.96l-24.25,81.83 C2804.19,901,2804.56,901.55,2805.48,901.55z"/></g></g><rect width="2914.73" height="653.04" fill="none"/></svg>