<svg xmlns="http://www.w3.org/2000/svg" width="45.788" height="45.386" viewBox="0 0 45.788 45.386">
  <g id="Сгруппировать_1518" data-name="Сгруппировать 1518" transform="translate(-212.5 -348.35)">
    <path id="Контур_7581" data-name="Контур 7581" d="M940.55,286.276h7.925a1.666,1.666,0,0,1,1.666,1.665v13.806a1.666,1.666,0,0,1-1.666,1.665h-4.659v4.821l-4.821-4.821h-6.369a1.666,1.666,0,0,1-1.666-1.665v-6.135H937.8a2.507,2.507,0,0,0,2.752-2.752Z" transform="translate(-692.354 85.002)" fill="none" stroke="#666" stroke-linecap="round" stroke-linejoin="round" stroke-width="1"/>
    <g id="Сгруппировать_1513" data-name="Сгруппировать 1513" transform="translate(223.999 354.463)">
      <path id="Контур_7579" data-name="Контур 7579" d="M920.651,278.583h1.892a2.257,2.257,0,0,0,1.246-.289,1.137,1.137,0,0,0,.438-1.027v-.346q0-1.454-2.214-1.454a8.116,8.116,0,0,0-1.662.173,15.7,15.7,0,0,0-1.845.52v-3.323a8.676,8.676,0,0,1,4.891-1.385,6.18,6.18,0,0,1,2.838.611,4.39,4.39,0,0,1,1.834,1.684,4.693,4.693,0,0,1,.635,2.434v1.177a4.517,4.517,0,0,1-1.188,3.391,4.9,4.9,0,0,1-3.542,1.154v1.845h-3.323Zm-.058,9.818a.519.519,0,0,1-.15-.381v-2.7a.609.609,0,0,1,.139-.428.54.54,0,0,1,.416-.149H923.6a.51.51,0,0,1,.577.577v2.7c0,.354-.193.53-.577.53H921A.547.547,0,0,1,920.594,288.4Z" transform="translate(-918.506 -271.453)" fill="#707070"/>
    </g>
    <path id="Контур_7580" data-name="Контур 7580" d="M906.7,268.226V291.4a2.8,2.8,0,0,0,2.8,2.8h7.821v8.092l8.091-8.092H936.1a2.8,2.8,0,0,0,2.8-2.8V268.226a2.8,2.8,0,0,0-2.8-2.8H909.5A2.8,2.8,0,0,0,906.7,268.226Z" transform="translate(-693.704 83.42)" fill="none" stroke="#666" stroke-linecap="round" stroke-linejoin="round" stroke-width="1"/>
  </g>
</svg>
