<svg xmlns="http://www.w3.org/2000/svg" width="2914.73" height="653.04" viewBox="0 0 2914.73 653.04" overflow="visible" enable-background="new 0 0 2914.73 653.04"><style>.st0{fill:#666}.st1{fill:none;stroke:#666;stroke-linecap:round;stroke-linejoin:round}</style><g id="Grupo_1581_2_" transform="translate(-39.5 -299)"><g id="Grupo_1463_2_" transform="translate(-1237.128 242.862)"><circle id="Elipse_152_2_" class="st0" cx="1591.84" cy="475.82" r="151.83"/><circle id="Elipse_153_2_" class="st0" cx="1947.48" cy="611.06" r="31.19"/><circle id="Elipse_154_2_" class="st1" cx="1591.85" cy="475.83" r="206.3"/><circle id="Elipse_155_2_" cx="1591.85" cy="475.83" r="26.58" fill="#fff"/><circle id="Elipse_156_2_" class="st1" cx="1947.49" cy="611.07" r="71.06"/><path id="Trazado_7537_2_" class="st1" d="M1497.85,292.2l-38.87-221.72h-73.4"/><path id="Trazado_7538_2_" d="M1723.49,403.69h-206.1l-9.42-53.75" fill="none" stroke="#fff" stroke-linecap="round" stroke-linejoin="round"/><path id="Trazado_7539_2_" class="st1" d="M1876.42,611.07V403.71h-91.34"/><line id="Línea_964_2_" class="st1" x1="1482.13" y1="202.58" x2="1876.43" y2="202.58"/></g><g><g><path class="st0" d="M1041.23,388.55c7.64,7.71,11.46,17.86,11.46,30.43c0,12.43-3.89,22.43-11.68,30 c-7.79,7.57-18.04,11.36-30.75,11.36h-41.79c-0.57,0-0.86,0.29-0.86,0.86v63.86c0,1.43-0.72,2.14-2.14,2.14h-10.93 c-1.43,0-2.14-0.71-2.14-2.14V379.12c0-1.43,0.71-2.14,2.14-2.14h56.36C1023.48,376.98,1033.59,380.83,1041.23,388.55z M1029.77,439.87c5.28-5.21,7.93-12.11,7.93-20.68c0-8.71-2.65-15.71-7.93-21c-5.29-5.28-12.14-7.93-20.57-7.93h-40.72 c-0.57,0-0.86,0.29-0.86,0.86v55.72c0,0.57,0.28,0.86,0.86,0.86h40.72C1017.62,447.69,1024.48,445.09,1029.77,439.87z"/><path class="st0" d="M1157.92,469.77v6.86c0,1.43-0.72,2.14-2.14,2.14h-69.22c-0.57,0-0.86,0.29-0.86,0.86 c0.28,7.86,0.71,12.93,1.29,15.21c1.57,6.43,4.93,11.5,10.07,15.21c5.14,3.72,11.71,5.57,19.72,5.57c6,0,11.28-1.36,15.86-4.07 c4.57-2.71,8.14-6.57,10.71-11.57c0.86-1.29,1.85-1.57,3-0.86l8.36,4.93c1.14,0.72,1.43,1.71,0.86,3 c-3.57,6.86-8.93,12.25-16.07,16.18c-7.15,3.93-15.36,5.89-24.64,5.89c-10.15-0.14-18.64-2.57-25.5-7.29 s-11.79-11.28-14.79-19.71c-2.57-6.86-3.86-16.71-3.86-29.57c0-6,0.11-10.89,0.32-14.68c0.21-3.78,0.75-7.18,1.61-10.18 c2.43-9.29,7.32-16.71,14.68-22.29c7.36-5.57,16.25-8.36,26.68-8.36c13,0,23,3.29,30,9.86c7,6.57,11.36,15.86,13.07,27.86 C1157.63,458.77,1157.92,463.77,1157.92,469.77z M1096.52,435.8c-4.64,3.64-7.68,8.54-9.11,14.68c-0.86,3-1.43,7.86-1.71,14.57 c0,0.57,0.28,0.86,0.86,0.86h55.5c0.57,0,0.86-0.29,0.86-0.86c-0.29-6.43-0.72-11-1.29-13.71c-1.57-6.43-4.75-11.54-9.54-15.32 c-4.79-3.78-10.82-5.68-18.11-5.68C1106.99,430.34,1101.16,432.16,1096.52,435.8z"/><path class="st0" d="M1260.46,427.34c6.78,6.72,10.18,15.72,10.18,27v70.72c0,1.43-0.72,2.14-2.14,2.14h-10.93 c-1.43,0-2.14-0.71-2.14-2.14v-67.72c0-7.85-2.39-14.28-7.18-19.29c-4.79-5-10.97-7.5-18.54-7.5c-7.86,0-14.22,2.43-19.07,7.29 c-4.86,4.86-7.29,11.22-7.29,19.07v68.15c0,1.43-0.72,2.14-2.14,2.14h-10.93c-1.43,0-2.14-0.71-2.14-2.14V420.91 c0-1.43,0.71-2.14,2.14-2.14h10.93c1.43,0,2.14,0.72,2.14,2.14v9.21c0,0.29,0.11,0.5,0.32,0.64c0.21,0.14,0.39,0.07,0.54-0.21 c6.28-8.86,15.93-13.29,28.93-13.29C1244.56,417.26,1253.67,420.62,1260.46,427.34z"/><path class="st0" d="M1317.88,524.41c-6.21-2.57-11-6-14.36-10.29c-3.36-4.29-5.04-9.07-5.04-14.36v-2.57 c0-1.43,0.71-2.14,2.14-2.14h10.29c1.43,0,2.14,0.72,2.14,2.14v1.71c0,4.71,2.46,8.82,7.39,12.32c4.93,3.5,11.11,5.25,18.54,5.25 c7.43,0,13.43-1.68,18-5.04c4.57-3.35,6.86-7.61,6.86-12.75c0-3.57-1.18-6.5-3.54-8.79c-2.36-2.28-5.14-4.07-8.36-5.36 s-8.18-2.93-14.89-4.93c-8-2.28-14.57-4.57-19.71-6.86c-5.14-2.28-9.47-5.46-12.96-9.54c-3.5-4.07-5.25-9.25-5.25-15.54 c0-9.14,3.57-16.43,10.71-21.86c7.14-5.43,16.57-8.14,28.29-8.14c7.85,0,14.82,1.29,20.89,3.86c6.07,2.57,10.75,6.11,14.04,10.61 c3.29,4.5,4.93,9.54,4.93,15.11v0.64c0,1.43-0.72,2.14-2.14,2.14h-10.07c-1.43,0-2.14-0.71-2.14-2.14v-0.64 c0-4.86-2.32-8.93-6.96-12.21c-4.64-3.29-10.9-4.93-18.75-4.93c-7.29,0-13.15,1.47-17.57,4.39c-4.43,2.93-6.64,6.96-6.64,12.11 c0,4.86,2.14,8.57,6.43,11.14c4.29,2.57,10.93,5.14,19.93,7.71c8.28,2.43,15,4.71,20.14,6.86s9.57,5.25,13.29,9.32 c3.71,4.07,5.57,9.39,5.57,15.96c0,9.29-3.64,16.71-10.93,22.29c-7.29,5.57-16.93,8.36-28.93,8.36 C1331.2,528.27,1324.1,526.98,1317.88,524.41z"/><path class="st0" d="M1408.42,395.62c-2.29-2.28-3.43-5.14-3.43-8.57c0-3.57,1.14-6.46,3.43-8.68c2.28-2.21,5.14-3.32,8.57-3.32 s6.28,1.11,8.57,3.32c2.28,2.22,3.43,5.11,3.43,8.68c0,3.43-1.15,6.29-3.43,8.57c-2.29,2.29-5.14,3.43-8.57,3.43 S1410.7,397.91,1408.42,395.62z M1408.85,524.84V420.69c0-1.43,0.71-2.14,2.14-2.14h10.93c1.43,0,2.14,0.72,2.14,2.14v104.15 c0,1.43-0.72,2.14-2.14,2.14h-10.93C1409.56,526.98,1408.85,526.27,1408.85,524.84z"/><path class="st0" d="M1476.14,520.98c-7.43-5.28-12.57-12.57-15.43-21.86c-2-6.57-3-15.36-3-26.36c0-11,1-19.71,3-26.14 c2.71-9.14,7.79-16.36,15.21-21.64c7.43-5.28,16.43-7.93,27-7.93c10.14,0,18.89,2.65,26.25,7.93 c7.36,5.29,12.39,12.43,15.11,21.43c2,6.14,3,14.93,3,26.36c0,11.57-1,20.36-3,26.36c-2.72,9.29-7.75,16.57-15.11,21.86 c-7.36,5.29-16.18,7.93-26.47,7.93S1483.56,526.27,1476.14,520.98z M1520.28,509.95c4.85-3.78,8.14-8.89,9.86-15.32 c1.29-5.14,1.93-12.36,1.93-21.64c0-9.43-0.57-16.64-1.71-21.64c-1.71-6.43-5.04-11.54-9.96-15.32 c-4.93-3.78-10.9-5.68-17.89-5.68c-7,0-12.93,1.9-17.79,5.68c-4.86,3.79-8.14,8.89-9.86,15.32c-1.15,5-1.71,12.21-1.71,21.64 c0,9.43,0.57,16.64,1.71,21.64c1.57,6.43,4.82,11.54,9.75,15.32c4.93,3.79,10.96,5.68,18.11,5.68 C1509.57,515.62,1515.42,513.73,1520.28,509.95z M1492.85,403.87c-0.29-0.5-0.21-1.11,0.21-1.82l12.86-23.36 c0.43-1,1.29-1.5,2.57-1.5h9.64c0.86,0,1.39,0.25,1.61,0.75c0.21,0.5,0.11,1.11-0.32,1.82l-14.57,23.36 c-0.72,1-1.57,1.5-2.57,1.5h-7.71C1493.71,404.62,1493.14,404.37,1492.85,403.87z"/><path class="st0" d="M1648.53,427.34c6.78,6.72,10.18,15.72,10.18,27v70.72c0,1.43-0.72,2.14-2.14,2.14h-10.93 c-1.43,0-2.14-0.71-2.14-2.14v-67.72c0-7.85-2.39-14.28-7.18-19.29c-4.79-5-10.97-7.5-18.54-7.5c-7.86,0-14.22,2.43-19.07,7.29 c-4.86,4.86-7.29,11.22-7.29,19.07v68.15c0,1.43-0.72,2.14-2.14,2.14h-10.93c-1.43,0-2.14-0.71-2.14-2.14V420.91 c0-1.43,0.71-2.14,2.14-2.14h10.93c1.43,0,2.14,0.72,2.14,2.14v9.21c0,0.29,0.11,0.5,0.32,0.64c0.21,0.14,0.39,0.07,0.54-0.21 c6.28-8.86,15.93-13.29,28.93-13.29C1632.64,417.26,1641.75,420.62,1648.53,427.34z"/><path class="st0" d="M1804,377.19h10.93c1.43,0,2.14,0.72,2.14,2.14v145.72c0,1.43-0.72,2.14-2.14,2.14H1804 c-1.43,0-2.14-0.71-2.14-2.14v-9c0-0.28-0.11-0.46-0.32-0.54c-0.21-0.07-0.47,0.04-0.75,0.32c-3.14,4.15-7.04,7.36-11.68,9.64 c-4.64,2.28-9.82,3.43-15.54,3.43c-10,0-18.4-2.57-25.18-7.71c-6.79-5.14-11.46-12.14-14.04-21c-2-6.43-3-15.5-3-27.22 c0-11.86,0.86-20.71,2.57-26.57c2.57-9.14,7.29-16.32,14.14-21.54c6.86-5.21,15.36-7.82,25.5-7.82c5.57,0,10.71,1.11,15.43,3.32 c4.71,2.22,8.64,5.39,11.79,9.54c0.28,0.29,0.54,0.4,0.75,0.32c0.21-0.07,0.32-0.25,0.32-0.54v-50.36 C1801.86,377.91,1802.57,377.19,1804,377.19z M1800.79,489.05c0.57-3.86,0.86-9.21,0.86-16.07s-0.29-12.25-0.86-16.18 c-0.57-3.93-1.57-7.39-3-10.39c-1.71-4.86-4.54-8.75-8.46-11.68c-3.93-2.93-8.61-4.39-14.04-4.39c-5.72,0-10.64,1.43-14.79,4.29 c-4.15,2.86-7.15,6.64-9,11.36c-1.71,3.14-2.97,6.68-3.75,10.61c-0.79,3.93-1.18,9.4-1.18,16.39c0,6.72,0.28,11.97,0.86,15.75 c0.57,3.79,1.57,7.18,3,10.18c1.71,5.14,4.75,9.21,9.11,12.21c4.36,3,9.54,4.5,15.54,4.5c5.71,0,10.5-1.5,14.36-4.5 c3.86-3,6.71-7,8.57-12C1799.29,496.27,1800.21,492.91,1800.79,489.05z"/><path class="st0" d="M1935.58,469.77v6.86c0,1.43-0.72,2.14-2.14,2.14h-69.22c-0.57,0-0.86,0.29-0.86,0.86 c0.28,7.86,0.71,12.93,1.29,15.21c1.57,6.43,4.93,11.5,10.07,15.21c5.14,3.72,11.71,5.57,19.72,5.57c6,0,11.28-1.36,15.86-4.07 c4.57-2.71,8.14-6.57,10.71-11.57c0.86-1.29,1.85-1.57,3-0.86l8.36,4.93c1.14,0.72,1.43,1.71,0.86,3 c-3.57,6.86-8.93,12.25-16.07,16.18c-7.15,3.93-15.36,5.89-24.64,5.89c-10.15-0.14-18.64-2.57-25.5-7.29 s-11.79-11.28-14.79-19.71c-2.57-6.86-3.86-16.71-3.86-29.57c0-6,0.11-10.89,0.32-14.68c0.21-3.78,0.75-7.18,1.61-10.18 c2.43-9.29,7.32-16.71,14.68-22.29c7.36-5.57,16.25-8.36,26.68-8.36c13,0,23,3.29,30,9.86c7,6.57,11.36,15.86,13.07,27.86 C1935.29,458.77,1935.58,463.77,1935.58,469.77z M1874.18,435.8c-4.64,3.64-7.68,8.54-9.11,14.68c-0.86,3-1.43,7.86-1.71,14.57 c0,0.57,0.28,0.86,0.86,0.86h55.5c0.57,0,0.86-0.29,0.86-0.86c-0.29-6.43-0.72-11-1.29-13.71c-1.57-6.43-4.75-11.54-9.54-15.32 c-4.79-3.78-10.82-5.68-18.11-5.68C1884.64,430.34,1878.82,432.16,1874.18,435.8z"/></g></g><g><g><path class="st0" d="M951.54,856.08c-0.65-0.64-0.96-1.42-0.96-2.34V667.48c0-0.92,0.32-1.7,0.96-2.34 c0.64-0.64,1.42-0.96,2.34-0.96h32.24c0.92,0,1.7,0.32,2.34,0.96c0.64,0.65,0.96,1.42,0.96,2.34v186.25 c0,0.92-0.32,1.7-0.96,2.34c-0.65,0.65-1.42,0.96-2.34,0.96h-32.24C952.96,857.04,952.18,856.72,951.54,856.08z"/><path class="st0" d="M1134.75,665.14c0.64-0.64,1.42-0.96,2.34-0.96h32.24c0.92,0,1.7,0.32,2.34,0.96 c0.64,0.65,0.96,1.42,0.96,2.34v186.25c0,0.92-0.32,1.7-0.96,2.34c-0.65,0.65-1.43,0.96-2.34,0.96h-31.13 c-1.84,0-3.13-0.73-3.86-2.2l-71.36-117.92c-0.37-0.55-0.74-0.78-1.1-0.69c-0.37,0.09-0.55,0.51-0.55,1.24l0.55,116.27 c0,0.92-0.32,1.7-0.96,2.34c-0.65,0.65-1.42,0.96-2.34,0.96h-32.24c-0.92,0-1.7-0.32-2.34-0.96c-0.65-0.64-0.96-1.42-0.96-2.34 V667.48c0-0.92,0.32-1.7,0.96-2.34c0.64-0.64,1.42-0.96,2.34-0.96h31.13c1.83,0,3.12,0.74,3.86,2.2l71.08,117.37 c0.37,0.55,0.73,0.78,1.1,0.69c0.37-0.09,0.55-0.5,0.55-1.24l-0.28-115.72C1133.79,666.57,1134.11,665.79,1134.75,665.14z"/><path class="st0" d="M1253.92,854.29l-56.76-186.25l-0.28-1.1c0-1.83,1.01-2.76,3.03-2.76h34.72c2.02,0,3.31,0.92,3.86,2.76 l36.64,134.45c0.18,0.55,0.46,0.83,0.83,0.83c0.37,0,0.64-0.28,0.83-0.83l36.09-134.45c0.55-1.83,1.83-2.76,3.86-2.76h33.89 c1.1,0,1.93,0.37,2.48,1.1c0.55,0.74,0.64,1.65,0.28,2.75l-57.58,186.25c-0.55,1.84-1.75,2.75-3.58,2.75h-34.72 C1255.66,857.04,1254.47,856.13,1253.92,854.29z"/><path class="st0" d="M1468.82,854.29l-8.27-27c-0.37-0.73-0.83-1.1-1.38-1.1h-67.78c-0.55,0-1.01,0.37-1.38,1.1l-7.99,27 c-0.55,1.84-1.75,2.75-3.58,2.75h-34.99c-1.1,0-1.93-0.32-2.48-0.96c-0.55-0.64-0.65-1.61-0.28-2.89l59.51-186.25 c0.55-1.83,1.74-2.76,3.58-2.76h43.26c1.83,0,3.03,0.92,3.58,2.76l59.51,186.25c0.18,0.37,0.28,0.83,0.28,1.38 c0,1.65-1.01,2.48-3.03,2.48h-34.99C1470.56,857.04,1469.37,856.13,1468.82,854.29z M1401.04,796.15h48.49 c1.1,0,1.47-0.55,1.1-1.65l-24.8-81.83c-0.19-0.73-0.46-1.05-0.83-0.96c-0.37,0.09-0.65,0.41-0.83,0.96l-24.25,81.83 C1399.76,795.6,1400.12,796.15,1401.04,796.15z"/><path class="st0" d="M1535.63,856.08c-0.65-0.64-0.96-1.42-0.96-2.34V667.48c0-0.92,0.32-1.7,0.96-2.34 c0.64-0.64,1.42-0.96,2.34-0.96h32.24c0.92,0,1.7,0.32,2.34,0.96c0.64,0.65,0.96,1.42,0.96,2.34v154.84 c0,0.92,0.46,1.38,1.38,1.38h90.1c0.92,0,1.7,0.32,2.34,0.96c0.64,0.65,0.96,1.42,0.96,2.34v26.73c0,0.92-0.32,1.7-0.96,2.34 c-0.65,0.65-1.42,0.96-2.34,0.96h-127.02C1537.05,857.04,1536.27,856.72,1535.63,856.08z"/><path class="st0" d="M1693.23,856.08c-0.65-0.64-0.96-1.42-0.96-2.34V667.48c0-0.92,0.32-1.7,0.96-2.34 c0.64-0.64,1.42-0.96,2.34-0.96h32.24c0.92,0,1.7,0.32,2.34,0.96c0.64,0.65,0.96,1.42,0.96,2.34v186.25 c0,0.92-0.32,1.7-0.96,2.34c-0.65,0.65-1.42,0.96-2.34,0.96h-32.24C1694.65,857.04,1693.87,856.72,1693.23,856.08z"/><path class="st0" d="M1765.69,856.08c-0.65-0.64-0.96-1.42-0.96-2.34V667.48c0-0.92,0.32-1.7,0.96-2.34 c0.64-0.64,1.42-0.96,2.34-0.96h68.88c13.78,0,25.85,2.44,36.23,7.3c10.38,4.87,18.41,11.71,24.11,20.53 c5.69,8.82,8.54,19.01,8.54,30.58v76.04c0,11.57-2.85,21.77-8.54,30.58c-5.7,8.82-13.73,15.66-24.11,20.53 c-10.38,4.87-22.46,7.3-36.23,7.3h-68.88C1767.11,857.04,1766.33,856.72,1765.69,856.08z M1804.95,823.71h33.34 c8.45,0,15.29-2.85,20.53-8.54c5.23-5.69,7.94-13.32,8.13-22.87v-63.37c0-9.55-2.62-17.17-7.85-22.87 c-5.23-5.69-12.26-8.54-21.08-8.54h-33.06c-0.92,0-1.38,0.46-1.38,1.38v123.43C1803.57,823.25,1804.03,823.71,1804.95,823.71z"/><path class="st0" d="M2067.93,696.55c-0.65,0.65-1.43,0.96-2.34,0.96h-90.37c-0.92,0-1.38,0.46-1.38,1.38v42.71 c0,0.92,0.46,1.38,1.38,1.38h59.24c0.92,0,1.7,0.32,2.34,0.96c0.64,0.65,0.96,1.42,0.96,2.34v26.73c0,0.92-0.32,1.7-0.96,2.34 c-0.65,0.65-1.42,0.96-2.34,0.96h-59.24c-0.92,0-1.38,0.46-1.38,1.38v44.63c0,0.92,0.46,1.38,1.38,1.38h90.37 c0.92,0,1.7,0.32,2.34,0.96c0.64,0.65,0.96,1.42,0.96,2.34v26.73c0,0.92-0.32,1.7-0.96,2.34c-0.65,0.65-1.43,0.96-2.34,0.96 H1938.3c-0.92,0-1.7-0.32-2.34-0.96c-0.65-0.64-0.96-1.42-0.96-2.34V667.48c0-0.92,0.32-1.7,0.96-2.34 c0.64-0.64,1.42-0.96,2.34-0.96h127.29c0.92,0,1.7,0.32,2.34,0.96c0.64,0.65,0.96,1.42,0.96,2.34v26.73 C2068.9,695.13,2068.57,695.91,2067.93,696.55z"/><path class="st0" d="M2088.87,856.08c-0.65-0.64-0.96-1.42-0.96-2.34v-29.76c0-1.47,0.46-2.85,1.38-4.13l88.99-120.68 c0.37-0.37,0.41-0.73,0.14-1.1c-0.28-0.37-0.69-0.55-1.24-0.55h-85.96c-0.92,0-1.7-0.32-2.34-0.96 c-0.65-0.64-0.96-1.42-0.96-2.34v-26.73c0-0.92,0.32-1.7,0.96-2.34c0.64-0.64,1.42-0.96,2.34-0.96h127.57 c0.92,0,1.7,0.32,2.34,0.96c0.64,0.65,0.96,1.42,0.96,2.34v29.76c0,1.47-0.46,2.85-1.38,4.13l-88.99,120.68 c-0.19,0.37-0.19,0.74,0,1.1c0.18,0.37,0.55,0.55,1.1,0.55h85.96c0.92,0,1.7,0.32,2.34,0.96c0.64,0.65,0.96,1.42,0.96,2.34v26.73 c0,0.92-0.32,1.7-0.96,2.34c-0.65,0.65-1.42,0.96-2.34,0.96h-127.57C2090.29,857.04,2089.51,856.72,2088.87,856.08z"/></g></g></g><rect width="2914.73" height="653.04" fill="none"/></svg>