<svg xmlns="http://www.w3.org/2000/svg" width="36.309" height="42.537" viewBox="0 0 36.309 42.537">
  <g id="Сгруппировать_1520" data-name="Сгруппировать 1520" transform="translate(-360.662 -350.5)">
    <path id="Контур_7583" data-name="Контур 7583" d="M1070.792,295.277h0a5.112,5.112,0,1,0,0,10.225h30.2V295.277Z" transform="translate(-704.517 84.39)" fill="none" stroke="#666" stroke-linecap="round" stroke-linejoin="round" stroke-width="1"/>
    <path id="Контур_7584" data-name="Контур 7584" d="M1070.792,293.185h30.2V264.518h-30.2a5.113,5.113,0,0,0-5.113,5.113c0,.115.01.227.018.341V298.3" transform="translate(-704.517 86.482)" fill="none" stroke="#666" stroke-linecap="round" stroke-linejoin="round" stroke-width="1"/>
    <path id="Контур_7585" data-name="Контур 7585" d="M1079.2,302.466V308.6l2.41-2.41,2.447,2.447v-6.17Z" transform="translate(-705.437 83.901)" fill="#666" stroke="#666" stroke-linecap="round" stroke-linejoin="round" stroke-width="1"/>
    <line id="Линия_988" data-name="Линия 988" y1="28.667" transform="translate(366.275 351)" fill="none" stroke="#666" stroke-linecap="round" stroke-linejoin="round" stroke-width="1"/>
    <g id="Сгруппировать_1515" data-name="Сгруппировать 1515" transform="translate(374.293 357.595)">
      <path id="Контур_7586" data-name="Контур 7586" d="M1085.347,288.622a1.358,1.358,0,1,1,2.716,0Z" transform="translate(-1080.148 -272.66)" fill="none" stroke="#666" stroke-linecap="round" stroke-linejoin="round" stroke-width="1"/>
      <line id="Линия_989" data-name="Линия 989" x2="13.115" transform="translate(0 1.558)" fill="none" stroke="#666" stroke-linecap="round" stroke-linejoin="round" stroke-width="1"/>
      <line id="Линия_990" data-name="Линия 990" x2="11.5" transform="translate(0.807 15.962)" fill="none" stroke="#666" stroke-linecap="round" stroke-linejoin="round" stroke-width="1"/>
      <line id="Линия_991" data-name="Линия 991" y1="14.519" transform="translate(6.557)" fill="none" stroke="#666" stroke-linecap="round" stroke-linejoin="round" stroke-width="1"/>
    </g>
    <g id="Сгруппировать_1516" data-name="Сгруппировать 1516" transform="translate(372.081 358.419)">
      <path id="Контур_7587" data-name="Контур 7587" d="M1084.1,278.325a3.353,3.353,0,1,1-6.707,0Z" transform="translate(-1077.395 -272.876)" fill="#666" stroke="#666" stroke-linecap="round" stroke-linejoin="round" stroke-width="1"/>
      <path id="Контур_7588" data-name="Контур 7588" d="M1077.994,277.928l2.795-5.45,2.795,5.45" transform="translate(-1077.436 -272.478)" fill="none" stroke="#666" stroke-linecap="round" stroke-linejoin="round" stroke-width="1"/>
    </g>
    <g id="Сгруппировать_1517" data-name="Сгруппировать 1517" transform="translate(382.913 358.419)">
      <path id="Контур_7589" data-name="Контур 7589" d="M1095.724,278.325a3.353,3.353,0,1,1-6.707,0Z" transform="translate(-1089.017 -272.876)" fill="#666" stroke="#666" stroke-linecap="round" stroke-linejoin="round" stroke-width="1"/>
      <path id="Контур_7590" data-name="Контур 7590" d="M1089.616,277.928l2.795-5.45,2.795,5.45" transform="translate(-1089.058 -272.478)" fill="none" stroke="#666" stroke-linecap="round" stroke-linejoin="round" stroke-width="1"/>
    </g>
  </g>
</svg>
