<svg xmlns="http://www.w3.org/2000/svg" width="2914.73" height="659.36" viewBox="0 0 2914.73 659.36" overflow="visible" enable-background="new 0 0 2914.73 659.36"><style>.st0{fill:#666}.st1{fill:none;stroke:#666;stroke-linecap:round;stroke-linejoin:round}.st2{enable-background:new}</style><g id="Grupo_1467_1_" transform="translate(-1165.845 -57.631)"><path id="Trazado_7559_1_" class="st0" d="M1804.27,273.35h-450.91L1325,383.2h507.65L1804.27,273.35z"/><path id="Trazado_7560_1_" class="st1" d="M1832.61,383.63v-0.41l0,0l-66.39-257.15c-7.59-29.39-37.57-47.07-66.96-39.48 c-1.65,0.43-3.27,0.93-4.87,1.5L1597.41,123c-12.03,4.33-25.21,4.33-37.24,0l-96.95-34.91c-28.55-10.29-60.04,4.52-70.32,33.07 c-0.58,1.61-1.08,3.25-1.51,4.9l-66.42,257.15"/><path id="Trazado_7561_1_" class="st0" d="M1406.46,506.55c43.86,0,79.41,35.56,79.41,79.41c0,43.86-35.55,79.41-79.41,79.41 c-21.53,0-42.14-8.75-57.11-24.23L1406.46,506.55z"/><path id="Trazado_7562_1_" class="st0" d="M1751.14,506.55c43.86,0,79.41,35.56,79.41,79.41c0,43.86-35.55,79.41-79.41,79.41 c-21.53,0-42.14-8.75-57.11-24.23L1751.14,506.55z"/><circle id="Elipse_163_1_" class="st1" cx="1406.46" cy="585.96" r="111.08"/><circle id="Elipse_164_1_" class="st1" cx="1751.14" cy="585.96" r="111.08"/><line id="Línea_973_1_" class="st1" x1="1517.54" y1="585.96" x2="1640.07" y2="585.96"/><line id="Línea_974_1_" class="st1" x1="1295.38" y1="585.96" x2="1213.64" y2="585.96"/><line id="Línea_975_1_" class="st1" x1="1862.22" y1="585.96" x2="1943.96" y2="585.96"/><line id="Línea_976_1_" class="st1" x1="1943.96" y1="383.22" x2="1213.64" y2="383.22"/></g><g class="st2"><path class="st0" d="M1039.02,86.92c7.64,7.71,11.46,17.86,11.46,30.43c0,12.43-3.89,22.43-11.68,30 c-7.79,7.57-18.04,11.36-30.75,11.36h-41.79c-0.57,0-0.86,0.29-0.86,0.86v63.86c0,1.43-0.72,2.14-2.14,2.14h-10.93 c-1.43,0-2.14-0.71-2.14-2.14V77.49c0-1.43,0.71-2.14,2.14-2.14h56.36C1021.26,75.34,1031.37,79.2,1039.02,86.92z M1027.55,138.24 c5.28-5.21,7.93-12.11,7.93-20.68c0-8.71-2.65-15.71-7.93-21c-5.29-5.28-12.14-7.93-20.57-7.93h-40.72c-0.57,0-0.86,0.29-0.86,0.86 v55.72c0,0.57,0.28,0.86,0.86,0.86h40.72C1015.41,146.06,1022.27,143.46,1027.55,138.24z"/><path class="st0" d="M1155.7,168.13v6.86c0,1.43-0.72,2.14-2.14,2.14h-69.22c-0.57,0-0.86,0.29-0.86,0.86 c0.28,7.86,0.71,12.93,1.29,15.21c1.57,6.43,4.93,11.5,10.07,15.21c5.14,3.72,11.71,5.57,19.72,5.57c6,0,11.28-1.36,15.86-4.07 c4.57-2.71,8.14-6.57,10.71-11.57c0.86-1.29,1.85-1.57,3-0.86l8.36,4.93c1.14,0.72,1.43,1.71,0.86,3 c-3.57,6.86-8.93,12.25-16.07,16.18c-7.15,3.93-15.36,5.89-24.64,5.89c-10.15-0.14-18.64-2.57-25.5-7.29s-11.79-11.28-14.79-19.71 c-2.57-6.86-3.86-16.71-3.86-29.57c0-6,0.11-10.89,0.32-14.68c0.21-3.78,0.75-7.18,1.61-10.18c2.43-9.29,7.32-16.71,14.68-22.29 c7.36-5.57,16.25-8.36,26.68-8.36c13,0,23,3.29,30,9.86c7,6.57,11.36,15.86,13.07,27.86 C1155.41,157.13,1155.7,162.13,1155.7,168.13z M1094.31,134.17c-4.64,3.64-7.68,8.54-9.11,14.68c-0.86,3-1.43,7.86-1.71,14.57 c0,0.57,0.28,0.86,0.86,0.86h55.5c0.57,0,0.86-0.29,0.86-0.86c-0.29-6.43-0.72-11-1.29-13.71c-1.57-6.43-4.75-11.54-9.54-15.32 c-4.79-3.78-10.82-5.68-18.11-5.68C1104.77,128.7,1098.95,130.53,1094.31,134.17z"/><path class="st0" d="M1258.24,125.7c6.78,6.72,10.18,15.72,10.18,27v70.72c0,1.43-0.72,2.14-2.14,2.14h-10.93 c-1.43,0-2.14-0.71-2.14-2.14v-67.72c0-7.85-2.39-14.28-7.18-19.29c-4.79-5-10.97-7.5-18.54-7.5c-7.86,0-14.22,2.43-19.07,7.29 c-4.86,4.86-7.29,11.22-7.29,19.07v68.15c0,1.43-0.72,2.14-2.14,2.14h-10.93c-1.43,0-2.14-0.71-2.14-2.14V119.28 c0-1.43,0.71-2.14,2.14-2.14h10.93c1.43,0,2.14,0.72,2.14,2.14v9.21c0,0.29,0.11,0.5,0.32,0.64c0.21,0.14,0.39,0.07,0.54-0.21 c6.28-8.86,15.93-13.29,28.93-13.29C1242.34,115.63,1251.45,118.99,1258.24,125.7z"/><path class="st0" d="M1315.67,222.78c-6.21-2.57-11-6-14.36-10.29c-3.36-4.29-5.04-9.07-5.04-14.36v-2.57 c0-1.43,0.71-2.14,2.14-2.14h10.29c1.43,0,2.14,0.72,2.14,2.14v1.71c0,4.71,2.46,8.82,7.39,12.32c4.93,3.5,11.11,5.25,18.54,5.25 c7.43,0,13.43-1.68,18-5.04c4.57-3.35,6.86-7.61,6.86-12.75c0-3.57-1.18-6.5-3.54-8.79c-2.36-2.28-5.14-4.07-8.36-5.36 s-8.18-2.93-14.89-4.93c-8-2.28-14.57-4.57-19.71-6.86c-5.14-2.28-9.47-5.46-12.96-9.54c-3.5-4.07-5.25-9.25-5.25-15.54 c0-9.14,3.57-16.43,10.71-21.86c7.14-5.43,16.57-8.14,28.29-8.14c7.85,0,14.82,1.29,20.89,3.86c6.07,2.57,10.75,6.11,14.04,10.61 c3.29,4.5,4.93,9.54,4.93,15.11v0.64c0,1.43-0.72,2.14-2.14,2.14h-10.07c-1.43,0-2.14-0.71-2.14-2.14v-0.64 c0-4.86-2.32-8.93-6.96-12.21c-4.64-3.29-10.9-4.93-18.75-4.93c-7.29,0-13.15,1.47-17.57,4.39c-4.43,2.93-6.64,6.96-6.64,12.11 c0,4.86,2.14,8.57,6.43,11.14c4.29,2.57,10.93,5.14,19.93,7.71c8.28,2.43,15,4.71,20.14,6.86s9.57,5.25,13.29,9.32 c3.71,4.07,5.57,9.39,5.57,15.96c0,9.29-3.64,16.71-10.93,22.29c-7.29,5.57-16.93,8.36-28.93,8.36 C1328.99,226.64,1321.88,225.35,1315.67,222.78z"/><path class="st0" d="M1406.2,93.99c-2.29-2.28-3.43-5.14-3.43-8.57c0-3.57,1.14-6.46,3.43-8.68c2.28-2.21,5.14-3.32,8.57-3.32 s6.28,1.11,8.57,3.32c2.28,2.22,3.43,5.11,3.43,8.68c0,3.43-1.15,6.29-3.43,8.57c-2.29,2.29-5.14,3.43-8.57,3.43 S1408.49,96.28,1406.2,93.99z M1406.63,223.21V119.06c0-1.43,0.71-2.14,2.14-2.14h10.93c1.43,0,2.14,0.72,2.14,2.14v104.15 c0,1.43-0.72,2.14-2.14,2.14h-10.93C1407.35,225.35,1406.63,224.64,1406.63,223.21z"/><path class="st0" d="M1473.92,219.35c-7.43-5.28-12.57-12.57-15.43-21.86c-2-6.57-3-15.36-3-26.36c0-11,1-19.71,3-26.14 c2.71-9.14,7.79-16.36,15.21-21.64c7.43-5.28,16.43-7.93,27-7.93c10.14,0,18.89,2.65,26.25,7.93c7.36,5.29,12.39,12.43,15.11,21.43 c2,6.14,3,14.93,3,26.36c0,11.57-1,20.36-3,26.36c-2.72,9.29-7.75,16.57-15.11,21.86c-7.36,5.29-16.18,7.93-26.47,7.93 S1481.35,224.64,1473.92,219.35z M1518.06,208.31c4.85-3.78,8.14-8.89,9.86-15.32c1.29-5.14,1.93-12.36,1.93-21.64 c0-9.43-0.57-16.64-1.71-21.64c-1.71-6.43-5.04-11.54-9.96-15.32c-4.93-3.78-10.9-5.68-17.89-5.68c-7,0-12.93,1.9-17.79,5.68 c-4.86,3.79-8.14,8.89-9.86,15.32c-1.15,5-1.71,12.21-1.71,21.64c0,9.43,0.57,16.64,1.71,21.64c1.57,6.43,4.82,11.54,9.75,15.32 c4.93,3.79,10.96,5.68,18.11,5.68C1507.35,213.99,1513.2,212.1,1518.06,208.31z M1490.63,102.24c-0.29-0.5-0.21-1.11,0.21-1.82 l12.86-23.36c0.43-1,1.29-1.5,2.57-1.5h9.64c0.86,0,1.39,0.25,1.61,0.75c0.21,0.5,0.11,1.11-0.32,1.82l-14.57,23.36 c-0.72,1-1.57,1.5-2.57,1.5h-7.71C1491.49,102.99,1490.92,102.74,1490.63,102.24z"/><path class="st0" d="M1646.32,125.7c6.78,6.72,10.18,15.72,10.18,27v70.72c0,1.43-0.72,2.14-2.14,2.14h-10.93 c-1.43,0-2.14-0.71-2.14-2.14v-67.72c0-7.85-2.39-14.28-7.18-19.29c-4.79-5-10.97-7.5-18.54-7.5c-7.86,0-14.22,2.43-19.07,7.29 c-4.86,4.86-7.29,11.22-7.29,19.07v68.15c0,1.43-0.72,2.14-2.14,2.14h-10.93c-1.43,0-2.14-0.71-2.14-2.14V119.28 c0-1.43,0.71-2.14,2.14-2.14h10.93c1.43,0,2.14,0.72,2.14,2.14v9.21c0,0.29,0.11,0.5,0.32,0.64c0.21,0.14,0.39,0.07,0.54-0.21 c6.28-8.86,15.93-13.29,28.93-13.29C1630.42,115.63,1639.53,118.99,1646.32,125.7z"/><path class="st0" d="M1801.78,75.56h10.93c1.43,0,2.14,0.72,2.14,2.14v145.72c0,1.43-0.72,2.14-2.14,2.14h-10.93 c-1.43,0-2.14-0.71-2.14-2.14v-9c0-0.28-0.11-0.46-0.32-0.54c-0.21-0.07-0.47,0.04-0.75,0.32c-3.14,4.15-7.04,7.36-11.68,9.64 c-4.64,2.28-9.82,3.43-15.54,3.43c-10,0-18.4-2.57-25.18-7.71c-6.79-5.14-11.46-12.14-14.04-21c-2-6.43-3-15.5-3-27.22 c0-11.86,0.86-20.71,2.57-26.57c2.57-9.14,7.29-16.32,14.14-21.54c6.86-5.21,15.36-7.82,25.5-7.82c5.57,0,10.71,1.11,15.43,3.32 c4.71,2.22,8.64,5.39,11.79,9.54c0.28,0.29,0.54,0.4,0.75,0.32c0.21-0.07,0.32-0.25,0.32-0.54V77.7 C1799.64,76.28,1800.35,75.56,1801.78,75.56z M1798.57,187.42c0.57-3.86,0.86-9.21,0.86-16.07s-0.29-12.25-0.86-16.18 c-0.57-3.93-1.57-7.39-3-10.39c-1.71-4.86-4.54-8.75-8.46-11.68c-3.93-2.93-8.61-4.39-14.04-4.39c-5.72,0-10.64,1.43-14.79,4.29 c-4.15,2.86-7.15,6.64-9,11.36c-1.71,3.14-2.97,6.68-3.75,10.61c-0.79,3.93-1.18,9.4-1.18,16.39c0,6.72,0.28,11.97,0.86,15.75 c0.57,3.79,1.57,7.18,3,10.18c1.71,5.14,4.75,9.21,9.11,12.21c4.36,3,9.54,4.5,15.54,4.5c5.71,0,10.5-1.5,14.36-4.5s6.71-7,8.57-12 C1797.07,194.64,1798,191.28,1798.57,187.42z"/><path class="st0" d="M1933.36,168.13v6.86c0,1.43-0.72,2.14-2.14,2.14H1862c-0.57,0-0.86,0.29-0.86,0.86 c0.28,7.86,0.71,12.93,1.29,15.21c1.57,6.43,4.93,11.5,10.07,15.21c5.14,3.72,11.71,5.57,19.72,5.57c6,0,11.28-1.36,15.86-4.07 c4.57-2.71,8.14-6.57,10.71-11.57c0.86-1.29,1.85-1.57,3-0.86l8.36,4.93c1.14,0.72,1.43,1.71,0.86,3 c-3.57,6.86-8.93,12.25-16.07,16.18c-7.15,3.93-15.36,5.89-24.64,5.89c-10.15-0.14-18.64-2.57-25.5-7.29S1853,208.92,1850,200.49 c-2.57-6.86-3.86-16.71-3.86-29.57c0-6,0.11-10.89,0.32-14.68c0.21-3.78,0.75-7.18,1.61-10.18c2.43-9.29,7.32-16.71,14.68-22.29 c7.36-5.57,16.25-8.36,26.68-8.36c13,0,23,3.29,30,9.86c7,6.57,11.36,15.86,13.07,27.86 C1933.07,157.13,1933.36,162.13,1933.36,168.13z M1871.96,134.17c-4.64,3.64-7.68,8.54-9.11,14.68c-0.86,3-1.43,7.86-1.71,14.57 c0,0.57,0.28,0.86,0.86,0.86h55.5c0.57,0,0.86-0.29,0.86-0.86c-0.29-6.43-0.72-11-1.29-13.71c-1.57-6.43-4.75-11.54-9.54-15.32 c-4.79-3.78-10.82-5.68-18.11-5.68C1882.43,128.7,1876.6,130.53,1871.96,134.17z"/></g><g class="st2"><path class="st0" d="M996.02,590.17l-56.76-186.25l-0.28-1.1c0-1.83,1.01-2.76,3.03-2.76h34.72c2.02,0,3.31,0.92,3.86,2.76 l36.64,134.45c0.18,0.55,0.46,0.83,0.83,0.83c0.37,0,0.64-0.28,0.83-0.83l36.09-134.45c0.55-1.83,1.83-2.76,3.86-2.76h33.89 c1.1,0,1.93,0.37,2.48,1.1c0.55,0.74,0.64,1.65,0.28,2.75l-57.58,186.25c-0.55,1.84-1.75,2.75-3.58,2.75H999.6 C997.76,592.92,996.57,592.01,996.02,590.17z"/><path class="st0" d="M1251.02,432.43c-0.65,0.65-1.43,0.96-2.34,0.96h-90.37c-0.92,0-1.38,0.46-1.38,1.38v42.71 c0,0.92,0.46,1.38,1.38,1.38h59.24c0.92,0,1.7,0.32,2.34,0.96c0.64,0.65,0.96,1.42,0.96,2.34v26.73c0,0.92-0.32,1.7-0.96,2.34 c-0.65,0.65-1.42,0.96-2.34,0.96h-59.24c-0.92,0-1.38,0.46-1.38,1.38v44.63c0,0.92,0.46,1.38,1.38,1.38h90.37 c0.92,0,1.7,0.32,2.34,0.96c0.64,0.65,0.96,1.42,0.96,2.34v26.73c0,0.92-0.32,1.7-0.96,2.34c-0.65,0.65-1.43,0.96-2.34,0.96 h-127.29c-0.92,0-1.7-0.32-2.34-0.96c-0.65-0.64-0.96-1.42-0.96-2.34V403.37c0-0.92,0.32-1.7,0.96-2.34 c0.64-0.64,1.42-0.96,2.34-0.96h127.29c0.92,0,1.7,0.32,2.34,0.96c0.64,0.65,0.96,1.42,0.96,2.34v26.73 C1251.98,431.01,1251.66,431.79,1251.02,432.43z"/><path class="st0" d="M1300.06,587.28c-10.38-5.23-18.42-12.58-24.11-22.04c-5.7-9.46-8.54-20.43-8.54-32.92v-17.36 c0-0.92,0.32-1.7,0.96-2.34c0.64-0.64,1.42-0.96,2.34-0.96h32.24c0.92,0,1.7,0.32,2.34,0.96c0.64,0.65,0.96,1.42,0.96,2.34v17.36 c0,8.82,2.71,15.94,8.13,21.35c5.42,5.42,12.81,8.13,22.18,8.13c9,0,16.39-2.71,22.18-8.13c5.79-5.42,8.68-12.54,8.68-21.35V403.37 c0-0.92,0.32-1.7,0.96-2.34c0.64-0.64,1.42-0.96,2.34-0.96h31.96c0.92,0,1.7,0.32,2.34,0.96c0.64,0.65,0.96,1.42,0.96,2.34v128.94 c0,12.49-2.94,23.47-8.82,32.92c-5.88,9.46-14.05,16.81-24.52,22.04c-10.47,5.24-22.5,7.85-36.09,7.85 C1322.6,595.13,1310.43,592.51,1300.06,587.28z"/><path class="st0" d="M1572.55,432.43c-0.65,0.65-1.43,0.96-2.34,0.96h-90.37c-0.92,0-1.38,0.46-1.38,1.38v42.71 c0,0.92,0.46,1.38,1.38,1.38h59.24c0.92,0,1.7,0.32,2.34,0.96c0.64,0.65,0.96,1.42,0.96,2.34v26.73c0,0.92-0.32,1.7-0.96,2.34 c-0.65,0.65-1.42,0.96-2.34,0.96h-59.24c-0.92,0-1.38,0.46-1.38,1.38v44.63c0,0.92,0.46,1.38,1.38,1.38h90.37 c0.92,0,1.7,0.32,2.34,0.96c0.64,0.65,0.96,1.42,0.96,2.34v26.73c0,0.92-0.32,1.7-0.96,2.34c-0.65,0.65-1.43,0.96-2.34,0.96 h-127.29c-0.92,0-1.7-0.32-2.34-0.96c-0.65-0.64-0.96-1.42-0.96-2.34V403.37c0-0.92,0.32-1.7,0.96-2.34 c0.64-0.64,1.42-0.96,2.34-0.96h127.29c0.92,0,1.7,0.32,2.34,0.96c0.64,0.65,0.96,1.42,0.96,2.34v26.73 C1573.51,431.01,1573.19,431.79,1572.55,432.43z"/><path class="st0" d="M1593.49,591.96c-0.65-0.64-0.96-1.42-0.96-2.34v-29.76c0-1.47,0.46-2.85,1.38-4.13l88.99-120.68 c0.37-0.37,0.41-0.73,0.14-1.1c-0.28-0.37-0.69-0.55-1.24-0.55h-85.96c-0.92,0-1.7-0.32-2.34-0.96c-0.65-0.64-0.96-1.42-0.96-2.34 v-26.73c0-0.92,0.32-1.7,0.96-2.34c0.64-0.64,1.42-0.96,2.34-0.96h127.57c0.92,0,1.7,0.32,2.34,0.96c0.64,0.65,0.96,1.42,0.96,2.34 v29.76c0,1.47-0.46,2.85-1.38,4.13l-88.99,120.68c-0.19,0.37-0.19,0.74,0,1.1c0.18,0.37,0.55,0.55,1.1,0.55h85.96 c0.92,0,1.7,0.32,2.34,0.96c0.64,0.65,0.96,1.42,0.96,2.34v26.73c0,0.92-0.32,1.7-0.96,2.34c-0.65,0.65-1.42,0.96-2.34,0.96 h-127.57C1594.91,592.92,1594.13,592.61,1593.49,591.96z"/></g><rect width="2914.73" height="659.36" fill="none"/></svg>