<svg xmlns="http://www.w3.org/2000/svg" width="2914.73" height="653.04" viewBox="0 0 2914.73 653.04" overflow="visible" enable-background="new 0 0 2914.73 653.04"><style>.st1{fill:#666}.st2{fill:#fff}.st4{enable-background:new}</style><g id="Grupo_1582_2_" transform="translate(-40.5 -209)"><g id="Grupo_1462_2_" transform="translate(-1177.175 152.862)"><circle id="Elipse_157_2_" cx="1630.65" cy="382.66" r="312.47" fill="none" stroke="#666" stroke-linecap="round" stroke-linejoin="round"/><circle id="Elipse_158_2_" class="st1" cx="1630.65" cy="382.66" r="239.12"/><g id="Grupo_1457_2_" transform="translate(1224.227 68.047)"><g id="Grupo_1450_2_" transform="translate(3.856 0.006)"><path id="Trazado_7540_2_" class="st2" d="M257.1,181.27c-1.59,0.03-3.18-0.22-4.69-0.73c-1.43-0.7-2.75-1.6-3.92-2.69 c-2.4-2.28-3.73-5.48-3.64-8.8c-0.03-1.62,0.3-3.22,0.97-4.69c0.51-1.52,1.43-2.87,2.67-3.89c4.77-4.69,12.42-4.69,17.19,0 c2.37,2.21,3.7,5.31,3.67,8.55c0.05,1.68-0.29,3.35-0.97,4.89c-0.6,1.49-1.52,2.82-2.7,3.91c-1.16,1.09-2.48,2-3.92,2.69 C260.26,181.03,258.68,181.29,257.1,181.27z"/></g><g id="Grupo_1451_2_" transform="translate(22.481)"><path id="Trazado_7541_2_" class="st2" d="M517.26,169.16c-0.02-1.59,0.23-3.18,0.75-4.69c0.7-1.43,1.6-2.75,2.67-3.92 c2.29-2.41,5.49-3.73,8.81-3.64c1.62-0.04,3.22,0.29,4.69,0.97c1.53,0.51,2.88,1.43,3.91,2.67c4.69,4.77,4.69,12.42,0,17.19 c-2.21,2.37-5.31,3.7-8.55,3.67c-1.68,0.05-3.36-0.29-4.89-0.98c-1.49-0.59-2.83-1.51-3.92-2.69c-1.08-1.17-1.98-2.49-2.67-3.92 C517.53,172.32,517.26,170.74,517.26,169.16z"/></g><g id="Grupo_1452_2_" transform="translate(26.333 9.308)"><path id="Trazado_7542_2_" class="st2" d="M577.21,296.74c1.1-1.14,2.4-2.08,3.83-2.77c1.51-0.53,3.09-0.83,4.69-0.89 c3.32-0.09,6.53,1.24,8.81,3.66c1.16,1.11,2.04,2.47,2.59,3.97c0.73,1.45,1.03,3.07,0.86,4.69 c-0.07,6.65-5.44,12.03-12.09,12.09c-3.23,0.12-6.37-1.13-8.64-3.44c-1.22-1.16-2.16-2.58-2.77-4.16 c-0.63-1.48-0.92-3.08-0.86-4.69c0.05-1.6,0.35-3.18,0.88-4.69C575.19,299.12,576.11,297.84,577.21,296.74z"/></g><g id="Grupo_1453_2_" transform="translate(22.476 18.625)"><path id="Trazado_7543_2_" class="st2" d="M529.39,429.32c1.59-0.02,3.18,0.24,4.69,0.75c1.43,0.68,2.75,1.58,3.91,2.67 c2.42,2.28,3.75,5.49,3.66,8.81c0.04,1.62-0.29,3.22-0.97,4.69c-0.51,1.53-1.44,2.87-2.69,3.89c-4.74,4.66-12.35,4.66-17.09,0 c-2.38-2.19-3.71-5.29-3.67-8.53c-0.05-1.68,0.29-3.35,0.97-4.89c0.6-1.49,1.52-2.83,2.7-3.92c1.15-1.09,2.47-1.99,3.91-2.67 C526.27,429.59,527.82,429.32,529.39,429.32z"/></g><g id="Grupo_1454_2_" transform="translate(13.169 22.477)"><path id="Trazado_7544_2_" class="st2" d="M401.82,489.27c1.13,1.11,2.07,2.41,2.77,3.83c0.52,1.51,0.82,3.09,0.88,4.69 c0.1,3.32-1.22,6.53-3.64,8.81c-1.11,1.16-2.48,2.05-3.98,2.61c-1.45,0.73-3.07,1.02-4.69,0.86 c-6.65-0.08-12.02-5.45-12.09-12.09c-0.11-3.24,1.14-6.37,3.45-8.64c1.16-1.22,2.57-2.16,4.14-2.77 c1.48-0.63,3.08-0.92,4.69-0.86c1.6,0.05,3.18,0.35,4.69,0.87C399.43,487.26,400.71,488.17,401.82,489.27z"/></g><g id="Grupo_1455_2_" transform="translate(3.862 18.619)"><path id="Trazado_7545_2_" class="st2" d="M269.31,441.45c0.02,1.59-0.23,3.18-0.75,4.69c-0.69,1.43-1.59,2.75-2.67,3.92 c-2.28,2.42-5.49,3.75-8.81,3.66c-1.62,0.04-3.22-0.3-4.69-0.98c-1.52-0.5-2.87-1.43-3.89-2.67c-4.69-4.77-4.69-12.42,0-17.19 c2.21-2.37,5.31-3.7,8.55-3.67c1.68-0.04,3.35,0.29,4.89,0.98c1.49,0.59,2.83,1.51,3.92,2.69c1.08,1.17,1.98,2.49,2.67,3.92 C269.05,438.29,269.32,439.86,269.31,441.45z"/></g><g id="Grupo_1456_2_" transform="translate(0 9.313)"><path id="Trazado_7546_2_" class="st2" d="M209.27,313.88c-1.11,1.13-2.4,2.06-3.81,2.77c-1.51,0.52-3.09,0.82-4.69,0.87 c-3.32,0.09-6.52-1.23-8.81-3.64c-1.15-1.11-2.04-2.48-2.59-3.98c-0.73-1.45-1.03-3.07-0.86-4.69 c0.07-6.65,5.44-12.03,12.09-12.09c3.23-0.12,6.37,1.14,8.62,3.45c1.22,1.15,2.17,2.57,2.77,4.14c0.64,1.48,0.94,3.08,0.88,4.69 c-0.05,1.6-0.35,3.18-0.89,4.69C211.3,311.49,210.39,312.78,209.27,313.88z"/></g></g><path id="Trazado_7547_2_" d="M1630.65,121.18v261.47l-112.49-112.49" fill="none" stroke="#fff" stroke-linecap="round" stroke-linejoin="round"/></g><g class="st4"><path class="st1" d="M1060.88,274.04c7.64,7.71,11.46,17.86,11.46,30.43c0,12.43-3.89,22.43-11.68,30 c-7.79,7.57-18.04,11.36-30.75,11.36h-41.79c-0.57,0-0.86,0.29-0.86,0.86v63.86c0,1.43-0.72,2.14-2.14,2.14h-10.93 c-1.43,0-2.14-0.71-2.14-2.14V264.62c0-1.43,0.71-2.14,2.14-2.14h56.36C1043.12,262.47,1053.23,266.33,1060.88,274.04z M1049.41,325.37c5.28-5.21,7.93-12.11,7.93-20.68c0-8.71-2.65-15.71-7.93-21c-5.29-5.28-12.14-7.93-20.57-7.93h-40.72 c-0.57,0-0.86,0.29-0.86,0.86v55.72c0,0.57,0.28,0.86,0.86,0.86h40.72C1037.27,333.19,1044.12,330.58,1049.41,325.37z"/><path class="st1" d="M1177.56,355.26v6.86c0,1.43-0.72,2.14-2.14,2.14h-69.22c-0.57,0-0.86,0.29-0.86,0.86 c0.28,7.86,0.71,12.93,1.29,15.21c1.57,6.43,4.93,11.5,10.07,15.21c5.14,3.72,11.71,5.57,19.72,5.57c6,0,11.28-1.36,15.86-4.07 c4.57-2.71,8.14-6.57,10.71-11.57c0.86-1.29,1.85-1.57,3-0.86l8.36,4.93c1.14,0.72,1.43,1.71,0.86,3 c-3.57,6.86-8.93,12.25-16.07,16.18c-7.15,3.93-15.36,5.89-24.64,5.89c-10.15-0.14-18.64-2.57-25.5-7.29s-11.79-11.28-14.79-19.71 c-2.57-6.86-3.86-16.71-3.86-29.57c0-6,0.11-10.89,0.32-14.68c0.21-3.78,0.75-7.18,1.61-10.18c2.43-9.29,7.32-16.71,14.68-22.29 c7.36-5.57,16.25-8.36,26.68-8.36c13,0,23,3.29,30,9.86c7,6.57,11.36,15.86,13.07,27.86 C1177.27,344.26,1177.56,349.26,1177.56,355.26z M1116.16,321.3c-4.64,3.64-7.68,8.54-9.11,14.68c-0.86,3-1.43,7.86-1.71,14.57 c0,0.57,0.28,0.86,0.86,0.86h55.5c0.57,0,0.86-0.29,0.86-0.86c-0.29-6.43-0.72-11-1.29-13.71c-1.57-6.43-4.75-11.54-9.54-15.32 c-4.79-3.78-10.82-5.68-18.11-5.68C1126.63,315.83,1120.81,317.65,1116.16,321.3z"/><path class="st1" d="M1280.1,312.83c6.78,6.72,10.18,15.72,10.18,27v70.72c0,1.43-0.72,2.14-2.14,2.14h-10.93 c-1.43,0-2.14-0.71-2.14-2.14v-67.72c0-7.85-2.39-14.28-7.18-19.29c-4.79-5-10.97-7.5-18.54-7.5c-7.86,0-14.22,2.43-19.07,7.29 c-4.86,4.86-7.29,11.22-7.29,19.07v68.15c0,1.43-0.72,2.14-2.14,2.14h-10.93c-1.43,0-2.14-0.71-2.14-2.14V306.4 c0-1.43,0.71-2.14,2.14-2.14h10.93c1.43,0,2.14,0.72,2.14,2.14v9.21c0,0.29,0.11,0.5,0.32,0.64c0.21,0.14,0.39,0.07,0.54-0.21 c6.28-8.86,15.93-13.29,28.93-13.29C1264.2,302.76,1273.31,306.12,1280.1,312.83z"/><path class="st1" d="M1337.53,409.91c-6.21-2.57-11-6-14.36-10.29c-3.36-4.29-5.04-9.07-5.04-14.36v-2.57 c0-1.43,0.71-2.14,2.14-2.14h10.29c1.43,0,2.14,0.72,2.14,2.14v1.71c0,4.71,2.46,8.82,7.39,12.32c4.93,3.5,11.11,5.25,18.54,5.25 c7.43,0,13.43-1.68,18-5.04c4.57-3.35,6.86-7.61,6.86-12.75c0-3.57-1.18-6.5-3.54-8.79c-2.36-2.28-5.14-4.07-8.36-5.36 s-8.18-2.93-14.89-4.93c-8-2.28-14.57-4.57-19.71-6.86c-5.14-2.28-9.47-5.46-12.96-9.54c-3.5-4.07-5.25-9.25-5.25-15.54 c0-9.14,3.57-16.43,10.71-21.86c7.14-5.43,16.57-8.14,28.29-8.14c7.85,0,14.82,1.29,20.89,3.86c6.07,2.57,10.75,6.11,14.04,10.61 c3.29,4.5,4.93,9.54,4.93,15.11v0.64c0,1.43-0.72,2.14-2.14,2.14h-10.07c-1.43,0-2.14-0.71-2.14-2.14v-0.64 c0-4.86-2.32-8.93-6.96-12.21c-4.64-3.29-10.9-4.93-18.75-4.93c-7.29,0-13.15,1.47-17.57,4.39c-4.43,2.93-6.64,6.96-6.64,12.11 c0,4.86,2.14,8.57,6.43,11.14c4.29,2.57,10.93,5.14,19.93,7.71c8.28,2.43,15,4.71,20.14,6.86s9.57,5.25,13.29,9.32 c3.71,4.07,5.57,9.39,5.57,15.96c0,9.29-3.64,16.71-10.93,22.29c-7.29,5.57-16.93,8.36-28.93,8.36 C1350.85,413.76,1343.74,412.48,1337.53,409.91z"/><path class="st1" d="M1428.06,281.12c-2.29-2.28-3.43-5.14-3.43-8.57c0-3.57,1.14-6.46,3.43-8.68c2.28-2.21,5.14-3.32,8.57-3.32 s6.28,1.11,8.57,3.32c2.28,2.22,3.43,5.11,3.43,8.68c0,3.43-1.15,6.29-3.43,8.57c-2.29,2.29-5.14,3.43-8.57,3.43 S1430.35,283.4,1428.06,281.12z M1428.49,410.33V306.19c0-1.43,0.71-2.14,2.14-2.14h10.93c1.43,0,2.14,0.72,2.14,2.14v104.15 c0,1.43-0.72,2.14-2.14,2.14h-10.93C1429.2,412.48,1428.49,411.76,1428.49,410.33z"/><path class="st1" d="M1495.78,406.48c-7.43-5.28-12.57-12.57-15.43-21.86c-2-6.57-3-15.36-3-26.36c0-11,1-19.71,3-26.14 c2.71-9.14,7.79-16.36,15.21-21.64c7.43-5.28,16.43-7.93,27-7.93c10.14,0,18.89,2.65,26.25,7.93 c7.36,5.29,12.39,12.43,15.11,21.43c2,6.14,3,14.93,3,26.36c0,11.57-1,20.36-3,26.36c-2.72,9.29-7.75,16.57-15.11,21.86 c-7.36,5.29-16.18,7.93-26.47,7.93S1503.2,411.76,1495.78,406.48z M1539.92,395.44c4.85-3.78,8.14-8.89,9.86-15.32 c1.29-5.14,1.93-12.36,1.93-21.64c0-9.43-0.57-16.64-1.71-21.64c-1.71-6.43-5.04-11.54-9.96-15.32 c-4.93-3.78-10.9-5.68-17.89-5.68c-7,0-12.93,1.9-17.79,5.68c-4.86,3.79-8.14,8.89-9.86,15.32c-1.15,5-1.71,12.21-1.71,21.64 c0,9.43,0.57,16.64,1.71,21.64c1.57,6.43,4.82,11.54,9.75,15.32c4.93,3.79,10.96,5.68,18.11,5.68 C1529.21,401.12,1535.06,399.23,1539.92,395.44z M1512.49,289.37c-0.29-0.5-0.21-1.11,0.21-1.82l12.86-23.36 c0.43-1,1.29-1.5,2.57-1.5h9.64c0.86,0,1.39,0.25,1.61,0.75c0.21,0.5,0.11,1.11-0.32,1.82l-14.57,23.36c-0.72,1-1.57,1.5-2.57,1.5 h-7.71C1513.35,290.12,1512.78,289.87,1512.49,289.37z"/><path class="st1" d="M1668.18,312.83c6.78,6.72,10.18,15.72,10.18,27v70.72c0,1.43-0.72,2.14-2.14,2.14h-10.93 c-1.43,0-2.14-0.71-2.14-2.14v-67.72c0-7.85-2.39-14.28-7.18-19.29c-4.79-5-10.97-7.5-18.54-7.5c-7.86,0-14.22,2.43-19.07,7.29 c-4.86,4.86-7.29,11.22-7.29,19.07v68.15c0,1.43-0.72,2.14-2.14,2.14h-10.93c-1.43,0-2.14-0.71-2.14-2.14V306.4 c0-1.43,0.71-2.14,2.14-2.14h10.93c1.43,0,2.14,0.72,2.14,2.14v9.21c0,0.29,0.11,0.5,0.32,0.64c0.21,0.14,0.39,0.07,0.54-0.21 c6.28-8.86,15.93-13.29,28.93-13.29C1652.28,302.76,1661.39,306.12,1668.18,312.83z"/><path class="st1" d="M1823.64,262.69h10.93c1.43,0,2.14,0.72,2.14,2.14v145.72c0,1.43-0.72,2.14-2.14,2.14h-10.93 c-1.43,0-2.14-0.71-2.14-2.14v-9c0-0.28-0.11-0.46-0.32-0.54c-0.21-0.07-0.47,0.04-0.75,0.32c-3.14,4.15-7.04,7.36-11.68,9.64 c-4.64,2.28-9.82,3.43-15.54,3.43c-10,0-18.4-2.57-25.18-7.71c-6.79-5.14-11.46-12.14-14.04-21c-2-6.43-3-15.5-3-27.22 c0-11.86,0.86-20.71,2.57-26.57c2.57-9.14,7.29-16.32,14.14-21.54c6.86-5.21,15.36-7.82,25.5-7.82c5.57,0,10.71,1.11,15.43,3.32 c4.71,2.22,8.64,5.39,11.79,9.54c0.28,0.29,0.54,0.4,0.75,0.32c0.21-0.07,0.32-0.25,0.32-0.54v-50.36 C1821.5,263.4,1822.21,262.69,1823.64,262.69z M1820.43,374.55c0.57-3.86,0.86-9.21,0.86-16.07s-0.29-12.25-0.86-16.18 c-0.57-3.93-1.57-7.39-3-10.39c-1.71-4.86-4.54-8.75-8.46-11.68c-3.93-2.93-8.61-4.39-14.04-4.39c-5.72,0-10.64,1.43-14.79,4.29 c-4.15,2.86-7.15,6.64-9,11.36c-1.71,3.14-2.97,6.68-3.75,10.61c-0.79,3.93-1.18,9.4-1.18,16.39c0,6.72,0.28,11.97,0.86,15.75 c0.57,3.79,1.57,7.18,3,10.18c1.71,5.14,4.75,9.21,9.11,12.21c4.36,3,9.54,4.5,15.54,4.5c5.71,0,10.5-1.5,14.36-4.5 s6.71-7,8.57-12C1818.93,381.76,1819.86,378.41,1820.43,374.55z"/><path class="st1" d="M1955.22,355.26v6.86c0,1.43-0.72,2.14-2.14,2.14h-69.22c-0.57,0-0.86,0.29-0.86,0.86 c0.28,7.86,0.71,12.93,1.29,15.21c1.57,6.43,4.93,11.5,10.07,15.21c5.14,3.72,11.71,5.57,19.72,5.57c6,0,11.28-1.36,15.86-4.07 c4.57-2.71,8.14-6.57,10.71-11.57c0.86-1.29,1.85-1.57,3-0.86l8.36,4.93c1.14,0.72,1.43,1.71,0.86,3 c-3.57,6.86-8.93,12.25-16.07,16.18c-7.15,3.93-15.36,5.89-24.64,5.89c-10.15-0.14-18.64-2.57-25.5-7.29s-11.79-11.28-14.79-19.71 c-2.57-6.86-3.86-16.71-3.86-29.57c0-6,0.11-10.89,0.32-14.68c0.21-3.78,0.75-7.18,1.61-10.18c2.43-9.29,7.32-16.71,14.68-22.29 c7.36-5.57,16.25-8.36,26.68-8.36c13,0,23,3.29,30,9.86c7,6.57,11.36,15.86,13.07,27.86 C1954.93,344.26,1955.22,349.26,1955.22,355.26z M1893.82,321.3c-4.64,3.64-7.68,8.54-9.11,14.68c-0.86,3-1.43,7.86-1.71,14.57 c0,0.57,0.28,0.86,0.86,0.86h55.5c0.57,0,0.86-0.29,0.86-0.86c-0.29-6.43-0.72-11-1.29-13.71c-1.57-6.43-4.75-11.54-9.54-15.32 c-4.79-3.78-10.82-5.68-18.11-5.68C1904.29,315.83,1898.46,317.65,1893.82,321.3z"/><path class="st1" d="M2053.36,410.98l-35.14-104.36l-0.21-0.86c0-1,0.64-1.5,1.93-1.5h12.21c1.29,0,2.14,0.57,2.57,1.71l26.79,84 c0.14,0.29,0.35,0.43,0.64,0.43c0.28,0,0.5-0.14,0.64-0.43l26.79-84c0.43-1.14,1.29-1.71,2.57-1.71l12.21,0.21 c1.57,0,2.14,0.79,1.71,2.36l-35.14,104.15c-0.43,1.14-1.29,1.71-2.57,1.71h-12.43C2054.65,412.69,2053.79,412.12,2053.36,410.98z"/><path class="st1" d="M2210.44,355.26v6.86c0,1.43-0.72,2.14-2.14,2.14h-69.22c-0.57,0-0.86,0.29-0.86,0.86 c0.28,7.86,0.71,12.93,1.29,15.21c1.57,6.43,4.93,11.5,10.07,15.21c5.14,3.72,11.71,5.57,19.72,5.57c6,0,11.28-1.36,15.86-4.07 c4.57-2.71,8.14-6.57,10.71-11.57c0.86-1.29,1.85-1.57,3-0.86l8.36,4.93c1.14,0.72,1.43,1.71,0.86,3 c-3.57,6.86-8.93,12.25-16.07,16.18c-7.15,3.93-15.36,5.89-24.64,5.89c-10.15-0.14-18.64-2.57-25.5-7.29s-11.79-11.28-14.79-19.71 c-2.57-6.86-3.86-16.71-3.86-29.57c0-6,0.11-10.89,0.32-14.68c0.21-3.78,0.75-7.18,1.61-10.18c2.43-9.29,7.32-16.71,14.68-22.29 c7.36-5.57,16.25-8.36,26.68-8.36c13,0,23,3.29,30,9.86c7,6.57,11.36,15.86,13.07,27.86 C2210.15,344.26,2210.44,349.26,2210.44,355.26z M2149.04,321.3c-4.64,3.64-7.68,8.54-9.11,14.68c-0.86,3-1.43,7.86-1.71,14.57 c0,0.57,0.28,0.86,0.86,0.86h55.5c0.57,0,0.86-0.29,0.86-0.86c-0.29-6.43-0.72-11-1.29-13.71c-1.57-6.43-4.75-11.54-9.54-15.32 c-4.79-3.78-10.82-5.68-18.11-5.68C2159.51,315.83,2153.68,317.65,2149.04,321.3z"/><path class="st1" d="M2216.01,455.12v-8.79c0-1.43,0.72-2.14,2.14-2.14c15.29-0.14,22.93-7.5,22.93-22.07V306.4 c0-1.43,0.71-2.14,2.14-2.14h10.93c1.43,0,2.14,0.72,2.14,2.14v115.72c0,12.14-3,21-9,26.57c-6,5.57-15.72,8.43-29.14,8.57 C2216.72,457.27,2216.01,456.55,2216.01,455.12z M2240.12,281.12c-2.22-2.28-3.32-5.14-3.32-8.57c0-3.57,1.1-6.46,3.32-8.68 c2.21-2.21,5.11-3.32,8.68-3.32c3.43,0,6.29,1.11,8.57,3.32c2.28,2.22,3.43,5.11,3.43,8.68c0,3.43-1.15,6.29-3.43,8.57 c-2.29,2.29-5.14,3.43-8.57,3.43C2245.22,284.54,2242.33,283.4,2240.12,281.12z"/><path class="st1" d="M2377.16,355.26v6.86c0,1.43-0.72,2.14-2.14,2.14h-69.22c-0.57,0-0.86,0.29-0.86,0.86 c0.28,7.86,0.71,12.93,1.29,15.21c1.57,6.43,4.93,11.5,10.07,15.21c5.14,3.72,11.71,5.57,19.72,5.57c6,0,11.28-1.36,15.86-4.07 c4.57-2.71,8.14-6.57,10.71-11.57c0.86-1.29,1.85-1.57,3-0.86l8.36,4.93c1.14,0.72,1.43,1.71,0.86,3 c-3.57,6.86-8.93,12.25-16.07,16.18c-7.15,3.93-15.36,5.89-24.64,5.89c-10.15-0.14-18.64-2.57-25.5-7.29s-11.79-11.28-14.79-19.71 c-2.57-6.86-3.86-16.71-3.86-29.57c0-6,0.11-10.89,0.32-14.68c0.21-3.78,0.75-7.18,1.61-10.18c2.43-9.29,7.32-16.71,14.68-22.29 c7.36-5.57,16.25-8.36,26.68-8.36c13,0,23,3.29,30,9.86c7,6.57,11.36,15.86,13.07,27.86 C2376.87,344.26,2377.16,349.26,2377.16,355.26z M2315.76,321.3c-4.64,3.64-7.68,8.54-9.11,14.68c-0.86,3-1.43,7.86-1.71,14.57 c0,0.57,0.28,0.86,0.86,0.86h55.5c0.57,0,0.86-0.29,0.86-0.86c-0.29-6.43-0.72-11-1.29-13.71c-1.57-6.43-4.75-11.54-9.54-15.32 c-4.79-3.78-10.82-5.68-18.11-5.68C2326.22,315.83,2320.4,317.65,2315.76,321.3z"/><path class="st1" d="M2397.51,410.55v-10.29c0-1,0.28-1.86,0.86-2.57l60.86-78.43c0.28-0.28,0.35-0.54,0.21-0.75 c-0.14-0.21-0.36-0.32-0.64-0.32h-58.29c-1.43,0-2.14-0.71-2.14-2.14v-9.64c0-1.43,0.71-2.14,2.14-2.14h75.22 c1.43,0,2.14,0.72,2.14,2.14v10.29c0,1-0.29,1.86-0.86,2.57l-61.5,78.43c-0.29,0.29-0.36,0.54-0.21,0.75 c0.14,0.21,0.35,0.32,0.64,0.32h59.79c1.43,0,2.14,0.72,2.14,2.14v9.64c0,1.43-0.72,2.14-2.14,2.14h-76.07 C2398.22,412.69,2397.51,411.98,2397.51,410.55z"/></g><g class="st4"><path class="st1" d="M1089.24,784.9l-8.27-27c-0.37-0.73-0.83-1.1-1.38-1.1h-67.78c-0.55,0-1.01,0.37-1.38,1.1l-7.99,27 c-0.55,1.84-1.75,2.75-3.58,2.75h-34.99c-1.1,0-1.93-0.32-2.48-0.96c-0.55-0.64-0.65-1.61-0.28-2.89l59.51-186.25 c0.55-1.83,1.74-2.76,3.58-2.76h43.26c1.83,0,3.03,0.92,3.58,2.76l59.51,186.25c0.18,0.37,0.28,0.83,0.28,1.38 c0,1.65-1.01,2.48-3.03,2.48h-34.99C1090.98,787.66,1089.79,786.74,1089.24,784.9z M1021.46,726.76h48.49 c1.1,0,1.47-0.55,1.1-1.65l-24.8-81.83c-0.19-0.73-0.46-1.05-0.83-0.96c-0.37,0.09-0.65,0.41-0.83,0.96l-24.25,81.83 C1020.17,726.21,1020.54,726.76,1021.46,726.76z"/><path class="st1" d="M1266.81,595.75c0.64-0.64,1.42-0.96,2.34-0.96h32.24c0.92,0,1.7,0.32,2.34,0.96 c0.64,0.65,0.96,1.42,0.96,2.34v186.25c0,0.92-0.32,1.7-0.96,2.34c-0.65,0.65-1.43,0.96-2.34,0.96h-31.13 c-1.84,0-3.13-0.73-3.86-2.2l-71.36-117.92c-0.37-0.55-0.74-0.78-1.1-0.69c-0.37,0.09-0.55,0.51-0.55,1.24l0.55,116.27 c0,0.92-0.32,1.7-0.96,2.34c-0.65,0.65-1.42,0.96-2.34,0.96h-32.24c-0.92,0-1.7-0.32-2.34-0.96c-0.65-0.64-0.96-1.42-0.96-2.34 V598.1c0-0.92,0.32-1.7,0.96-2.34c0.64-0.64,1.42-0.96,2.34-0.96h31.13c1.83,0,3.12,0.74,3.86,2.2l71.08,117.37 c0.37,0.55,0.73,0.78,1.1,0.69c0.37-0.09,0.55-0.5,0.55-1.24l-0.28-115.72C1265.85,597.18,1266.16,596.4,1266.81,595.75z"/><path class="st1" d="M1473.72,595.75c0.64,0.65,0.96,1.42,0.96,2.34v27c0,0.92-0.32,1.7-0.96,2.34c-0.65,0.65-1.42,0.96-2.34,0.96 h-49.32c-0.92,0-1.38,0.46-1.38,1.38v154.57c0,0.92-0.32,1.7-0.96,2.34c-0.65,0.65-1.42,0.96-2.34,0.96h-32.24 c-0.92,0-1.7-0.32-2.34-0.96c-0.65-0.64-0.96-1.42-0.96-2.34V629.78c0-0.92-0.46-1.38-1.38-1.38h-47.94 c-0.92,0-1.7-0.32-2.34-0.96c-0.65-0.64-0.96-1.42-0.96-2.34v-27c0-0.92,0.32-1.7,0.96-2.34c0.64-0.64,1.42-0.96,2.34-0.96h138.86 C1472.3,594.79,1473.08,595.11,1473.72,595.75z"/><path class="st1" d="M1500.45,786.69c-0.65-0.64-0.96-1.42-0.96-2.34V598.1c0-0.92,0.32-1.7,0.96-2.34 c0.64-0.64,1.42-0.96,2.34-0.96h32.24c0.92,0,1.7,0.32,2.34,0.96c0.64,0.65,0.96,1.42,0.96,2.34v186.25c0,0.92-0.32,1.7-0.96,2.34 c-0.65,0.65-1.42,0.96-2.34,0.96h-32.24C1501.87,787.66,1501.09,787.34,1500.45,786.69z"/><path class="st1" d="M1601.97,781.46c-10.84-5.6-19.2-13.45-25.07-23.56c-5.88-10.1-8.82-21.77-8.82-34.99v-63.65 c0-13.23,2.94-24.89,8.82-34.99c5.88-10.1,14.23-17.91,25.07-23.42c10.84-5.51,23.42-8.27,37.75-8.27 c14.14,0,26.59,2.62,37.33,7.85c10.75,5.24,19.1,12.67,25.07,22.32c5.97,9.64,8.95,20.8,8.95,33.48c0,1.65-1.1,2.67-3.31,3.03 l-32.24,1.93h-0.55c-1.84,0-2.75-1.01-2.75-3.03c0-9.73-2.99-17.54-8.95-23.42c-5.97-5.88-13.82-8.82-23.56-8.82 c-9.92,0-17.87,2.94-23.83,8.82c-5.97,5.88-8.95,13.69-8.95,23.42v66.4c0,9.55,2.98,17.27,8.95,23.14 c5.97,5.88,13.91,8.82,23.83,8.82c9.73,0,17.59-2.94,23.56-8.82c5.97-5.88,8.95-13.59,8.95-23.14c0-2.02,1.1-3.03,3.31-3.03 l32.24,1.38c0.92,0,1.7,0.28,2.34,0.83c0.64,0.55,0.96,1.2,0.96,1.93c0,12.67-2.99,23.88-8.95,33.61 c-5.97,9.74-14.33,17.27-25.07,22.59c-10.75,5.33-23.19,7.99-37.33,7.99C1625.39,789.86,1612.81,787.06,1601.97,781.46z"/><path class="st1" d="M1740.42,786.69c-0.65-0.64-0.96-1.42-0.96-2.34V598.1c0-0.92,0.32-1.7,0.96-2.34 c0.64-0.64,1.42-0.96,2.34-0.96H1775c0.92,0,1.7,0.32,2.34,0.96c0.64,0.65,0.96,1.42,0.96,2.34v186.25c0,0.92-0.32,1.7-0.96,2.34 c-0.65,0.65-1.42,0.96-2.34,0.96h-32.24C1741.84,787.66,1741.06,787.34,1740.42,786.69z"/><path class="st1" d="M1923.5,601.95c9.18,4.96,16.3,11.99,21.35,21.08c5.05,9.09,7.58,19.52,7.58,31.27 c0,11.57-2.62,21.77-7.85,30.58s-12.58,15.66-22.04,20.53c-9.46,4.87-20.35,7.3-32.65,7.3h-39.12c-0.92,0-1.38,0.46-1.38,1.38 v70.26c0,0.92-0.32,1.7-0.96,2.34c-0.65,0.65-1.42,0.96-2.34,0.96h-32.24c-0.92,0-1.7-0.32-2.34-0.96 c-0.65-0.64-0.96-1.42-0.96-2.34V597.82c0-0.92,0.32-1.7,0.96-2.34c0.64-0.64,1.42-0.96,2.34-0.96h77.7 C1903.66,594.51,1914.31,596.99,1923.5,601.95z M1906.14,674.28c5.14-4.87,7.71-11.25,7.71-19.15c0-8.08-2.57-14.6-7.71-19.56 c-5.14-4.96-11.94-7.44-20.39-7.44h-34.99c-0.92,0-1.38,0.46-1.38,1.38v50.7c0,0.92,0.46,1.38,1.38,1.38h34.99 C1894.2,681.58,1901,679.15,1906.14,674.28z"/><path class="st1" d="M2079.99,784.9l-8.27-27c-0.37-0.73-0.83-1.1-1.38-1.1h-67.78c-0.55,0-1.01,0.37-1.38,1.1l-7.99,27 c-0.55,1.84-1.75,2.75-3.58,2.75h-34.99c-1.1,0-1.93-0.32-2.48-0.96c-0.55-0.64-0.65-1.61-0.28-2.89l59.51-186.25 c0.55-1.83,1.74-2.76,3.58-2.76h43.26c1.83,0,3.03,0.92,3.58,2.76l59.51,186.25c0.18,0.37,0.28,0.83,0.28,1.38 c0,1.65-1.01,2.48-3.03,2.48h-34.99C2081.73,787.66,2080.54,786.74,2079.99,784.9z M2012.21,726.76h48.49 c1.1,0,1.47-0.55,1.1-1.65l-24.8-81.83c-0.19-0.73-0.46-1.05-0.83-0.96c-0.37,0.09-0.65,0.41-0.83,0.96l-24.25,81.83 C2010.93,726.21,2011.29,726.76,2012.21,726.76z"/><path class="st1" d="M2146.8,786.69c-0.65-0.64-0.96-1.42-0.96-2.34V598.1c0-0.92,0.32-1.7,0.96-2.34 c0.64-0.64,1.42-0.96,2.34-0.96h68.88c13.78,0,25.85,2.44,36.23,7.3c10.38,4.87,18.41,11.71,24.11,20.53 c5.69,8.82,8.54,19.01,8.54,30.58v76.04c0,11.57-2.85,21.77-8.54,30.58c-5.7,8.82-13.73,15.66-24.11,20.53 c-10.38,4.87-22.46,7.3-36.23,7.3h-68.88C2148.22,787.66,2147.44,787.34,2146.8,786.69z M2186.06,754.32h33.34 c8.45,0,15.29-2.85,20.53-8.54c5.23-5.69,7.94-13.32,8.13-22.87v-63.37c0-9.55-2.62-17.17-7.85-22.87 c-5.23-5.69-12.26-8.54-21.08-8.54h-33.06c-0.92,0-1.38,0.46-1.38,1.38v123.43C2184.69,753.86,2185.14,754.32,2186.06,754.32z"/><path class="st1" d="M2424.67,784.9l-8.27-27c-0.37-0.73-0.83-1.1-1.38-1.1h-67.78c-0.55,0-1.01,0.37-1.38,1.1l-7.99,27 c-0.55,1.84-1.75,2.75-3.58,2.75h-34.99c-1.1,0-1.93-0.32-2.48-0.96c-0.55-0.64-0.65-1.61-0.28-2.89l59.51-186.25 c0.55-1.83,1.74-2.76,3.58-2.76h43.26c1.83,0,3.03,0.92,3.58,2.76l59.51,186.25c0.18,0.37,0.28,0.83,0.28,1.38 c0,1.65-1.01,2.48-3.03,2.48h-34.99C2426.41,787.66,2425.22,786.74,2424.67,784.9z M2356.89,726.76h48.49 c1.1,0,1.47-0.55,1.1-1.65l-24.8-81.83c-0.19-0.73-0.46-1.05-0.83-0.96c-0.37,0.09-0.65,0.41-0.83,0.96l-24.25,81.83 C2355.6,726.21,2355.97,726.76,2356.89,726.76z"/></g></g><rect width="2914.73" height="653.04" fill="none"/></svg>