<svg xmlns="http://www.w3.org/2000/svg" width="176.427" height="36.394" viewBox="0 0 176.427 36.394"><path d="M116.286,31.766a2.022,2.022,0,1,1-2.021-2.022A2.021,2.021,0,0,1,116.286,31.766Zm3.369-1.572a1.573,1.573,0,1,0,1.572,1.572A1.573,1.573,0,0,0,119.655,30.194Zm0,4.943a2.021,2.021,0,1,0,2.022,2.021A2.021,2.021,0,0,0,119.655,35.137Zm0,5.39a2.022,2.022,0,1,0,2.022,2.023A2.022,2.022,0,0,0,119.655,40.527Zm0,5.393a2.022,2.022,0,1,0,2.022,2.021A2.021,2.021,0,0,0,119.655,45.92Zm0,5.391a2.022,2.022,0,1,0,2.022,2.023A2.022,2.022,0,0,0,119.655,51.311Zm0,5.392a2.021,2.021,0,1,0,2.022,2.021A2.021,2.021,0,0,0,119.655,56.7Zm0,5.873a1.54,1.54,0,1,0,1.541,1.541A1.541,1.541,0,0,0,119.655,62.576Zm-5.39-.481a2.021,2.021,0,1,0,2.021,2.022A2.021,2.021,0,0,0,114.265,62.1Zm10.783-31.9a1.573,1.573,0,1,0,1.572,1.572A1.572,1.572,0,0,0,125.048,30.194Zm0,5.392a1.572,1.572,0,1,0,1.572,1.572A1.572,1.572,0,0,0,125.048,35.586Zm0,4.941a2.022,2.022,0,1,0,2.021,2.023A2.022,2.022,0,0,0,125.048,40.527Zm0,5.393a2.022,2.022,0,1,0,2.021,2.021A2.021,2.021,0,0,0,125.048,45.92Zm0,5.391a2.022,2.022,0,1,0,2.021,2.023A2.022,2.022,0,0,0,125.048,51.311Zm0,5.841a1.573,1.573,0,1,0,1.572,1.572A1.572,1.572,0,0,0,125.048,57.152Zm0,5.392a1.573,1.573,0,1,0,1.572,1.573A1.572,1.572,0,0,0,125.048,62.544Zm-16.176-32.8a2.022,2.022,0,1,0,2.021,2.022A2.022,2.022,0,0,0,108.872,29.744Zm0,32.351a2.021,2.021,0,1,0,2.021,2.022A2.022,2.022,0,0,0,108.872,62.1Zm-5.391-31.9a1.573,1.573,0,1,0,1.573,1.572A1.572,1.572,0,0,0,103.481,30.194Zm0,4.943a2.021,2.021,0,1,0,2.022,2.021A2.022,2.022,0,0,0,103.481,35.137Zm0,5.39A2.022,2.022,0,1,0,105.5,42.55,2.023,2.023,0,0,0,103.481,40.527Zm0,5.393a2.022,2.022,0,1,0,2.022,2.021A2.022,2.022,0,0,0,103.481,45.92Zm0,5.391a2.022,2.022,0,1,0,2.022,2.023A2.023,2.023,0,0,0,103.481,51.311Zm0,5.392a2.021,2.021,0,1,0,2.022,2.021A2.022,2.022,0,0,0,103.481,56.7Zm0,5.841a1.573,1.573,0,1,0,1.573,1.573A1.572,1.572,0,0,0,103.481,62.544Zm-5.392-32.35a1.573,1.573,0,1,0,1.572,1.572A1.573,1.573,0,0,0,98.089,30.194Zm0,5.392a1.572,1.572,0,1,0,1.572,1.572A1.572,1.572,0,0,0,98.089,35.586Zm0,4.941a2.022,2.022,0,1,0,2.021,2.023A2.022,2.022,0,0,0,98.089,40.527Zm0,5.393a2.022,2.022,0,1,0,2.021,2.021A2.021,2.021,0,0,0,98.089,45.92Zm0,5.391a2.022,2.022,0,1,0,2.021,2.023A2.022,2.022,0,0,0,98.089,51.311Zm0,5.841a1.573,1.573,0,1,0,1.572,1.572A1.572,1.572,0,0,0,98.089,57.152Zm0,5.392a1.573,1.573,0,1,0,1.572,1.573A1.573,1.573,0,0,0,98.089,62.544ZM81.6,29.744a2.022,2.022,0,1,0,2.021,2.022A2.021,2.021,0,0,0,81.6,29.744Zm5.392.45a1.573,1.573,0,1,0,1.572,1.572A1.574,1.574,0,0,0,86.987,30.194Zm0,32.35a1.573,1.573,0,1,0,1.572,1.573A1.574,1.574,0,0,0,86.987,62.544ZM81.6,62.1a2.021,2.021,0,1,0,2.021,2.022A2.021,2.021,0,0,0,81.6,62.1ZM76.2,29.744a2.022,2.022,0,1,0,2.022,2.022A2.022,2.022,0,0,0,76.2,29.744Zm0,5.842a1.572,1.572,0,1,0,1.572,1.572A1.572,1.572,0,0,0,76.2,35.586Zm0,21.566a1.573,1.573,0,1,0,1.572,1.572A1.572,1.572,0,0,0,76.2,57.152Zm0,4.943a2.021,2.021,0,1,0,2.022,2.022A2.022,2.022,0,0,0,76.2,62.1Zm-5.393-31.9a1.573,1.573,0,1,0,1.573,1.572A1.573,1.573,0,0,0,70.811,30.194Zm0,4.943a2.021,2.021,0,1,0,2.022,2.021A2.02,2.02,0,0,0,70.811,35.137Zm0,5.39a2.022,2.022,0,1,0,2.022,2.023A2.021,2.021,0,0,0,70.811,40.527Zm0,5.393a2.022,2.022,0,1,0,2.022,2.021A2.02,2.02,0,0,0,70.811,45.92Zm0,5.391a2.022,2.022,0,1,0,2.022,2.023A2.021,2.021,0,0,0,70.811,51.311Zm0,5.392a2.021,2.021,0,1,0,2.022,2.021A2.02,2.02,0,0,0,70.811,56.7Zm0,5.841a1.573,1.573,0,1,0,1.573,1.573A1.573,1.573,0,0,0,70.811,62.544ZM65.42,30.194a1.573,1.573,0,1,0,1.573,1.572A1.572,1.572,0,0,0,65.42,30.194Zm0,4.943a2.021,2.021,0,1,0,2.022,2.021A2.022,2.022,0,0,0,65.42,35.137Zm0,5.39a2.022,2.022,0,1,0,2.022,2.023A2.023,2.023,0,0,0,65.42,40.527Zm0,5.393a2.022,2.022,0,1,0,2.022,2.021A2.022,2.022,0,0,0,65.42,45.92Zm0,5.391a2.022,2.022,0,1,0,2.022,2.023A2.023,2.023,0,0,0,65.42,51.311Zm0,5.392a2.021,2.021,0,1,0,2.022,2.021A2.022,2.022,0,0,0,65.42,56.7Zm0,5.841a1.573,1.573,0,1,0,1.573,1.573A1.572,1.572,0,0,0,65.42,62.544ZM48.2,29.744a2.022,2.022,0,1,0,2.023,2.022A2.022,2.022,0,0,0,48.2,29.744Zm5.393,5.393a2.021,2.021,0,1,0,2.021,2.021A2.021,2.021,0,0,0,53.589,35.137Zm-16.176,0a2.021,2.021,0,1,0,2.022,2.021A2.021,2.021,0,0,0,37.413,35.137Zm-5.392,0a2.021,2.021,0,1,0,2.023,2.021A2.021,2.021,0,0,0,32.021,35.137Zm5.392,5.39a2.022,2.022,0,1,0,2.022,2.023A2.022,2.022,0,0,0,37.413,40.527Zm-5.392,0a2.022,2.022,0,1,0,2.023,2.023A2.022,2.022,0,0,0,32.021,40.527ZM53.589,30.194a1.573,1.573,0,1,0,1.572,1.572A1.572,1.572,0,0,0,53.589,30.194Zm0,32.35a1.573,1.573,0,1,0,1.572,1.573A1.572,1.572,0,0,0,53.589,62.544Zm-10.784-32.8a2.022,2.022,0,1,0,2.022,2.022A2.022,2.022,0,0,0,42.805,29.744Zm-5.392,0a2.022,2.022,0,1,0,2.022,2.022A2.022,2.022,0,0,0,37.413,29.744ZM48.2,45.92a2.022,2.022,0,1,0,2.023,2.021A2.021,2.021,0,0,0,48.2,45.92Zm5.393,0a2.022,2.022,0,1,0,2.021,2.021A2.021,2.021,0,0,0,53.589,45.92ZM48.2,51.311a2.022,2.022,0,1,0,2.023,2.023A2.023,2.023,0,0,0,48.2,51.311Zm5.393,0a2.022,2.022,0,1,0,2.021,2.023A2.022,2.022,0,0,0,53.589,51.311ZM48.2,56.7a2.022,2.022,0,1,0,2.023,2.021A2.021,2.021,0,0,0,48.2,56.7Zm5.393,0a2.021,2.021,0,1,0,2.021,2.021A2.021,2.021,0,0,0,53.589,56.7ZM37.413,62.1a2.021,2.021,0,1,0,2.022,2.022A2.022,2.022,0,0,0,37.413,62.1ZM32.021,56.7a2.022,2.022,0,1,0,2.023,2.021A2.021,2.021,0,0,0,32.021,56.7ZM42.805,62.1a2.021,2.021,0,1,0,2.022,2.022A2.022,2.022,0,0,0,42.805,62.1Zm5.391,0a2.022,2.022,0,1,0,2.023,2.022A2.022,2.022,0,0,0,48.2,62.1ZM42.805,45.92a2.022,2.022,0,1,0,2.022,2.021A2.021,2.021,0,0,0,42.805,45.92Zm-5.392,0a2.022,2.022,0,1,0,2.022,2.021A2.021,2.021,0,0,0,37.413,45.92ZM32.021,30.194A1.573,1.573,0,1,0,33.6,31.766,1.572,1.572,0,0,0,32.021,30.194Zm0,15.95a1.8,1.8,0,1,0,1.8,1.8A1.8,1.8,0,0,0,32.021,46.144Zm0,16.4A1.573,1.573,0,1,0,33.6,64.117,1.572,1.572,0,0,0,32.021,62.544Zm126.7-27.407a2.021,2.021,0,1,0,2.021,2.021A2.021,2.021,0,0,0,158.726,35.137Zm0,5.84A1.573,1.573,0,1,0,160.3,42.55,1.573,1.573,0,0,0,158.726,40.977Zm-5.391-5.391a1.572,1.572,0,1,0,1.572,1.572A1.571,1.571,0,0,0,153.335,35.586Zm0,4.941a2.022,2.022,0,1,0,2.021,2.023A2.023,2.023,0,0,0,153.335,40.527Zm0,5.393a2.022,2.022,0,1,0,2.021,2.021A2.022,2.022,0,0,0,153.335,45.92Zm10.783-16.176a2.022,2.022,0,1,0,2.022,2.022A2.022,2.022,0,0,0,164.118,29.744Zm0,5.393a2.021,2.021,0,1,0,2.022,2.021A2.021,2.021,0,0,0,164.118,35.137Zm0,5.39a2.022,2.022,0,1,0,2.022,2.023A2.022,2.022,0,0,0,164.118,40.527Zm0,5.393a2.022,2.022,0,1,0,2.022,2.021A2.021,2.021,0,0,0,164.118,45.92Zm0,5.416a2,2,0,1,0,2,2A2,2,0,0,0,164.118,51.336Zm0,5.367a2.021,2.021,0,1,0,2.022,2.021A2.021,2.021,0,0,0,164.118,56.7Zm0,5.392a2.021,2.021,0,1,0,2.022,2.022A2.022,2.022,0,0,0,164.118,62.1Zm5.392-32.351a2.022,2.022,0,1,0,2.021,2.022A2.022,2.022,0,0,0,169.51,29.744Zm0,5.393a2.021,2.021,0,1,0,2.021,2.021A2.022,2.022,0,0,0,169.51,35.137Zm0,5.39a2.022,2.022,0,1,0,2.021,2.023A2.023,2.023,0,0,0,169.51,40.527Zm0,5.393a2.022,2.022,0,1,0,2.021,2.021A2.022,2.022,0,0,0,169.51,45.92Zm0,5.391c-1.117,0-2.023,2.023-2.023,2.023s.906,2.021,2.023,2.021a2.022,2.022,0,0,0,0-4.044Zm0,5.392a2.021,2.021,0,1,0,2.021,2.021A2.022,2.022,0,0,0,169.51,56.7Zm0,5.416a2,2,0,1,0,2,2A2,2,0,0,0,169.51,62.119ZM147.942,35.137a2.021,2.021,0,1,0,2.022,2.021A2.021,2.021,0,0,0,147.942,35.137Zm0,5.84a1.573,1.573,0,1,0,1.573,1.573A1.573,1.573,0,0,0,147.942,40.977Zm-5.39-11.233a2.022,2.022,0,1,0,2.021,2.022A2.023,2.023,0,0,0,142.552,29.744Zm0,5.393a2.021,2.021,0,1,0,2.021,2.021A2.022,2.022,0,0,0,142.552,35.137Zm0,5.39a2.022,2.022,0,1,0,2.021,2.023A2.023,2.023,0,0,0,142.552,40.527Zm0,5.393a2.022,2.022,0,1,0,2.021,2.021A2.022,2.022,0,0,0,142.552,45.92Zm0,5.391a2.022,2.022,0,1,0,2.021,2.023A2.023,2.023,0,0,0,142.552,51.311Zm0,5.392a2.021,2.021,0,1,0,2.021,2.021A2.022,2.022,0,0,0,142.552,56.7Zm0,5.392a2.021,2.021,0,1,0,2.021,2.022A2.023,2.023,0,0,0,142.552,62.1Zm-5.393-32.351a2.022,2.022,0,1,0,2.022,2.022A2.022,2.022,0,0,0,137.159,29.744Zm0,5.393a2.021,2.021,0,1,0,2.022,2.021A2.021,2.021,0,0,0,137.159,35.137Zm0,5.39a2.022,2.022,0,1,0,2.022,2.023A2.022,2.022,0,0,0,137.159,40.527Zm0,5.393a2.022,2.022,0,1,0,2.022,2.021A2.021,2.021,0,0,0,137.159,45.92Zm0,5.391a2.022,2.022,0,1,0,2.022,2.023A2.022,2.022,0,0,0,137.159,51.311Zm0,5.392a2.021,2.021,0,1,0,2.022,2.021A2.021,2.021,0,0,0,137.159,56.7Zm0,5.392a2.021,2.021,0,1,0,2.022,2.022A2.022,2.022,0,0,0,137.159,62.1Zm61.855-32.351a2.022,2.022,0,1,0,2.021,2.022A2.023,2.023,0,0,0,199.014,29.744Zm5.391.45a1.573,1.573,0,1,0,1.572,1.572A1.572,1.572,0,0,0,204.4,30.194Zm0,4.943a2.021,2.021,0,1,0,2.022,2.021A2.02,2.02,0,0,0,204.4,35.137Zm0,5.39a2.022,2.022,0,1,0,2.022,2.023A2.021,2.021,0,0,0,204.4,40.527Zm0,5.393a2.022,2.022,0,1,0,2.022,2.021A2.02,2.02,0,0,0,204.4,45.92Zm0,5.841a1.572,1.572,0,1,0,1.572,1.573A1.572,1.572,0,0,0,204.4,51.761Zm-5.391-16.624a2.021,2.021,0,1,0,2.021,2.021A2.022,2.022,0,0,0,199.014,35.137Zm0,5.39a2.022,2.022,0,1,0,2.021,2.023A2.023,2.023,0,0,0,199.014,40.527Zm0,5.393a2.022,2.022,0,1,0,2.021,2.021A2.022,2.022,0,0,0,199.014,45.92Zm0,5.391a2.022,2.022,0,1,0,2.021,2.023A2.023,2.023,0,0,0,199.014,51.311Zm-5.392-21.567a2.022,2.022,0,1,0,2.021,2.022A2.022,2.022,0,0,0,193.622,29.744Zm0,21.567a2.022,2.022,0,1,0,2.021,2.023A2.022,2.022,0,0,0,193.622,51.311ZM188.23,29.744a2.022,2.022,0,1,0,2.022,2.022A2.022,2.022,0,0,0,188.23,29.744Zm0,5.393a2.021,2.021,0,1,0,2.022,2.021A2.021,2.021,0,0,0,188.23,35.137Zm0,5.39a2.022,2.022,0,1,0,2.022,2.023A2.022,2.022,0,0,0,188.23,40.527Zm0,5.393a2.022,2.022,0,1,0,2.022,2.021A2.021,2.021,0,0,0,188.23,45.92Zm0,5.391a2.022,2.022,0,1,0,2.022,2.023A2.022,2.022,0,0,0,188.23,51.311Zm0,5.392a2.021,2.021,0,1,0,2.022,2.021A2.021,2.021,0,0,0,188.23,56.7Zm0,5.392a2.021,2.021,0,1,0,2.022,2.022A2.022,2.022,0,0,0,188.23,62.1Zm-5.391-32.351a2.022,2.022,0,1,0,2.021,2.022A2.023,2.023,0,0,0,182.839,29.744Zm0,5.393a2.021,2.021,0,1,0,2.021,2.021A2.022,2.022,0,0,0,182.839,35.137Zm0,5.39a2.022,2.022,0,1,0,2.021,2.023A2.023,2.023,0,0,0,182.839,40.527Zm0,5.393a2.022,2.022,0,1,0,2.021,2.021A2.022,2.022,0,0,0,182.839,45.92Zm0,5.391a2.022,2.022,0,1,0,2.021,2.023A2.023,2.023,0,0,0,182.839,51.311Zm0,5.392a2.021,2.021,0,1,0,2.021,2.021A2.022,2.022,0,0,0,182.839,56.7Zm0,5.392a2.021,2.021,0,1,0,2.021,2.022A2.022,2.022,0,0,0,182.839,62.1Z" transform="translate(-30 -29.744)" fill="#3fa3ef"/></svg>