<svg xmlns="http://www.w3.org/2000/svg" xmlns:xlink="http://www.w3.org/1999/xlink" width="100.381" height="653" viewBox="0 0 100.381 653">
  <defs>
    <style>
      .cls-1, .cls-10, .cls-2, .cls-6, .cls-8 {
        fill: none;
      }

      .cls-1, .cls-10, .cls-2 {
        stroke: #00a99d;
        stroke-width: 2px;
      }

      .cls-1, .cls-10 {
        stroke-linecap: round;
      }

      .cls-2, .cls-6, .cls-8 {
        stroke-miterlimit: 10;
      }

      .cls-11, .cls-3 {
        fill: #00a99d;
      }

      .cls-3 {
        opacity: 0.75;
      }

      .cls-4 {
        opacity: 0.2;
        fill: url(#linear-gradient);
      }

      .cls-5 {
        fill: #fff;
      }

      .cls-6 {
        stroke: #b3b3b3;
        stroke-width: 0.838px;
      }

      .cls-7 {
        fill: #e6e6e6;
      }

      .cls-8 {
        stroke: #ccc;
      }

      .cls-9 {
        fill: #666;
      }

      .cls-10 {
        stroke-dasharray: 0 8;
      }
    </style>
    <linearGradient id="linear-gradient" y1="0.5" x2="1" y2="0.5" gradientUnits="objectBoundingBox">
      <stop offset="0" stop-opacity="0.251"/>
      <stop offset="0.045" stop-opacity="0.4"/>
      <stop offset="0.5"/>
      <stop offset="0.955" stop-opacity="0.4"/>
      <stop offset="1" stop-opacity="0.251"/>
    </linearGradient>
  </defs>
  <g id="Grupo_1619" data-name="Grupo 1619" transform="translate(2109.381 -2609)">
    <path id="Trazado_7542" data-name="Trazado 7542" class="cls-1" d="M0-23V2" transform="translate(-2059.5 2734)"/>
    <path id="Trazado_7545" data-name="Trazado 7545" class="cls-1" d="M0-23V77" transform="translate(-2059.5 2872)"/>
    <path id="Trazado_7546" data-name="Trazado 7546" class="cls-1" d="M0-23V177" transform="translate(-2059.5 3084)"/>
    <path id="Trazado_7538" data-name="Trazado 7538" class="cls-2" d="M592,706.287l6,6,6-6" transform="translate(-2657.5 2025.418)"/>
    <path id="Trazado_7544" data-name="Trazado 7544" class="cls-2" d="M592,706.287l6,6,6-6" transform="translate(-2657.5 2238.418)"/>
    <g id="Grupo_1560" data-name="Grupo 1560" transform="translate(-2269 80.659)">
      <circle id="Elipse_116" data-name="Elipse 116" class="cls-3" cx="50" cy="50" r="50" transform="translate(160 2668.341)"/>
      <g id="Grupo_1211" data-name="Grupo 1211" transform="translate(187.324 2686.971)">
        <path id="Trazado_6958" data-name="Trazado 6958" class="cls-4" d="M566.237,3521.979a187.806,187.806,0,0,1,44.311,0l-.277-55.691H565.986Z" transform="translate(-565.986 -3463.584)"/>
        <g id="Grupo_1206" data-name="Grupo 1206" transform="translate(0 2.703)">
          <path id="Trazado_6959" data-name="Trazado 6959" class="cls-5" d="M568.236,3519.978h44.311l-2.276-53.691H565.986Z" transform="translate(-565.986 -3466.287)"/>
          <g id="Grupo_1205" data-name="Grupo 1205" transform="translate(6.813 8.78)">
            <line id="Línea_857" data-name="Línea 857" class="cls-6" x2="30.007"/>
            <line id="Línea_858" data-name="Línea 858" class="cls-6" x2="30.007" transform="translate(0.936 11.733)"/>
            <line id="Línea_859" data-name="Línea 859" class="cls-6" x2="30.007" transform="translate(1.073 15.399)"/>
            <line id="Línea_860" data-name="Línea 860" class="cls-6" x2="30.007" transform="translate(1.403 22.133)"/>
            <line id="Línea_861" data-name="Línea 861" class="cls-6" x2="30.007" transform="translate(1.54 25.6)"/>
            <line id="Línea_862" data-name="Línea 862" class="cls-6" x2="30.007" transform="translate(1.871 32.133)"/>
            <line id="Línea_863" data-name="Línea 863" class="cls-6" x2="30.007" transform="translate(2.008 35.6)"/>
          </g>
        </g>
        <g id="Grupo_1210" data-name="Grupo 1210">
          <path id="Trazado_6960" data-name="Trazado 6960" class="cls-7" d="M569.482,3515.961l44.231,2.665.957-53.731-44.206-2.664Z" transform="translate(-567.151 -3462.232)"/>
          <path id="Trazado_6961" data-name="Trazado 6961" class="cls-5" d="M568.236,3519.978h44.311l-2.276-53.691H565.986Z" transform="translate(-565.986 -3463.583)"/>
          <g id="Grupo_1207" data-name="Grupo 1207" transform="translate(6.415 25.217)">
            <line id="Línea_864" data-name="Línea 864" class="cls-8" x2="32.674"/>
            <line id="Línea_865" data-name="Línea 865" class="cls-8" x2="32.674" transform="translate(0.137 2.999)"/>
            <line id="Línea_866" data-name="Línea 866" class="cls-8" x2="32.674" transform="translate(0.468 10.4)"/>
            <line id="Línea_867" data-name="Línea 867" class="cls-8" x2="32.674" transform="translate(0.605 13.2)"/>
            <line id="Línea_868" data-name="Línea 868" class="cls-8" x2="12.674" transform="translate(0.936 20.4)"/>
            <line id="Línea_869" data-name="Línea 869" class="cls-8" x2="12.674" transform="translate(1.073 23.2)"/>
            <line id="Línea_870" data-name="Línea 870" class="cls-8" x2="12.674" transform="translate(20.936 20.4)"/>
            <line id="Línea_871" data-name="Línea 871" class="cls-8" x2="12.674" transform="translate(21.073 23.2)"/>
          </g>
          <g id="Grupo_1209" data-name="Grupo 1209" transform="translate(5.582 9.519)">
            <g id="Grupo_1208" data-name="Grupo 1208">
              <path id="Trazado_6962" data-name="Trazado 6962" class="cls-9" d="M577.426,3481.174l-.287-.887a.028.028,0,0,0-.027-.02h-2.077a.025.025,0,0,0-.026.02l-.28.887a.077.077,0,0,1-.08.053h-.233c-.049,0-.067-.024-.053-.073l1.478-4.54a.077.077,0,0,1,.079-.053h.3a.077.077,0,0,1,.079.053l1.485,4.54.006.027c0,.031-.02.046-.059.046h-.227A.076.076,0,0,1,577.426,3481.174Zm-2.307-1.209a.031.031,0,0,0,.023.009h1.864a.033.033,0,0,0,.023-.009.018.018,0,0,0,0-.023l-.939-2.9a.022.022,0,0,0-.04,0l-.939,2.9A.018.018,0,0,0,575.119,3479.965Z" transform="translate(-574.359 -3476.528)"/>
              <path id="Trazado_6963" data-name="Trazado 6963" class="cls-9" d="M580.886,3481.661a1.187,1.187,0,0,1-.443-.66,3.261,3.261,0,0,1-.087-.833,3.331,3.331,0,0,1,.087-.826,1.15,1.15,0,0,1,.439-.654,1.317,1.317,0,0,1,.805-.247,1.387,1.387,0,0,1,.816.24,1.045,1.045,0,0,1,.435.6,1.464,1.464,0,0,1,.041.187v.014c0,.031-.021.05-.06.06l-.213.026h-.013c-.031,0-.051-.021-.06-.06l-.02-.094a.784.784,0,0,0-.313-.47,1,1,0,0,0-.613-.19.951.951,0,0,0-.609.193.858.858,0,0,0-.309.513,3.274,3.274,0,0,0-.06.714,3.118,3.118,0,0,0,.06.706.864.864,0,0,0,.309.521.951.951,0,0,0,.609.193,1,1,0,0,0,.616-.191.751.751,0,0,0,.309-.476l.007-.034c.008-.049.035-.069.079-.06l.206.033c.045.009.065.034.06.073l-.027.12a1.024,1.024,0,0,1-.435.61,1.4,1.4,0,0,1-.816.237A1.3,1.3,0,0,1,580.886,3481.661Z" transform="translate(-576.358 -3477.154)"/>
              <path id="Trazado_6964" data-name="Trazado 6964" class="cls-9" d="M587.294,3481.451a.971.971,0,0,0,.349-.4c.022-.04.051-.051.087-.034l.173.087c.04.022.051.051.033.086a1.147,1.147,0,0,1-.463.52,1.387,1.387,0,0,1-.742.193,1.351,1.351,0,0,1-.792-.227,1.132,1.132,0,0,1-.446-.62,1.793,1.793,0,0,1-.073-.373q-.02-.207-.02-.52c0-.217,0-.382.01-.493a1.819,1.819,0,0,1,.043-.308,1.2,1.2,0,0,1,.436-.673,1.451,1.451,0,0,1,1.681.03,1.259,1.259,0,0,1,.405.784,2.337,2.337,0,0,1,.027.3c0,.113.007.254.007.423a.059.059,0,0,1-.067.066h-2.17a.023.023,0,0,0-.027.027,3.052,3.052,0,0,0,.033.566.854.854,0,0,0,.33.517,1.057,1.057,0,0,0,.649.191A.972.972,0,0,0,587.294,3481.451Zm-1.547-1.483c0,.018.008.027.027.027h1.857a.024.024,0,0,0,.027-.027,2.787,2.787,0,0,0-.033-.5.9.9,0,0,0-.319-.517,1.036,1.036,0,0,0-1.205-.007.845.845,0,0,0-.307.5A2.875,2.875,0,0,0,585.747,3479.968Z" transform="translate(-578.039 -3477.154)"/>
              <path id="Trazado_6965" data-name="Trazado 6965" class="cls-9" d="M593.363,3479.671q.013.19.013.5c0,.2,0,.371-.013.5a1.866,1.866,0,0,1-.053.344,1.135,1.135,0,0,1-.417.656,1.242,1.242,0,0,1-.781.243,1.149,1.149,0,0,1-.523-.116.938.938,0,0,1-.369-.337c-.009-.009-.017-.013-.023-.011s-.011.011-.011.023v1.627a.058.058,0,0,1-.067.066H590.9a.059.059,0,0,1-.067-.066v-4.534a.059.059,0,0,1,.067-.066h.219a.059.059,0,0,1,.067.066v.32c0,.013,0,.021.011.023s.014,0,.023-.01a.927.927,0,0,1,.369-.337,1.149,1.149,0,0,1,.523-.117,1.22,1.22,0,0,1,.765.24,1.2,1.2,0,0,1,.426.646A1.539,1.539,0,0,1,593.363,3479.671Zm-.433,1.284a1,1,0,0,0,.073-.28,6.309,6.309,0,0,0,0-1,1.461,1.461,0,0,0-.067-.29.766.766,0,0,0-.3-.453.909.909,0,0,0-.559-.174.786.786,0,0,0-.523.177.868.868,0,0,0-.283.45,1.233,1.233,0,0,0-.067.28,6.594,6.594,0,0,0,0,1.027,1.519,1.519,0,0,0,.067.294.836.836,0,0,0,.283.443.8.8,0,0,0,.523.17.886.886,0,0,0,.526-.157.776.776,0,0,0,.3-.41Z" transform="translate(-579.85 -3477.154)"/>
              <path id="Trazado_6966" data-name="Trazado 6966" class="cls-9" d="M597.3,3478.394h-.779c-.018,0-.026.01-.026.027v2.107a.615.615,0,0,0,.153.476.728.728,0,0,0,.492.137h.154a.059.059,0,0,1,.067.066v.181a.059.059,0,0,1-.067.066l-.2.007a1.15,1.15,0,0,1-.7-.18.8.8,0,0,1-.243-.66v-2.2a.024.024,0,0,0-.027-.027h-.4a.059.059,0,0,1-.067-.066v-.167a.059.059,0,0,1,.067-.067h.4a.024.024,0,0,0,.027-.027v-.759a.059.059,0,0,1,.067-.067h.213a.06.06,0,0,1,.067.067v.759c0,.018.008.027.026.027h.779a.059.059,0,0,1,.066.067v.167A.058.058,0,0,1,597.3,3478.394Z" transform="translate(-581.458 -3476.754)"/>
              <path id="Trazado_6967" data-name="Trazado 6967" class="cls-9" d="M601.5,3478.745a1.1,1.1,0,0,1,.306.816v2.228a.059.059,0,0,1-.067.066h-.22a.058.058,0,0,1-.066-.066v-.314a.021.021,0,0,0-.01-.02c-.007,0-.015,0-.023.006a1.077,1.077,0,0,1-.449.333,1.6,1.6,0,0,1-.616.113,1.287,1.287,0,0,1-.779-.232.828.828,0,0,1-.319-.714.937.937,0,0,1,.365-.78,1.592,1.592,0,0,1,1.005-.287h.8a.024.024,0,0,0,.027-.027v-.3a.825.825,0,0,0-.21-.594.849.849,0,0,0-.643-.22,1.024,1.024,0,0,0-.559.14.588.588,0,0,0-.273.373c-.013.045-.039.065-.08.06l-.233-.033c-.049-.009-.068-.027-.059-.053a.844.844,0,0,1,.389-.58,1.452,1.452,0,0,1,.822-.22A1.216,1.216,0,0,1,601.5,3478.745Zm-.356,2.65a.652.652,0,0,0,.309-.573v-.607a.024.024,0,0,0-.027-.026h-.765a1.319,1.319,0,0,0-.763.2.636.636,0,0,0-.289.553.573.573,0,0,0,.226.494.948.948,0,0,0,.579.167A1.285,1.285,0,0,0,601.14,3481.395Z" transform="translate(-582.657 -3477.154)"/>
              <path id="Trazado_6968" data-name="Trazado 6968" class="cls-9" d="M604.923,3481.661a1.187,1.187,0,0,1-.443-.66,3.261,3.261,0,0,1-.087-.833,3.331,3.331,0,0,1,.087-.826,1.153,1.153,0,0,1,.439-.654,1.317,1.317,0,0,1,.805-.247,1.387,1.387,0,0,1,.816.24,1.045,1.045,0,0,1,.435.6,1.348,1.348,0,0,1,.041.187v.014c0,.031-.021.05-.06.06l-.213.026h-.014c-.031,0-.051-.021-.06-.06l-.02-.094a.784.784,0,0,0-.313-.47,1,1,0,0,0-.613-.19.951.951,0,0,0-.609.193.858.858,0,0,0-.309.513,3.274,3.274,0,0,0-.06.714,3.118,3.118,0,0,0,.06.706.864.864,0,0,0,.309.521.951.951,0,0,0,.609.193,1,1,0,0,0,.616-.191.751.751,0,0,0,.309-.476l.007-.034c.008-.049.035-.069.079-.06l.206.033c.045.009.065.034.06.073l-.027.12a1.024,1.024,0,0,1-.435.61,1.4,1.4,0,0,1-.816.237A1.3,1.3,0,0,1,604.923,3481.661Z" transform="translate(-584.371 -3477.154)"/>
              <path id="Trazado_6969" data-name="Trazado 6969" class="cls-9" d="M609.621,3477.084a.339.339,0,0,1,.479-.48.355.355,0,0,1,0,.48.354.354,0,0,1-.479,0Zm.046,4.053v-3.227a.059.059,0,0,1,.067-.067h.219a.059.059,0,0,1,.066.067v3.227a.059.059,0,0,1-.066.067h-.219A.059.059,0,0,1,609.667,3481.138Z" transform="translate(-586.082 -3476.511)"/>
              <path id="Trazado_6970" data-name="Trazado 6970" class="cls-9" d="M612.431,3481.034a1.218,1.218,0,0,1-.453-.66,3.451,3.451,0,0,1-.073-.833,3.355,3.355,0,0,1,.073-.826,1.212,1.212,0,0,1,.45-.657,1.447,1.447,0,0,1,1.611,0,1.178,1.178,0,0,1,.449.654,1.862,1.862,0,0,1,.053.343q.014.19.014.483t-.014.493a1.854,1.854,0,0,1-.053.34,1.178,1.178,0,0,1-.449.66,1.325,1.325,0,0,1-.809.247A1.3,1.3,0,0,1,612.431,3481.034Zm1.4-.263a.89.89,0,0,0,.323-.517,3.388,3.388,0,0,0,.047-.706,3.913,3.913,0,0,0-.04-.708.881.881,0,0,0-.323-.52.965.965,0,0,0-.609-.193.955.955,0,0,0-.606.193.885.885,0,0,0-.319.52,5.373,5.373,0,0,0,0,1.414.887.887,0,0,0,.319.521,1.034,1.034,0,0,0,1.209,0Zm-.849-3.374a.054.054,0,0,1,.007-.057l.405-.732a.08.08,0,0,1,.08-.047h.193a.058.058,0,0,1,.054.023.056.056,0,0,1-.007.057l-.446.733a.1.1,0,0,1-.08.046h-.153A.056.056,0,0,1,612.983,3477.4Z" transform="translate(-586.874 -3476.528)"/>
              <path id="Trazado_6971" data-name="Trazado 6971" class="cls-9" d="M619.445,3478.765a1.111,1.111,0,0,1,.316.826v2.2a.059.059,0,0,1-.067.066h-.219a.058.058,0,0,1-.067-.066v-2.134a.889.889,0,0,0-.24-.643.827.827,0,0,0-.625-.25.88.88,0,0,0-.646.242.857.857,0,0,0-.246.637v2.147a.059.059,0,0,1-.067.066h-.219a.058.058,0,0,1-.066-.066v-3.227a.059.059,0,0,1,.066-.067h.219a.059.059,0,0,1,.067.067v.327c0,.014,0,.021.009.023s.013,0,.017-.009a.944.944,0,0,1,.386-.337,1.234,1.234,0,0,1,.552-.117A1.125,1.125,0,0,1,619.445,3478.765Z" transform="translate(-588.672 -3477.158)"/>
              <path id="Trazado_6972" data-name="Trazado 6972" class="cls-9" d="M576.958,3486.561h.22a.059.059,0,0,1,.067.067v4.534a.059.059,0,0,1-.067.066h-.22a.058.058,0,0,1-.066-.066v-.327c0-.013,0-.021-.011-.023s-.014,0-.023.01a.946.946,0,0,1-.372.341,1.142,1.142,0,0,1-.527.12,1.219,1.219,0,0,1-.765-.24,1.19,1.19,0,0,1-.426-.646,1.53,1.53,0,0,1-.06-.343c-.009-.127-.013-.293-.013-.5s0-.364.013-.493a1.869,1.869,0,0,1,.053-.346,1.141,1.141,0,0,1,.416-.657,1.247,1.247,0,0,1,.782-.243,1.142,1.142,0,0,1,.527.12.946.946,0,0,1,.372.341c0,.012.011.019.02.016s.014-.01.014-.023v-1.64A.059.059,0,0,1,576.958,3486.561Zm-.089,3.493q.016-.16.016-.5a4.976,4.976,0,0,0-.019-.517,1.46,1.46,0,0,0-.067-.3.829.829,0,0,0-.283-.443.791.791,0,0,0-.516-.171.873.873,0,0,0-.539.171.832.832,0,0,0-.306.436,1.02,1.02,0,0,0-.083.291,4.167,4.167,0,0,0-.023.523,4.266,4.266,0,0,0,.021.5,1.36,1.36,0,0,0,.066.289.771.771,0,0,0,.3.453.91.91,0,0,0,.559.174.792.792,0,0,0,.523-.174.886.886,0,0,0,.29-.453A1.215,1.215,0,0,0,576.869,3490.054Z" transform="translate(-574.471 -3479.861)"/>
              <path id="Trazado_6973" data-name="Trazado 6973" class="cls-9" d="M581.892,3491.451a.976.976,0,0,0,.349-.4c.022-.04.051-.051.087-.033l.173.086c.039.022.051.052.033.087a1.15,1.15,0,0,1-.463.52,1.387,1.387,0,0,1-.742.193,1.353,1.353,0,0,1-.793-.227,1.136,1.136,0,0,1-.446-.62,1.844,1.844,0,0,1-.073-.374c-.014-.138-.02-.311-.02-.52s0-.382.009-.493a1.874,1.874,0,0,1,.044-.307,1.191,1.191,0,0,1,.436-.673,1.452,1.452,0,0,1,1.681.03,1.26,1.26,0,0,1,.405.784,2.443,2.443,0,0,1,.027.3c0,.113.007.255.007.423a.059.059,0,0,1-.067.067h-2.17a.024.024,0,0,0-.027.026,3.044,3.044,0,0,0,.033.567.852.852,0,0,0,.329.517,1.062,1.062,0,0,0,.649.191A.973.973,0,0,0,581.892,3491.451Zm-1.548-1.483a.023.023,0,0,0,.027.026h1.857a.023.023,0,0,0,.027-.026,2.794,2.794,0,0,0-.033-.5.9.9,0,0,0-.32-.517,1.035,1.035,0,0,0-1.2-.007.84.84,0,0,0-.307.5A2.862,2.862,0,0,0,580.344,3489.968Z" transform="translate(-576.239 -3480.488)"/>
              <path id="Trazado_6974" data-name="Trazado 6974" class="cls-9" d="M587.248,3491.162v-4.534a.059.059,0,0,1,.066-.067h.219a.059.059,0,0,1,.067.067v4.534a.059.059,0,0,1-.067.066h-.219A.058.058,0,0,1,587.248,3491.162Z" transform="translate(-578.655 -3479.861)"/>
              <path id="Trazado_6975" data-name="Trazado 6975" class="cls-9" d="M591.289,3488.744a1.1,1.1,0,0,1,.306.817v2.227a.059.059,0,0,1-.067.066h-.22a.059.059,0,0,1-.067-.066v-.314a.02.02,0,0,0-.009-.019c-.007,0-.015,0-.023.006a1.086,1.086,0,0,1-.449.333,1.61,1.61,0,0,1-.616.113,1.287,1.287,0,0,1-.779-.233.827.827,0,0,1-.319-.714.937.937,0,0,1,.365-.78,1.592,1.592,0,0,1,1.005-.287h.8a.024.024,0,0,0,.027-.027v-.3a.826.826,0,0,0-.209-.594.851.851,0,0,0-.643-.22,1.02,1.02,0,0,0-.559.14.588.588,0,0,0-.273.373c-.013.045-.039.065-.08.06l-.233-.033c-.049-.009-.068-.027-.059-.053a.844.844,0,0,1,.389-.58,1.448,1.448,0,0,1,.822-.22A1.216,1.216,0,0,1,591.289,3488.744Zm-.356,2.65a.653.653,0,0,0,.309-.574v-.606a.024.024,0,0,0-.027-.027h-.765a1.318,1.318,0,0,0-.763.2.636.636,0,0,0-.289.553.572.572,0,0,0,.226.493.949.949,0,0,0,.579.167A1.285,1.285,0,0,0,590.933,3491.395Z" transform="translate(-579.255 -3480.488)"/>
              <path id="Trazado_6976" data-name="Trazado 6976" class="cls-9" d="M596.611,3491.661a1.219,1.219,0,0,1-.453-.66,3.451,3.451,0,0,1-.073-.833,3.351,3.351,0,0,1,.073-.826,1.213,1.213,0,0,1,.45-.658,1.447,1.447,0,0,1,1.611,0,1.185,1.185,0,0,1,.449.654,1.856,1.856,0,0,1,.053.342q.013.19.013.483c0,.2,0,.37-.013.494a1.855,1.855,0,0,1-.053.34,1.182,1.182,0,0,1-.449.66,1.328,1.328,0,0,1-.809.247A1.3,1.3,0,0,1,596.611,3491.661Zm1.4-.263a.9.9,0,0,0,.323-.518,3.383,3.383,0,0,0,.047-.706,3.88,3.88,0,0,0-.041-.707.876.876,0,0,0-.323-.52.963.963,0,0,0-.609-.193.951.951,0,0,0-.606.193.888.888,0,0,0-.32.52,5.454,5.454,0,0,0,0,1.413.891.891,0,0,0,.32.521,1.033,1.033,0,0,0,1.208,0Z" transform="translate(-581.601 -3480.488)"/>
              <path id="Trazado_6977" data-name="Trazado 6977" class="cls-9" d="M602.017,3487.061a1,1,0,0,0-.143.607v.173a.024.024,0,0,0,.027.027h.779a.059.059,0,0,1,.067.067v.193a.059.059,0,0,1-.067.067H601.9a.024.024,0,0,0-.027.027v2.94a.059.059,0,0,1-.067.066h-.22a.058.058,0,0,1-.066-.066v-2.94a.024.024,0,0,0-.027-.027h-.439a.059.059,0,0,1-.067-.067v-.193a.059.059,0,0,1,.067-.067h.439a.024.024,0,0,0,.027-.027v-.187a1.785,1.785,0,0,1,.09-.626.649.649,0,0,1,.307-.35,1.3,1.3,0,0,1,.609-.117h.173a.059.059,0,0,1,.067.067v.18a.059.059,0,0,1-.067.067h-.146A.643.643,0,0,0,602.017,3487.061Z" transform="translate(-583.235 -3479.861)"/>
              <path id="Trazado_6978" data-name="Trazado 6978" class="cls-9" d="M606.108,3491.451a.973.973,0,0,0,.35-.4c.022-.04.051-.051.087-.033l.173.086c.04.022.051.052.033.087a1.151,1.151,0,0,1-.463.52,1.391,1.391,0,0,1-.742.193,1.353,1.353,0,0,1-.793-.227,1.137,1.137,0,0,1-.446-.62,1.76,1.76,0,0,1-.073-.374c-.014-.138-.02-.311-.02-.52s0-.382.009-.493a1.8,1.8,0,0,1,.044-.307,1.191,1.191,0,0,1,.436-.673,1.451,1.451,0,0,1,1.681.03,1.258,1.258,0,0,1,.406.784,2.456,2.456,0,0,1,.027.3c0,.113.007.255.007.423a.06.06,0,0,1-.067.067h-2.17a.024.024,0,0,0-.027.026,3.039,3.039,0,0,0,.033.567.851.851,0,0,0,.329.517,1.062,1.062,0,0,0,.649.191A.969.969,0,0,0,606.108,3491.451Zm-1.547-1.483a.023.023,0,0,0,.027.026h1.857a.023.023,0,0,0,.027-.026,2.725,2.725,0,0,0-.033-.5.9.9,0,0,0-.319-.517,1.036,1.036,0,0,0-1.205-.007.846.846,0,0,0-.307.5A2.949,2.949,0,0,0,604.561,3489.968Z" transform="translate(-584.311 -3480.488)"/>
              <path id="Trazado_6979" data-name="Trazado 6979" class="cls-9" d="M611.219,3488.561a.067.067,0,0,1,.039.087l-.06.213c-.013.044-.042.058-.087.04a.821.821,0,0,0-.333-.046.8.8,0,0,0-.615.284.983.983,0,0,0-.243.676v1.987a.059.059,0,0,1-.067.066h-.219a.059.059,0,0,1-.067-.066v-3.227a.059.059,0,0,1,.067-.067h.219a.059.059,0,0,1,.067.067v.453c0,.013,0,.021.01.024s.013,0,.017-.017a1.1,1.1,0,0,1,.363-.407.927.927,0,0,1,.523-.147A.862.862,0,0,1,611.219,3488.561Z" transform="translate(-586.095 -3480.501)"/>
              <path id="Trazado_6980" data-name="Trazado 6980" class="cls-9" d="M614.387,3488.395h-.779a.023.023,0,0,0-.026.026v2.107a.616.616,0,0,0,.153.476.727.727,0,0,0,.492.137h.154a.058.058,0,0,1,.066.066v.181a.058.058,0,0,1-.066.066l-.2.006a1.153,1.153,0,0,1-.7-.18.8.8,0,0,1-.243-.66v-2.2a.024.024,0,0,0-.027-.026h-.4a.059.059,0,0,1-.066-.067v-.167a.059.059,0,0,1,.066-.067h.4a.023.023,0,0,0,.027-.026v-.759a.059.059,0,0,1,.067-.067h.213a.06.06,0,0,1,.067.067v.759c0,.018.008.026.026.026h.779a.059.059,0,0,1,.066.067v.167A.059.059,0,0,1,614.387,3488.395Z" transform="translate(-587.153 -3480.088)"/>
              <path id="Trazado_6981" data-name="Trazado 6981" class="cls-9" d="M618.581,3488.744a1.1,1.1,0,0,1,.306.817v2.227a.059.059,0,0,1-.067.066h-.22a.059.059,0,0,1-.067-.066v-.314a.02.02,0,0,0-.009-.019c-.007,0-.015,0-.023.006a1.086,1.086,0,0,1-.449.333,1.61,1.61,0,0,1-.616.113,1.287,1.287,0,0,1-.779-.233.827.827,0,0,1-.319-.714.937.937,0,0,1,.365-.78,1.592,1.592,0,0,1,1.005-.287h.8a.024.024,0,0,0,.027-.027v-.3a.826.826,0,0,0-.209-.594.851.851,0,0,0-.643-.22,1.02,1.02,0,0,0-.559.14.588.588,0,0,0-.273.373c-.013.045-.039.065-.08.06l-.233-.033c-.049-.009-.068-.027-.059-.053a.844.844,0,0,1,.389-.58,1.448,1.448,0,0,1,.822-.22A1.216,1.216,0,0,1,618.581,3488.744Zm-.356,2.65a.653.653,0,0,0,.309-.574v-.606a.024.024,0,0,0-.027-.027h-.765a1.318,1.318,0,0,0-.763.2.636.636,0,0,0-.289.553.572.572,0,0,0,.226.493.949.949,0,0,0,.579.167A1.285,1.285,0,0,0,618.225,3491.395Z" transform="translate(-588.352 -3480.488)"/>
            </g>
          </g>
        </g>
      </g>
    </g>
    <path id="Trazado_7613" data-name="Trazado 7613" class="cls-10" d="M10,0H80A10,10,0,0,1,90,10V40A10,10,0,0,1,80,50H10A10,10,0,0,1,0,40V10A10,10,0,0,1,10,0Z" transform="translate(-2104 2660.659)"/>
    <path id="Trazado_7543" data-name="Trazado 7543" class="cls-1" d="M0-23V27" transform="translate(-2059 2633)"/>
    <g id="Grupo_1562" data-name="Grupo 1562" transform="translate(-2292 1379.659)">
      <rect id="Rectángulo_357" data-name="Rectángulo 357" class="cls-11" width="30" height="30" transform="translate(237.922 1290.273)"/>
      <g id="Grupo_1059" data-name="Grupo 1059" transform="translate(242.511 1293.631)">
        <path id="Trazado_5590" data-name="Trazado 5590" class="cls-5" d="M725.6,1239.218l.033,5.159a19.286,19.286,0,0,1-.113,2.112,11.18,11.18,0,0,1-.4,1.983l.451.419.033,12.252-4.771-.226v-21.7Zm5.287,6.223q3.161,0,4.53,1.918t1.371,6.336a15.9,15.9,0,0,1-.338,3.385,6.9,6.9,0,0,1-1.194,2.692,5.5,5.5,0,0,1-2.369,1.773,10.386,10.386,0,0,1-3.934.629q-.838,0-1.935-.081t-2.241-.226a21.365,21.365,0,0,1-2.177-.387,10.447,10.447,0,0,1-1.772-.564l3.8-2.741a12.377,12.377,0,0,0,1.354.339,12.586,12.586,0,0,0,2.87.21,3.344,3.344,0,0,0,1.758-.468,2.5,2.5,0,0,0,.951-1.515,12.222,12.222,0,0,0,.29-3.015,12.09,12.09,0,0,0-.243-2.756,2.166,2.166,0,0,0-.87-1.387,3.257,3.257,0,0,0-1.758-.4,4.139,4.139,0,0,0-1.934.451,17.814,17.814,0,0,0-1.934,1.193l-.355-2.257a12.832,12.832,0,0,1,1.806-1.612,8.384,8.384,0,0,1,2.064-1.112A6.491,6.491,0,0,1,730.89,1245.441Z" transform="translate(-720.832 -1239.218)"/>
      </g>
      <rect id="Rectángulo_360" data-name="Rectángulo 360" class="cls-11" width="30" height="30" transform="translate(197.619 1290.273)"/>
      <g id="Grupo_1063" data-name="Grupo 1063" transform="translate(201.465 1299.854)">
        <path id="Trazado_5592" data-name="Trazado 5592" class="cls-5" d="M733.172,1151.027l-.033,2.676-7.094.033a1.585,1.585,0,0,0-1.241.419,1.642,1.642,0,0,0-.37,1.128v.774a1.641,1.641,0,0,0,.451,1.241,2.036,2.036,0,0,0,1.451.435,5.389,5.389,0,0,0,1.821-.355,9.009,9.009,0,0,0,1.951-1,8.24,8.24,0,0,0,1.708-1.515v2.063a12.6,12.6,0,0,1-.854,1.209,8.593,8.593,0,0,1-1.434,1.419,8.479,8.479,0,0,1-2.032,1.178,6.838,6.838,0,0,1-2.644.483,6.385,6.385,0,0,1-2.612-.516,4.251,4.251,0,0,1-1.836-1.516,4.325,4.325,0,0,1-.679-2.482v-1.645a3.633,3.633,0,0,1,1.291-2.966,5.409,5.409,0,0,1,3.546-1.064Zm-4.256-6.545a9.487,9.487,0,0,1,3.385.532,4.012,4.012,0,0,1,2.112,1.806,7.1,7.1,0,0,1,.726,3.5v10.511h-3.805l-.676-3.45-.323-.484v-6.61a2.2,2.2,0,0,0-.533-1.644,2.929,2.929,0,0,0-2.015-.517q-1.224,0-3.062.081t-3.774.209l-.451-3.16q1.161-.225,2.676-.387t3.031-.274Q727.723,1144.483,728.917,1144.482Z" transform="translate(-719.726 -1144.482)"/>
      </g>
    </g>
    <g id="Grupo_1567" data-name="Grupo 1567" transform="translate(-2368 86.659)">
      <circle id="Elipse_153" data-name="Elipse 153" class="cls-3" cx="50" cy="50" r="50" transform="translate(258.619 2874.341)"/>
      <g id="Grupo_1566" data-name="Grupo 1566" transform="translate(285.943 2892.971)">
        <path id="Trazado_6982" data-name="Trazado 6982" class="cls-4" d="M566.237,3881.979a187.806,187.806,0,0,1,44.311,0l-.277-55.691H565.986Z" transform="translate(-565.986 -3823.584)"/>
        <g id="Grupo_1213" data-name="Grupo 1213" transform="translate(0 2.703)">
          <path id="Trazado_6983" data-name="Trazado 6983" class="cls-5" d="M568.236,3879.978h44.311l-2.276-53.691H565.986Z" transform="translate(-565.986 -3826.287)"/>
          <g id="Grupo_1212" data-name="Grupo 1212" transform="translate(6.813 8.78)">
            <line id="Línea_872" data-name="Línea 872" class="cls-6" x2="30.007"/>
            <line id="Línea_873" data-name="Línea 873" class="cls-6" x2="30.007" transform="translate(0.936 11.733)"/>
            <line id="Línea_874" data-name="Línea 874" class="cls-6" x2="30.007" transform="translate(1.073 15.399)"/>
            <line id="Línea_875" data-name="Línea 875" class="cls-6" x2="30.007" transform="translate(1.403 22.133)"/>
            <line id="Línea_876" data-name="Línea 876" class="cls-6" x2="30.007" transform="translate(1.54 25.6)"/>
            <line id="Línea_877" data-name="Línea 877" class="cls-6" x2="30.007" transform="translate(1.871 32.133)"/>
            <line id="Línea_878" data-name="Línea 878" class="cls-6" x2="30.007" transform="translate(2.008 35.6)"/>
          </g>
        </g>
        <g id="Grupo_1217" data-name="Grupo 1217">
          <path id="Trazado_6984" data-name="Trazado 6984" class="cls-7" d="M569.482,3875.961l44.231,2.665.957-53.731-44.206-2.664Z" transform="translate(-567.151 -3822.232)"/>
          <path id="Trazado_6985" data-name="Trazado 6985" class="cls-5" d="M568.236,3879.978h44.311l-2.276-53.691H565.986Z" transform="translate(-565.986 -3823.583)"/>
          <g id="Grupo_1214" data-name="Grupo 1214" transform="translate(6.415 25.217)">
            <line id="Línea_879" data-name="Línea 879" class="cls-8" x2="32.674"/>
            <line id="Línea_880" data-name="Línea 880" class="cls-8" x2="32.674" transform="translate(0.137 2.999)"/>
            <line id="Línea_881" data-name="Línea 881" class="cls-8" x2="32.674" transform="translate(0.468 10.4)"/>
            <line id="Línea_882" data-name="Línea 882" class="cls-8" x2="32.674" transform="translate(0.605 13.2)"/>
            <line id="Línea_883" data-name="Línea 883" class="cls-8" x2="12.674" transform="translate(0.936 20.4)"/>
            <line id="Línea_884" data-name="Línea 884" class="cls-8" x2="12.674" transform="translate(1.073 23.2)"/>
            <line id="Línea_885" data-name="Línea 885" class="cls-8" x2="12.674" transform="translate(20.936 20.4)"/>
            <line id="Línea_886" data-name="Línea 886" class="cls-8" x2="12.674" transform="translate(21.073 23.2)"/>
          </g>
          <g id="Grupo_1216" data-name="Grupo 1216" transform="translate(5.806 9.519)">
            <g id="Grupo_1215" data-name="Grupo 1215">
              <path id="Trazado_6986" data-name="Trazado 6986" class="cls-9" d="M578.114,3836.561h.225a.059.059,0,0,1,.067.066v4.534a.059.059,0,0,1-.067.066h-.219a.058.058,0,0,1-.066-.066v-3.913c0-.014,0-.022-.014-.024s-.015,0-.02.017l-1.171,1.813a.1.1,0,0,1-.08.047h-.113a.1.1,0,0,1-.08-.047l-1.185-1.806c0-.014-.011-.018-.021-.014a.029.029,0,0,0-.013.027v3.9a.058.058,0,0,1-.067.066h-.22a.058.058,0,0,1-.066-.066v-4.534a.058.058,0,0,1,.066-.066h.233a.1.1,0,0,1,.08.047l1.3,2a.03.03,0,0,0,.02.006.029.029,0,0,0,.02-.006l1.3-2A.1.1,0,0,1,578.114,3836.561Z" transform="translate(-574.798 -3836.528)"/>
              <path id="Trazado_6987" data-name="Trazado 6987" class="cls-9" d="M582.262,3841.661a1.217,1.217,0,0,1-.453-.66,3.444,3.444,0,0,1-.073-.833,3.355,3.355,0,0,1,.073-.826,1.212,1.212,0,0,1,.45-.657,1.444,1.444,0,0,1,1.611,0,1.178,1.178,0,0,1,.449.654,1.855,1.855,0,0,1,.053.343c.009.126.014.288.014.483s0,.369-.014.493a1.855,1.855,0,0,1-.053.34,1.177,1.177,0,0,1-.449.66,1.328,1.328,0,0,1-.809.247A1.3,1.3,0,0,1,582.262,3841.661Zm1.4-.263a.889.889,0,0,0,.323-.517,3.39,3.39,0,0,0,.047-.706,3.911,3.911,0,0,0-.04-.708.878.878,0,0,0-.323-.52.965.965,0,0,0-.609-.193.954.954,0,0,0-.606.193.885.885,0,0,0-.319.52,5.373,5.373,0,0,0,0,1.414.886.886,0,0,0,.319.521.954.954,0,0,0,.606.193A.945.945,0,0,0,583.663,3841.4Z" transform="translate(-577.042 -3837.154)"/>
              <path id="Trazado_6988" data-name="Trazado 6988" class="cls-9" d="M589.291,3836.561h.22a.059.059,0,0,1,.067.066v4.534a.059.059,0,0,1-.067.066h-.22a.058.058,0,0,1-.066-.066v-.327c0-.014,0-.021-.011-.023s-.014,0-.023.01a.948.948,0,0,1-.372.341,1.142,1.142,0,0,1-.527.12,1.219,1.219,0,0,1-.765-.24,1.189,1.189,0,0,1-.426-.646,1.526,1.526,0,0,1-.06-.343c-.009-.127-.013-.293-.013-.5s0-.364.013-.493a1.873,1.873,0,0,1,.053-.346,1.14,1.14,0,0,1,.416-.657,1.246,1.246,0,0,1,.782-.243,1.142,1.142,0,0,1,.527.12.943.943,0,0,1,.372.34c0,.013.011.019.02.016s.014-.01.014-.023v-1.64A.058.058,0,0,1,589.291,3836.561Zm-.089,3.493q.016-.16.016-.5a4.953,4.953,0,0,0-.019-.517,1.46,1.46,0,0,0-.067-.3.828.828,0,0,0-.283-.443.791.791,0,0,0-.516-.171.873.873,0,0,0-.539.171.83.83,0,0,0-.306.436,1.017,1.017,0,0,0-.083.291,4.175,4.175,0,0,0-.023.523,4.283,4.283,0,0,0,.021.5,1.354,1.354,0,0,0,.066.289.771.771,0,0,0,.3.454.912.912,0,0,0,.559.174.793.793,0,0,0,.523-.174.885.885,0,0,0,.29-.454A1.206,1.206,0,0,0,589.2,3840.054Z" transform="translate(-578.806 -3836.528)"/>
              <path id="Trazado_6989" data-name="Trazado 6989" class="cls-9" d="M594.375,3838.745a1.1,1.1,0,0,1,.306.816v2.228a.059.059,0,0,1-.067.066h-.22a.059.059,0,0,1-.067-.066v-.314a.02.02,0,0,0-.009-.02c-.007,0-.015,0-.023.006a1.077,1.077,0,0,1-.449.333,1.6,1.6,0,0,1-.616.113,1.287,1.287,0,0,1-.779-.232.828.828,0,0,1-.319-.714.938.938,0,0,1,.365-.78,1.591,1.591,0,0,1,1.005-.287h.8a.024.024,0,0,0,.027-.027v-.3a.825.825,0,0,0-.209-.594.849.849,0,0,0-.643-.22,1.024,1.024,0,0,0-.559.14.588.588,0,0,0-.273.373q-.02.067-.08.06l-.233-.033c-.049-.009-.068-.027-.06-.053a.848.848,0,0,1,.389-.58,1.455,1.455,0,0,1,.823-.22A1.216,1.216,0,0,1,594.375,3838.745Zm-.356,2.65a.652.652,0,0,0,.309-.573v-.607a.024.024,0,0,0-.027-.026h-.765a1.318,1.318,0,0,0-.763.2.636.636,0,0,0-.289.553.573.573,0,0,0,.226.494.948.948,0,0,0,.579.167A1.285,1.285,0,0,0,594.019,3841.395Z" transform="translate(-580.507 -3837.154)"/>
              <path id="Trazado_6990" data-name="Trazado 6990" class="cls-9" d="M597.444,3841.162v-4.534a.059.059,0,0,1,.067-.066h.219a.059.059,0,0,1,.067.066v4.534a.059.059,0,0,1-.067.066h-.219A.059.059,0,0,1,597.444,3841.162Z" transform="translate(-582.278 -3836.528)"/>
              <path id="Trazado_6991" data-name="Trazado 6991" class="cls-9" d="M599.6,3837.084a.355.355,0,1,1,.239.093A.323.323,0,0,1,599.6,3837.084Zm.046,4.053v-3.227a.06.06,0,0,1,.067-.067h.219a.059.059,0,0,1,.067.067v3.227a.059.059,0,0,1-.067.067h-.219A.059.059,0,0,1,599.65,3841.138Z" transform="translate(-582.967 -3836.511)"/>
              <path id="Trazado_6992" data-name="Trazado 6992" class="cls-9" d="M604.161,3836.561h.219a.059.059,0,0,1,.067.066v4.534a.059.059,0,0,1-.067.066h-.219a.058.058,0,0,1-.067-.066v-.327c0-.014,0-.021-.011-.023s-.014,0-.023.01a.944.944,0,0,1-.372.341,1.139,1.139,0,0,1-.526.12,1.219,1.219,0,0,1-.766-.24,1.19,1.19,0,0,1-.426-.646,1.568,1.568,0,0,1-.06-.343c-.009-.127-.013-.293-.013-.5s0-.364.013-.493a1.868,1.868,0,0,1,.053-.346,1.14,1.14,0,0,1,.416-.657,1.246,1.246,0,0,1,.783-.243,1.139,1.139,0,0,1,.526.12.939.939,0,0,1,.372.34c0,.013.011.019.021.016s.013-.01.013-.023v-1.64A.059.059,0,0,1,604.161,3836.561Zm-.09,3.493q.016-.16.016-.5a4.786,4.786,0,0,0-.019-.517,1.46,1.46,0,0,0-.067-.3.828.828,0,0,0-.282-.443.793.793,0,0,0-.517-.171.869.869,0,0,0-.539.171.823.823,0,0,0-.306.436.975.975,0,0,0-.083.291,4.017,4.017,0,0,0-.024.523,4.286,4.286,0,0,0,.021.5,1.354,1.354,0,0,0,.066.289.769.769,0,0,0,.3.454.908.908,0,0,0,.559.174.8.8,0,0,0,.523-.174.885.885,0,0,0,.289-.454A1.209,1.209,0,0,0,604.071,3840.054Z" transform="translate(-583.762 -3836.528)"/>
              <path id="Trazado_6993" data-name="Trazado 6993" class="cls-9" d="M609.244,3838.745a1.1,1.1,0,0,1,.306.816v2.228a.059.059,0,0,1-.067.066h-.22a.058.058,0,0,1-.066-.066v-.314a.021.021,0,0,0-.01-.02c-.007,0-.015,0-.023.006a1.077,1.077,0,0,1-.449.333,1.6,1.6,0,0,1-.616.113,1.287,1.287,0,0,1-.779-.232.828.828,0,0,1-.319-.714.937.937,0,0,1,.365-.78,1.592,1.592,0,0,1,1.005-.287h.8a.024.024,0,0,0,.027-.027v-.3a.825.825,0,0,0-.21-.594.849.849,0,0,0-.643-.22,1.024,1.024,0,0,0-.559.14.588.588,0,0,0-.273.373c-.013.045-.039.065-.08.06l-.233-.033c-.049-.009-.068-.027-.059-.053a.846.846,0,0,1,.389-.58,1.452,1.452,0,0,1,.822-.22A1.216,1.216,0,0,1,609.244,3838.745Zm-.356,2.65a.652.652,0,0,0,.309-.573v-.607a.024.024,0,0,0-.027-.026h-.766a1.316,1.316,0,0,0-.762.2.635.635,0,0,0-.289.553.573.573,0,0,0,.226.494.948.948,0,0,0,.579.167A1.285,1.285,0,0,0,608.888,3841.395Z" transform="translate(-585.464 -3837.154)"/>
              <path id="Trazado_6994" data-name="Trazado 6994" class="cls-9" d="M614.416,3836.561h.22a.059.059,0,0,1,.067.066v4.534a.059.059,0,0,1-.067.066h-.22a.058.058,0,0,1-.066-.066v-.327c0-.014,0-.021-.011-.023s-.014,0-.023.01a.948.948,0,0,1-.372.341,1.142,1.142,0,0,1-.527.12,1.219,1.219,0,0,1-.765-.24,1.189,1.189,0,0,1-.426-.646,1.526,1.526,0,0,1-.06-.343c-.009-.127-.013-.293-.013-.5s0-.364.013-.493a1.873,1.873,0,0,1,.053-.346,1.14,1.14,0,0,1,.416-.657,1.246,1.246,0,0,1,.782-.243,1.142,1.142,0,0,1,.527.12.943.943,0,0,1,.372.34c0,.013.011.019.02.016s.014-.01.014-.023v-1.64A.058.058,0,0,1,614.416,3836.561Zm-.089,3.493q.016-.16.016-.5a4.953,4.953,0,0,0-.019-.517,1.46,1.46,0,0,0-.067-.3.828.828,0,0,0-.283-.443.791.791,0,0,0-.516-.171.873.873,0,0,0-.539.171.83.83,0,0,0-.306.436,1.017,1.017,0,0,0-.083.291,4.175,4.175,0,0,0-.023.523,4.283,4.283,0,0,0,.021.5,1.354,1.354,0,0,0,.066.289.771.771,0,0,0,.3.454.912.912,0,0,0,.559.174.793.793,0,0,0,.523-.174.885.885,0,0,0,.29-.454A1.206,1.206,0,0,0,614.327,3840.054Z" transform="translate(-587.181 -3836.528)"/>
              <path id="Trazado_6995" data-name="Trazado 6995" class="cls-9" d="M576.958,3846.561h.22a.059.059,0,0,1,.067.067v4.534a.059.059,0,0,1-.067.066h-.22a.058.058,0,0,1-.066-.066v-.327c0-.013,0-.021-.011-.023s-.014,0-.023.01a.946.946,0,0,1-.372.341,1.142,1.142,0,0,1-.527.12,1.219,1.219,0,0,1-.765-.24,1.19,1.19,0,0,1-.426-.646,1.53,1.53,0,0,1-.06-.343c-.009-.127-.013-.293-.013-.5s0-.364.013-.493a1.869,1.869,0,0,1,.053-.346,1.141,1.141,0,0,1,.416-.657,1.247,1.247,0,0,1,.782-.243,1.142,1.142,0,0,1,.527.12.946.946,0,0,1,.372.341c0,.012.011.019.02.016s.014-.01.014-.023v-1.64A.059.059,0,0,1,576.958,3846.561Zm-.089,3.493q.016-.16.016-.5a4.976,4.976,0,0,0-.019-.517,1.46,1.46,0,0,0-.067-.3.829.829,0,0,0-.283-.443.791.791,0,0,0-.516-.171.873.873,0,0,0-.539.171.832.832,0,0,0-.306.436,1.02,1.02,0,0,0-.083.291,4.167,4.167,0,0,0-.023.523,4.266,4.266,0,0,0,.021.5,1.36,1.36,0,0,0,.066.289.771.771,0,0,0,.3.453.91.91,0,0,0,.559.174.792.792,0,0,0,.523-.174.886.886,0,0,0,.29-.453A1.215,1.215,0,0,0,576.869,3850.054Z" transform="translate(-574.695 -3839.861)"/>
              <path id="Trazado_6996" data-name="Trazado 6996" class="cls-9" d="M581.892,3851.451a.976.976,0,0,0,.349-.4c.022-.04.051-.051.087-.033l.173.086c.039.022.051.052.033.087a1.15,1.15,0,0,1-.463.52,1.387,1.387,0,0,1-.742.193,1.353,1.353,0,0,1-.793-.227,1.136,1.136,0,0,1-.446-.62,1.844,1.844,0,0,1-.073-.374c-.014-.138-.02-.311-.02-.52s0-.382.009-.493a1.874,1.874,0,0,1,.044-.307,1.191,1.191,0,0,1,.436-.673,1.452,1.452,0,0,1,1.681.03,1.26,1.26,0,0,1,.405.784,2.443,2.443,0,0,1,.027.3c0,.113.007.255.007.423a.059.059,0,0,1-.067.067h-2.17a.024.024,0,0,0-.027.026,3.044,3.044,0,0,0,.033.567.852.852,0,0,0,.329.517,1.062,1.062,0,0,0,.649.191A.973.973,0,0,0,581.892,3851.451Zm-1.548-1.483a.023.023,0,0,0,.027.026h1.857a.023.023,0,0,0,.027-.026,2.794,2.794,0,0,0-.033-.5.9.9,0,0,0-.32-.517,1.035,1.035,0,0,0-1.2-.007.84.84,0,0,0-.307.5A2.862,2.862,0,0,0,580.344,3849.968Z" transform="translate(-576.463 -3840.488)"/>
              <path id="Trazado_6997" data-name="Trazado 6997" class="cls-9" d="M589.857,3849.671c.009.127.013.292.013.5s0,.371-.013.5a1.939,1.939,0,0,1-.053.344,1.139,1.139,0,0,1-.417.656,1.244,1.244,0,0,1-.782.244,1.139,1.139,0,0,1-.523-.116.939.939,0,0,1-.369-.336c-.009-.009-.017-.013-.023-.011s-.011.011-.011.023v1.627a.058.058,0,0,1-.066.066h-.22a.059.059,0,0,1-.067-.066v-4.534a.059.059,0,0,1,.067-.067h.22a.059.059,0,0,1,.066.067v.32c0,.014,0,.021.011.023s.014,0,.023-.01a.93.93,0,0,1,.369-.337,1.145,1.145,0,0,1,.523-.117,1.22,1.22,0,0,1,.765.24,1.2,1.2,0,0,1,.426.646A1.53,1.53,0,0,1,589.857,3849.671Zm-.433,1.284a1.007,1.007,0,0,0,.073-.28,6.3,6.3,0,0,0,0-1,1.466,1.466,0,0,0-.067-.29.769.769,0,0,0-.3-.453.912.912,0,0,0-.559-.174.784.784,0,0,0-.523.177.865.865,0,0,0-.283.45,1.234,1.234,0,0,0-.067.28,6.588,6.588,0,0,0,0,1.026,1.506,1.506,0,0,0,.067.294.832.832,0,0,0,.283.443.8.8,0,0,0,.523.17.887.887,0,0,0,.526-.158.777.777,0,0,0,.3-.41Z" transform="translate(-578.906 -3840.488)"/>
              <path id="Trazado_6998" data-name="Trazado 6998" class="cls-9" d="M594.274,3851.451a.973.973,0,0,0,.35-.4c.022-.04.051-.051.087-.033l.173.086c.04.022.051.052.033.087a1.15,1.15,0,0,1-.463.52,1.391,1.391,0,0,1-.742.193,1.353,1.353,0,0,1-.793-.227,1.137,1.137,0,0,1-.446-.62,1.76,1.76,0,0,1-.073-.374c-.014-.138-.02-.311-.02-.52s0-.382.009-.493a1.811,1.811,0,0,1,.044-.307,1.19,1.19,0,0,1,.436-.673,1.451,1.451,0,0,1,1.681.03,1.258,1.258,0,0,1,.406.784,2.457,2.457,0,0,1,.027.3c0,.113.007.255.007.423a.06.06,0,0,1-.067.067h-2.17a.024.024,0,0,0-.027.026,3.039,3.039,0,0,0,.033.567.852.852,0,0,0,.329.517,1.063,1.063,0,0,0,.649.191A.969.969,0,0,0,594.274,3851.451Zm-1.547-1.483a.023.023,0,0,0,.027.026h1.857a.023.023,0,0,0,.027-.026,2.725,2.725,0,0,0-.033-.5.9.9,0,0,0-.319-.517,1.036,1.036,0,0,0-1.205-.007.845.845,0,0,0-.307.5A2.943,2.943,0,0,0,592.727,3849.968Z" transform="translate(-580.59 -3840.488)"/>
              <path id="Trazado_6999" data-name="Trazado 6999" class="cls-9" d="M599.881,3848.765a1.112,1.112,0,0,1,.315.826v2.2a.058.058,0,0,1-.066.066h-.219a.059.059,0,0,1-.067-.066v-2.134a.888.888,0,0,0-.239-.643.829.829,0,0,0-.626-.25.881.881,0,0,0-.646.243.857.857,0,0,0-.246.637v2.147a.059.059,0,0,1-.067.066H597.8a.059.059,0,0,1-.067-.066v-3.227a.059.059,0,0,1,.067-.067h.219a.059.059,0,0,1,.067.067v.327c0,.014,0,.021.01.023s.013,0,.017-.009a.947.947,0,0,1,.386-.337,1.237,1.237,0,0,1,.553-.117A1.127,1.127,0,0,1,599.881,3848.765Z" transform="translate(-582.375 -3840.491)"/>
              <path id="Trazado_7000" data-name="Trazado 7000" class="cls-9" d="M603.319,3851.785a1.041,1.041,0,0,1-.43-.316.708.708,0,0,1-.153-.44v-.086a.059.059,0,0,1,.067-.067h.206a.059.059,0,0,1,.067.067v.073a.513.513,0,0,0,.247.424,1.052,1.052,0,0,0,.625.176.96.96,0,0,0,.606-.18.544.544,0,0,0,.233-.447.415.415,0,0,0-.119-.307.8.8,0,0,0-.283-.183c-.109-.042-.273-.1-.49-.164a5.159,5.159,0,0,1-.6-.213,1.039,1.039,0,0,1-.383-.283.687.687,0,0,1-.157-.463.774.774,0,0,1,.323-.65,1.376,1.376,0,0,1,.849-.244,1.568,1.568,0,0,1,.623.117,1.021,1.021,0,0,1,.42.317.737.737,0,0,1,.149.453v.021a.059.059,0,0,1-.067.066h-.207a.059.059,0,0,1-.067-.066v-.021a.507.507,0,0,0-.236-.423,1.05,1.05,0,0,0-.623-.169,1.033,1.033,0,0,0-.6.156.49.49,0,0,0-.227.424.414.414,0,0,0,.21.379,3,3,0,0,0,.655.261,5.305,5.305,0,0,1,.616.213,1.165,1.165,0,0,1,.4.283.683.683,0,0,1,.166.477.821.821,0,0,1-.323.676,1.344,1.344,0,0,1-.862.257A1.621,1.621,0,0,1,603.319,3851.785Z" transform="translate(-584.042 -3840.501)"/>
              <path id="Trazado_7001" data-name="Trazado 7001" class="cls-9" d="M607.663,3847.084a.339.339,0,0,1,.479-.48.355.355,0,0,1,0,.48.354.354,0,0,1-.479,0Zm.046,4.053v-3.227a.059.059,0,0,1,.067-.067H608a.059.059,0,0,1,.066.067v3.227a.059.059,0,0,1-.066.067h-.219A.059.059,0,0,1,607.709,3851.138Z" transform="translate(-585.653 -3839.844)"/>
              <path id="Trazado_7002" data-name="Trazado 7002" class="cls-9" d="M610.473,3851.034a1.218,1.218,0,0,1-.453-.66,3.447,3.447,0,0,1-.073-.833,3.349,3.349,0,0,1,.073-.826,1.212,1.212,0,0,1,.45-.657,1.447,1.447,0,0,1,1.611,0,1.18,1.18,0,0,1,.449.654,1.854,1.854,0,0,1,.053.343q.014.19.014.483c0,.2,0,.369-.014.493a1.849,1.849,0,0,1-.053.34,1.178,1.178,0,0,1-.449.66,1.326,1.326,0,0,1-.809.247A1.3,1.3,0,0,1,610.473,3851.034Zm1.4-.263a.89.89,0,0,0,.323-.517,3.381,3.381,0,0,0,.047-.706,3.906,3.906,0,0,0-.04-.707.881.881,0,0,0-.323-.52.963.963,0,0,0-.609-.193.953.953,0,0,0-.606.193.885.885,0,0,0-.319.52,5.371,5.371,0,0,0,0,1.413.887.887,0,0,0,.319.521,1.034,1.034,0,0,0,1.209,0Zm-.849-3.374a.054.054,0,0,1,.007-.057l.405-.733a.08.08,0,0,1,.08-.047h.193a.056.056,0,0,1,.053.023.055.055,0,0,1-.007.057l-.446.733a.1.1,0,0,1-.08.047h-.153A.056.056,0,0,1,611.025,3847.4Z" transform="translate(-586.446 -3839.861)"/>
              <path id="Trazado_7003" data-name="Trazado 7003" class="cls-9" d="M617.487,3848.765a1.11,1.11,0,0,1,.316.826v2.2a.059.059,0,0,1-.067.066h-.219a.059.059,0,0,1-.067-.066v-2.134a.889.889,0,0,0-.24-.643.828.828,0,0,0-.625-.25.879.879,0,0,0-.646.243.857.857,0,0,0-.246.637v2.147a.059.059,0,0,1-.067.066h-.219a.058.058,0,0,1-.066-.066v-3.227a.059.059,0,0,1,.066-.067h.219a.059.059,0,0,1,.067.067v.327c0,.014,0,.021.009.023s.013,0,.017-.009a.942.942,0,0,1,.386-.337,1.234,1.234,0,0,1,.552-.117A1.125,1.125,0,0,1,617.487,3848.765Z" transform="translate(-588.243 -3840.491)"/>
            </g>
          </g>
        </g>
      </g>
    </g>
  </g>
</svg>
