<svg xmlns="http://www.w3.org/2000/svg" width="43.481" height="36.627" viewBox="0 0 43.481 36.627">
  <g id="Сгруппировать_1656" data-name="Сгруппировать 1656" transform="translate(-0.5 0.513)">
    <g id="Сгруппировать_1467" data-name="Сгруппировать 1467" transform="translate(-1165.345 -59.631)">
      <path id="Контур_7559" data-name="Контур 7559" d="M1200.7,70.6h-26.229l-1.65,6.39h29.529Z" fill="#666"/>
      <path id="Контур_7560" data-name="Контур 7560" d="M1202.349,77.015v-.024h0l-3.862-14.961a3.2,3.2,0,0,0-4.178-2.209l-5.641,2.031a3.2,3.2,0,0,1-2.166,0l-5.64-2.031a3.2,3.2,0,0,0-4.178,2.209l-3.863,14.961" fill="none" stroke="#666" stroke-linecap="round" stroke-linejoin="round" stroke-width="1"/>
      <path id="Контур_7561" data-name="Контур 7561" d="M1177.561,84.165a4.619,4.619,0,1,1-3.322,7.829Z" fill="#666"/>
      <path id="Контур_7562" data-name="Контур 7562" d="M1197.61,84.165a4.619,4.619,0,1,1-3.322,7.829Z" fill="#666"/>
      <circle id="Эллипс_163" data-name="Эллипс 163" cx="6.461" cy="6.461" r="6.461" transform="translate(1171.1 82.323)" fill="none" stroke="#666" stroke-linecap="round" stroke-linejoin="round" stroke-width="1"/>
      <circle id="Эллипс_164" data-name="Эллипс 164" cx="6.461" cy="6.461" r="6.461" transform="translate(1191.149 82.323)" fill="none" stroke="#666" stroke-linecap="round" stroke-linejoin="round" stroke-width="1"/>
      <line id="Линия_973" data-name="Линия 973" x2="7.127" transform="translate(1184.022 88.784)" fill="none" stroke="#666" stroke-linecap="round" stroke-linejoin="round" stroke-width="1"/>
      <line id="Линия_974" data-name="Линия 974" x1="4.755" transform="translate(1166.345 88.784)" fill="none" stroke="#666" stroke-linecap="round" stroke-linejoin="round" stroke-width="1"/>
      <line id="Линия_975" data-name="Линия 975" x2="4.755" transform="translate(1204.071 88.784)" fill="none" stroke="#666" stroke-linecap="round" stroke-linejoin="round" stroke-width="1"/>
      <line id="Линия_976" data-name="Линия 976" x1="42.481" transform="translate(1166.345 76.991)" fill="none" stroke="#666" stroke-linecap="round" stroke-linejoin="round" stroke-width="1"/>
    </g>
  </g>
</svg>
