<svg xmlns="http://www.w3.org/2000/svg" width="35.286" height="39.564" viewBox="0 0 35.286 39.564">
  <g id="Сгруппировать_1658" data-name="Сгруппировать 1658" transform="translate(-1.214 0.5)">
    <g id="Сгруппировать_1609" data-name="Сгруппировать 1609" transform="translate(-147.096 -216.094)">
      <path id="Контур_7600" data-name="Контур 7600" d="M148.81,254.658V216.094h29.917a2.487,2.487,0,0,1,1.752.721l1.88,1.863a2.487,2.487,0,0,1,.737,1.768v7.46a2.487,2.487,0,0,1-.737,1.768l-1.87,1.853a2.489,2.489,0,0,0-.737,1.768V252.08a2.579,2.579,0,0,1-2.579,2.578Z" fill="none" stroke="#666" stroke-linecap="round" stroke-linejoin="round" stroke-width="1"/>
      <path id="Контур_7601" data-name="Контур 7601" d="M168.77,216.094h2.3a2.579,2.579,0,0,1,2.579,2.578V252.08a2.579,2.579,0,0,1-2.579,2.578h-2.3" fill="none" stroke="#666" stroke-linecap="round" stroke-linejoin="round" stroke-width="1"/>
      <path id="Контур_7602" data-name="Контур 7602" d="M163.716,248.016v-5.054h5.054V237.99h-5.054v-5.054h-4.971v5.054h-5.054v4.971h5.054v5.054Z" fill="#666"/>
      <path id="Контур_7603" data-name="Контур 7603" d="M173.651,251.035h3.058V219.717h-3.058" fill="none" stroke="#666" stroke-linecap="round" stroke-linejoin="round" stroke-width="1.036"/>
      <rect id="Прямоугольник_536" data-name="Прямоугольник 536" width="15.079" height="2" transform="translate(153.691 225.5)" fill="#666"/>
      <rect id="Прямоугольник_537" data-name="Прямоугольник 537" width="15.079" height="2" transform="translate(153.691 221.5)" fill="#666"/>
    </g>
  </g>
</svg>
