<svg xmlns="http://www.w3.org/2000/svg" width="39.603" height="39.603" viewBox="0 0 39.603 39.603">
  <g id="Сгруппировать_1657" data-name="Сгруппировать 1657" transform="translate(-2.33 0.5)">
    <g id="Сгруппировать_1462" data-name="Сгруппировать 1462" transform="translate(-1215.345 -58.138)">
      <circle id="Эллипс_157" data-name="Эллипс 157" cx="19.302" cy="19.302" r="19.302" transform="translate(1218.175 58.138)" fill="none" stroke="#666" stroke-linecap="round" stroke-linejoin="round" stroke-width="1"/>
      <circle id="Эллипс_158" data-name="Эллипс 158" cx="14.771" cy="14.771" r="14.771" transform="translate(1222.706 62.669)" fill="#666"/>
      <g id="Сгруппировать_1457" data-name="Сгруппировать 1457">
        <g id="Сгруппировать_1450" data-name="Сгруппировать 1450">
          <path id="Контур_7540" data-name="Контур 7540" d="M1228.491,69.2a.86.86,0,0,1-.287-.045,1,1,0,0,1-.242-.166.723.723,0,0,1-.225-.543.662.662,0,0,1,.06-.288.527.527,0,0,1,.165-.24.756.756,0,0,1,1.057,0,.712.712,0,0,1,.227.528.7.7,0,0,1-.06.3.657.657,0,0,1-.167.241.946.946,0,0,1-.242.166A.849.849,0,0,1,1228.491,69.2Z" fill="#fff"/>
        </g>
        <g id="Сгруппировать_1451" data-name="Сгруппировать 1451">
          <path id="Контур_7541" data-name="Контур 7541" d="M1245.712,68.455a.859.859,0,0,1,.046-.287,1.027,1.027,0,0,1,.165-.242.724.724,0,0,1,.544-.225.645.645,0,0,1,.287.06.53.53,0,0,1,.241.165.756.756,0,0,1,0,1.057.712.712,0,0,1-.528.227.68.68,0,0,1-.3-.061.665.665,0,0,1-.242-.166.987.987,0,0,1-.165-.242A.853.853,0,0,1,1245.712,68.455Z" fill="#fff"/>
        </g>
        <g id="Сгруппировать_1452" data-name="Сгруппировать 1452">
          <path id="Контур_7542" data-name="Контур 7542" d="M1249.653,76.911a.826.826,0,0,1,.236-.171.973.973,0,0,1,.288-.055.721.721,0,0,1,.544.226.651.651,0,0,1,.16.245.518.518,0,0,1,.053.287.754.754,0,0,1-.747.747.711.711,0,0,1-.534-.212.7.7,0,0,1-.171-.257.668.668,0,0,1-.053-.288.977.977,0,0,1,.054-.288A.852.852,0,0,1,1249.653,76.911Z" fill="#fff"/>
        </g>
        <g id="Сгруппировать_1453" data-name="Сгруппировать 1453">
          <path id="Контур_7543" data-name="Контур 7543" d="M1246.461,85.676a.87.87,0,0,1,.288.046.946.946,0,0,1,.241.165.721.721,0,0,1,.226.544.658.658,0,0,1-.06.287.522.522,0,0,1-.166.24.753.753,0,0,1-1.056,0,.7.7,0,0,1-.227-.527.7.7,0,0,1,.06-.3.661.661,0,0,1,.167-.242.93.93,0,0,1,.241-.165A.858.858,0,0,1,1246.461,85.676Z" fill="#fff"/>
        </g>
        <g id="Сгруппировать_1454" data-name="Сгруппировать 1454">
          <path id="Контур_7544" data-name="Контур 7544" d="M1238.006,89.617a.863.863,0,0,1,.171.236,1,1,0,0,1,.054.287.719.719,0,0,1-.225.544.657.657,0,0,1-.246.161.526.526,0,0,1-.287.053.756.756,0,0,1-.747-.747.712.712,0,0,1,.213-.534.7.7,0,0,1,.256-.171.675.675,0,0,1,.289-.053.982.982,0,0,1,.288.054A.866.866,0,0,1,1238.006,89.617Z" fill="#fff"/>
        </g>
        <g id="Сгруппировать_1455" data-name="Сгруппировать 1455">
          <path id="Контур_7545" data-name="Контур 7545" d="M1229.241,86.425a.859.859,0,0,1-.046.287,1.007,1.007,0,0,1-.165.242.721.721,0,0,1-.544.226.653.653,0,0,1-.288-.061.525.525,0,0,1-.24-.165.756.756,0,0,1,0-1.057.712.712,0,0,1,.528-.227.694.694,0,0,1,.3.061.665.665,0,0,1,.242.166,1.007,1.007,0,0,1,.165.242A.853.853,0,0,1,1229.241,86.425Z" fill="#fff"/>
        </g>
        <g id="Сгруппировать_1456" data-name="Сгруппировать 1456">
          <path id="Контур_7546" data-name="Контур 7546" d="M1225.3,77.97a.874.874,0,0,1-.235.171,1,1,0,0,1-.288.054.724.724,0,0,1-.544-.225.655.655,0,0,1-.16-.246.518.518,0,0,1-.053-.287.755.755,0,0,1,.747-.747.708.708,0,0,1,.533.213.685.685,0,0,1,.171.256.67.67,0,0,1,.054.289.949.949,0,0,1-.055.287A.835.835,0,0,1,1225.3,77.97Z" fill="#fff"/>
        </g>
      </g>
      <path id="Контур_7547" data-name="Контур 7547" d="M1237.476,61.288V77.44l-6.953-6.953" fill="none" stroke="#fff" stroke-linecap="round" stroke-linejoin="round" stroke-width="1"/>
    </g>
  </g>
</svg>
