<svg xmlns="http://www.w3.org/2000/svg" width="41.865" height="35.63" viewBox="0 0 41.865 35.63">
  <g id="Сгруппировать_1659" data-name="Сгруппировать 1659" transform="translate(-1.718 0.5)">
    <g id="Сгруппировать_1464" data-name="Сгруппировать 1464" transform="translate(-1328.345 -61.634)">
      <path id="Контур_7548" data-name="Контур 7548" d="M1367.284,74.543l-1.025-4.175a9.282,9.282,0,0,1,.863-6.634h-.679a3.4,3.4,0,0,0-2.819,1.5l-4.653,6.875a2.1,2.1,0,0,1-3.384.133l-2.989-3.746a12.652,12.652,0,0,0-9.887-4.758h-8.229l1.759,2.644a23.012,23.012,0,0,0,9.941,8.344l5.232,2.289a2.108,2.108,0,0,1-.647,4.031L1336.3,82.4a27.78,27.78,0,0,0,8.911,10.861l4.209-7.456a2.168,2.168,0,0,1,2.207-1.079l5.757.853a8.908,8.908,0,0,0,10.041-7.148A9.009,9.009,0,0,0,1367.284,74.543Z" fill="#666"/>
      <path id="Контур_7549" data-name="Контур 7549" d="M1330.563,61.634h12.148a14.749,14.749,0,0,1,11.529,5.551l2.99,3.747,4.656-6.879a5.5,5.5,0,0,1,4.556-2.419h4.986l-1.6,1.854a7.161,7.161,0,0,0-1.531,6.38l1.057,4.308a10.985,10.985,0,0,1-2.111,9.5h0a10.985,10.985,0,0,1-10.167,3.979l-5.8-.86-5.344,9.465h0a29.764,29.764,0,0,1-12.565-15.53l-.055-.157,17.3-1.628-5.266-2.305a25.134,25.134,0,0,1-10.847-9.1Z" fill="none" stroke="#666" stroke-linecap="round" stroke-linejoin="round" stroke-width="1"/>
      <g id="Сгруппировать_1459" data-name="Сгруппировать 1459">
        <path id="Контур_7550" data-name="Контур 7550" d="M1364.267,65.737a.794.794,0,0,1,.043-.267.918.918,0,0,1,.153-.224.671.671,0,0,1,.5-.209.611.611,0,0,1,.267.056.485.485,0,0,1,.223.153.7.7,0,0,1,0,.98.66.66,0,0,1-.49.21.644.644,0,0,1-.28-.056.6.6,0,0,1-.224-.154.881.881,0,0,1-.153-.224A.786.786,0,0,1,1364.267,65.737Z" fill="#fff"/>
      </g>
    </g>
  </g>
</svg>
